Merriweather_2023April18.glyphspackage
{
glyphname = exclam;
kernLeft = exclam;
kernRight = exclam;
layers = (
{
layerId = UUID0;
shapes = (
{
closed = 1;
nodes = (
(174,1798,l),
(224,460,l),
(326,460,l),
(368,1798,l)
);
},
{
closed = 1;
nodes = (
(160,20,o),
(214,-22,o),
(272,-22,cs),
(342,-22,o),
(406,30,o),
(406,108,cs),
(406,166,o),
(372,218,o),
(292,218,cs),
(228,218,o),
(160,162,o),
(160,88,cs)
);
}
);
width = 566;
},
{
layerId = "DEBB1CE4-A72D-4960-969E-E04A036D2FA1";
shapes = (
{
closed = 1;
nodes = (
(110,1780,l),
(201,516,l),
(389,516,l),
(480,1780,l)
);
},
{
closed = 1;
nodes = (
(117,51,o),
(201,-16,o),
(287,-16,cs),
(408,-16,o),
(494,49,o),
(494,164,cs),
(494,249,o),
(429,330,o),
(317,330,cs),
(207,330,o),
(117,257,o),
(117,149,cs)
);
}
);
width = 604;
},
{
layerId = "184155C8-9F61-4F1C-9784-DDA8EA717636";
shapes = (
{
closed = 1;
nodes = (
(60,1780,l),
(221,456,l),
(276,456,l),
(436,1780,l)
);
},
{
closed = 1;
nodes = (
(81,47,o),
(152,-16,o),
(232,-16,cs),
(342,-16,o),
(416,44,o),
(416,149,cs),
(416,227,o),
(361,301,o),
(260,301,cs),
(160,301,o),
(81,234,o),
(81,136,cs)
);
}
);
width = 496;
},
{
layerId = "EA2265BD-E890-48C4-9E90-A53076E780C5";
shapes = (
{
closed = 1;
nodes = (
(100,1780,l),
(187,516,l),
(384,516,l),
(470,1780,l)
);
},
{
closed = 1;
nodes = (
(107,51,o),
(191,-16,o),
(277,-16,cs),
(398,-16,o),
(484,49,o),
(484,164,cs),
(484,249,o),
(419,330,o),
(307,330,cs),
(197,330,o),
(107,257,o),
(107,149,cs)
);
}
);
width = 584;
},
{
layerId = "0E4B6E2E-ECAB-4D06-9686-B0B40AA31834";
shapes = (
{
closed = 1;
nodes = (
(134,1798,l),
(184,460,l),
(286,460,l),
(328,1798,l)
);
},
{
closed = 1;
nodes = (
(120,20,o),
(174,-22,o),
(232,-22,cs),
(302,-22,o),
(366,30,o),
(366,108,cs),
(366,166,o),
(332,218,o),
(252,218,cs),
(188,218,o),
(120,162,o),
(120,88,cs)
);
}
);
width = 486;
},
{
layerId = "F2B10EEF-9DDC-48CA-970D-6B8C79870881";
shapes = (
{
closed = 1;
nodes = (
(50,1780,l),
(192,470,l),
(243,470,l),
(384,1780,l)
);
},
{
closed = 1;
nodes = (
(69,47,o),
(132,-16,o),
(203,-16,cs),
(300,-16,o),
(366,44,o),
(366,149,cs),
(366,227,o),
(317,301,o),
(228,301,cs),
(139,301,o),
(69,234,o),
(69,136,cs)
);
}
);
width = 434;
},
{
layerId = "E96AC896-F5DF-475B-BBD9-C7FEC6A86D0E";
shapes = (
{
closed = 1;
nodes = (
(103,1798,l),
(159,347,l),
(204,347,l),
(253,1798,l)
);
},
{
closed = 1;
nodes = (
(95,14,o),
(130,-22,o),
(172,-22,cs),
(218,-22,o),
(261,22,o),
(261,85,cs),
(261,132,o),
(238,176,o),
(186,176,cs),
(139,176,o),
(95,130,o),
(95,69,cs)
);
}
);
width = 356;
},
{
layerId = "C9B9556E-C2FD-4F62-BB40-44923C452C22";
shapes = (
{
closed = 1;
nodes = (
(109,1798,l),
(166,359,l),
(214,359,l),
(263,1798,l)
);
},
{
closed = 1;
nodes = (
(90,14,o),
(130,-22,o),
(179,-22,cs),
(232,-22,o),
(282,22,o),
(282,85,cs),
(282,132,o),
(256,176,o),
(195,176,cs),
(141,176,o),
(90,130,o),
(90,69,cs)
);
}
);
width = 372;
},
{
layerId = "AFA1064D-EFC9-4C9F-B9B0-9118E41D87C4";
shapes = (
{
closed = 1;
nodes = (
(40,1780,l),
(226,486,l),
(275,486,l),
(460,1780,l)
);
},
{
closed = 1;
nodes = (
(66,47,o),
(141,-16,o),
(232,-16,cs),
(356,-16,o),
(435,44,o),
(435,149,cs),
(435,227,o),
(377,301,o),
(263,301,cs),
(150,301,o),
(66,234,o),
(66,136,cs)
);
}
);
width = 500;
},
{
layerId = "2103F1D3-C390-4F79-A87D-298F85EA6916";
shapes = (
{
closed = 1;
nodes = (
(109,1798,l),
(169,377,l),
(216,377,l),
(267,1798,l)
);
},
{
closed = 1;
nodes = (
(80,14,o),
(125,-22,o),
(180,-22,cs),
(240,-22,o),
(296,22,o),
(296,85,cs),
(296,132,o),
(266,176,o),
(198,176,cs),
(138,176,o),
(80,130,o),
(80,69,cs)
);
}
);
width = 376;
},
{
layerId = "779F1615-9D1A-4778-9767-9A030AA58B6C";
shapes = (
{
closed = 1;
nodes = (
(144,1798,l),
(194,460,l),
(296,460,l),
(338,1798,l)
);
},
{
closed = 1;
nodes = (
(130,20,o),
(184,-22,o),
(242,-22,cs),
(312,-22,o),
(376,30,o),
(376,108,cs),
(376,166,o),
(342,218,o),
(262,218,cs),
(198,218,o),
(130,162,o),
(130,88,cs)
);
}
);
userData = {
com.schriftgestaltung.Glyphs.lastChange = "2019-04-25 21:50:43 +0000";
};
width = 506;
},
{
layerId = "97BB7961-D669-43AB-8BBF-11FFD0C46A4B";
shapes = (
{
closed = 1;
nodes = (
(120,1780,l),
(207,516,l),
(404,516,l),
(490,1780,l)
);
},
{
closed = 1;
nodes = (
(127,51,o),
(211,-16,o),
(297,-16,cs),
(418,-16,o),
(504,49,o),
(504,164,cs),
(504,249,o),
(439,330,o),
(327,330,cs),
(217,330,o),
(127,257,o),
(127,149,cs)
);
}
);
width = 624;
}
);
metricRight = "=|";
unicode = 33;
}
{
glyphname = comma;
kernLeft = period;
kernRight = period;
layers = (
{
layerId = UUID0;
shapes = (
{
closed = 1;
nodes = (
(336,278,ls),
(284,278,o),
(238,240,o),
(238,176,cs),
(238,58,o),
(334,64,o),
(334,-30,cs),
(334,-174,o),
(256,-334,o),
(210,-370,c),
(210,-388,l),
(268,-428,l),
(270,-428,l),
(366,-372,o),
(484,-184,o),
(484,48,cs),
(484,198,o),
(426,278,o),
(344,278,c)
);
}
);
width = 670;
},
{
layerId = "DEBB1CE4-A72D-4960-969E-E04A036D2FA1";
shapes = (
{
closed = 1;
nodes = (
(332,358,ls),
(234,358,o),
(164,298,o),
(164,204,cs),
(164,54,o),
(284,54,o),
(284,-49,cs),
(284,-170,o),
(229,-346,o),
(164,-401,c),
(164,-434,l),
(261,-499,l),
(263,-499,l),
(372,-444,o),
(540,-181,o),
(540,82,cs),
(540,238,o),
(448,358,o),
(344,358,c)
);
}
);
width = 669;
},
{
layerId = "184155C8-9F61-4F1C-9784-DDA8EA717636";
shapes = (
{
closed = 1;
nodes = (
(250,319,ls),
(159,319,o),
(104,265,o),
(104,179,cs),
(104,35,o),
(274,40,o),
(274,-81,cs),
(274,-194,o),
(216,-307,o),
(127,-398,c),
(127,-406,l),
(159,-427,l),
(161,-426,l),
(308,-345,o),
(446,-155,o),
(446,68,cs),
(446,210,o),
(365,319,o),
(261,319,c)
);
}
);
width = 544;
},
{
layerId = "EA2265BD-E890-48C4-9E90-A53076E780C5";
shapes = (
{
closed = 1;
nodes = (
(332,358,ls),
(234,358,o),
(164,298,o),
(164,204,cs),
(164,54,o),
(284,54,o),
(284,-49,cs),
(284,-170,o),
(229,-346,o),
(164,-401,c),
(164,-434,l),
(261,-499,l),
(263,-499,l),
(372,-444,o),
(540,-181,o),
(540,82,cs),
(540,238,o),
(448,358,o),
(344,358,c)
);
}
);
width = 669;
},
{
layerId = "0E4B6E2E-ECAB-4D06-9686-B0B40AA31834";
shapes = (
{
closed = 1;
nodes = (
(336,278,ls),
(284,278,o),
(238,240,o),
(238,176,cs),
(238,58,o),
(334,64,o),
(334,-30,cs),
(334,-174,o),
(256,-334,o),
(210,-370,c),
(210,-388,l),
(268,-428,l),
(270,-428,l),
(366,-372,o),
(484,-184,o),
(484,48,cs),
(484,198,o),
(426,278,o),
(344,278,c)
);
}
);
width = 670;
},
{
layerId = "F2B10EEF-9DDC-48CA-970D-6B8C79870881";
shapes = (
{
closed = 1;
nodes = (
(219,319,ls),
(142,319,o),
(94,262,o),
(94,181,cs),
(94,42,o),
(242,22,o),
(242,-89,cs),
(242,-195,o),
(173,-306,o),
(99,-397,c),
(99,-405,l),
(131,-427,l),
(133,-426,l),
(259,-343,o),
(394,-156,o),
(394,65,cs),
(394,212,o),
(324,319,o),
(228,319,c)
);
}
);
width = 482;
},
{
layerId = "E96AC896-F5DF-475B-BBD9-C7FEC6A86D0E";
shapes = (
{
closed = 1;
nodes = (
(175,220,ls),
(139,220,o),
(110,190,o),
(110,138,cs),
(110,43,o),
(193,35,o),
(193,-48,cs),
(193,-149,o),
(146,-254,o),
(94,-309,c),
(94,-317,l),
(124,-338,l),
(125,-338,l),
(203,-276,o),
(281,-129,o),
(281,35,cs),
(281,156,o),
(231,220,o),
(181,220,c)
);
}
);
width = 386;
},
{
layerId = "C9B9556E-C2FD-4F62-BB40-44923C452C22";
shapes = (
{
closed = 1;
nodes = (
(204,220,ls),
(162,220,o),
(125,190,o),
(125,138,cs),
(125,43,o),
(232,35,o),
(232,-46,cs),
(232,-162,o),
(165,-256,o),
(102,-311,c),
(102,-319,l),
(130,-338,l),
(131,-338,l),
(236,-279,o),
(323,-126,o),
(323,35,cs),
(323,156,o),
(273,220,o),
(210,220,c)
);
}
);
width = 440;
},
{
layerId = "AFA1064D-EFC9-4C9F-B9B0-9118E41D87C4";
shapes = (
{
closed = 1;
nodes = (
(248,319,ls),
(153,319,o),
(97,259,o),
(97,179,cs),
(97,40,o),
(272,50,o),
(272,-79,cs),
(272,-189,o),
(206,-306,o),
(113,-397,c),
(113,-405,l),
(145,-427,l),
(147,-426,l),
(299,-345,o),
(471,-168,o),
(471,68,cs),
(471,210,o),
(380,319,o),
(260,319,c)
);
}
);
width = 564;
},
{
layerId = "2103F1D3-C390-4F79-A87D-298F85EA6916";
shapes = (
{
closed = 1;
nodes = (
(222,220,ls),
(173,220,o),
(133,190,o),
(133,138,cs),
(133,43,o),
(243,35,o),
(243,-46,cs),
(243,-159,o),
(179,-250,o),
(112,-310,c),
(112,-318,l),
(137,-338,l),
(138,-338,l),
(247,-279,o),
(355,-126,o),
(355,35,cs),
(355,156,o),
(301,220,o),
(228,220,c)
);
}
);
width = 486;
},
{
layerId = "779F1615-9D1A-4778-9767-9A030AA58B6C";
shapes = (
{
closed = 1;
nodes = (
(336,278,ls),
(284,278,o),
(238,240,o),
(238,176,cs),
(238,58,o),
(334,64,o),
(334,-30,cs),
(334,-174,o),
(256,-334,o),
(210,-370,c),
(210,-388,l),
(268,-428,l),
(270,-428,l),
(366,-372,o),
(484,-184,o),
(484,48,cs),
(484,198,o),
(426,278,o),
(344,278,c)
);
}
);
userData = {
com.schriftgestaltung.Glyphs.lastChange = "2019-04-25 21:50:43 +0000";
};
width = 670;
},
{
layerId = "97BB7961-D669-43AB-8BBF-11FFD0C46A4B";
shapes = (
{
closed = 1;
nodes = (
(332,358,ls),
(234,358,o),
(164,298,o),
(164,204,cs),
(164,54,o),
(284,54,o),
(284,-49,cs),
(284,-170,o),
(229,-346,o),
(164,-401,c),
(164,-434,l),
(261,-499,l),
(263,-499,l),
(372,-444,o),
(540,-181,o),
(540,82,cs),
(540,238,o),
(448,358,o),
(344,358,c)
);
}
);
width = 669;
}
);
unicode = 44;
}
{
glyphname = eight;
kernLeft = eight;
kernRight = eight;
layers = (
{
layerId = UUID0;
shapes = (
{
closed = 1;
nodes = (
(100,86,o),
(352,-18,o),
(576,-18,cs),
(826,-18,o),
(1057,134,o),
(1057,382,cs),
(1057,574,o),
(914,686,o),
(740,782,c),
(916,879,o),
(1014,1016,o),
(1014,1174,cs),
(1014,1378,o),
(838,1504,o),
(598,1504,cs),
(380,1504,o),
(162,1378,o),
(162,1134,cs),
(162,948,o),
(276,850,o),
(414,766,c),
(198,666,o),
(100,520,o),
(100,366,cs)
);
},
{
closed = 1;
nodes = (
(304,1326,o),
(434,1422,o),
(590,1422,cs),
(758,1422,o),
(872,1314,o),
(872,1128,cs),
(872,998,o),
(784,892,o),
(654,828,c),
(474,922,o),
(304,1007,o),
(304,1170,cs)
);
},
{
closed = 1;
nodes = (
(893,178,o),
(746,70,o),
(594,70,cs),
(384,70,o),
(258,196,o),
(258,400,cs),
(258,538,o),
(362,656,o),
(496,720,c),
(696,612,o),
(893,532,o),
(893,346,cs)
);
}
);
width = 1157;
},
{
layerId = "DEBB1CE4-A72D-4960-969E-E04A036D2FA1";
shapes = (
{
closed = 1;
nodes = (
(90,101,o),
(352,-22,o),
(622,-22,cs),
(952,-22,o),
(1184,149,o),
(1184,383,cs),
(1184,599,o),
(1027,723,o),
(853,823,c),
(1023,901,o),
(1108,1023,o),
(1108,1167,cs),
(1108,1359,o),
(946,1506,o),
(650,1506,cs),
(385,1506,o),
(153,1359,o),
(153,1109,cs),
(153,919,o),
(257,801,o),
(385,715,c),
(191,643,o),
(90,501,o),
(90,359,cs)
);
},
{
closed = 1;
nodes = (
(444,1309,o),
(544,1380,o),
(650,1380,cs),
(792,1380,o),
(870,1283,o),
(870,1123,cs),
(870,1033,o),
(823,945,o),
(741,885,c),
(585,971,o),
(444,1047,o),
(444,1183,cs)
);
},
{
closed = 1;
nodes = (
(858,189,o),
(742,112,o),
(628,112,cs),
(452,112,o),
(354,233,o),
(354,407,cs),
(354,509,o),
(405,599,o),
(483,653,c),
(667,551,o),
(858,483,o),
(858,325,cs)
);
}
);
width = 1274;
},
{
layerId = "184155C8-9F61-4F1C-9784-DDA8EA717636";
shapes = (
{
closed = 1;
nodes = (
(59,87,o),
(326,-22,o),
(633,-22,cs),
(965,-22,o),
(1224,136,o),
(1224,427,cs),
(1224,648,o),
(1067,739,o),
(826,863,c),
(1017,916,o),
(1147,1020,o),
(1147,1184,cs),
(1147,1408,o),
(930,1506,o),
(665,1506,cs),
(375,1506,o),
(121,1369,o),
(121,1098,cs),
(121,964,o),
(214,794,o),
(401,690,c),
(206,649,o),
(59,523,o),
(59,355,cs)
);
},
{
closed = 1;
nodes = (
(445,1369,o),
(543,1446,o),
(663,1446,cs),
(814,1446,o),
(873,1329,o),
(873,1181,cs),
(873,1061,o),
(834,945,o),
(771,892,c),
(601,978,o),
(445,1048,o),
(445,1228,cs)
);
},
{
closed = 1;
nodes = (
(873,119,o),
(768,37,o),
(637,37,cs),
(456,37,o),
(353,193,o),
(353,388,cs),
(353,529,o),
(397,606,o),
(459,657,c),
(686,557,o),
(873,464,o),
(873,262,cs)
);
}
);
width = 1283;
},
{
layerId = "EA2265BD-E890-48C4-9E90-A53076E780C5";
shapes = (
{
closed = 1;
nodes = (
(85,105,o),
(334,-22,o),
(593,-22,cs),
(913,-22,o),
(1132,152,o),
(1132,389,cs),
(1132,588,o),
(989,717,o),
(824,818,c),
(982,897,o),
(1060,1017,o),
(1060,1172,cs),
(1060,1364,o),
(907,1506,o),
(623,1506,cs),
(364,1506,o),
(137,1361,o),
(137,1111,cs),
(137,908,o),
(246,791,o),
(361,708,c),
(189,637,o),
(85,499,o),
(85,364,cs)
);
},
{
closed = 1;
nodes = (
(436,1314,o),
(532,1381,o),
(624,1381,cs),
(757,1381,o),
(830,1288,o),
(830,1128,cs),
(830,1026,o),
(789,939,o),
(719,879,c),
(572,965,o),
(436,1040,o),
(436,1188,cs)
);
},
{
closed = 1;
nodes = (
(802,195,o),
(701,111,o),
(597,111,cs),
(433,111,o),
(340,238,o),
(340,411,cs),
(340,503,o),
(385,593,o),
(450,646,c),
(628,543,o),
(802,458,o),
(802,330,cs)
);
}
);
width = 1217;
},
{
layerId = "0E4B6E2E-ECAB-4D06-9686-B0B40AA31834";
shapes = (
{
closed = 1;
nodes = (
(115,88,o),
(364,-18,o),
(578,-18,cs),
(825,-18,o),
(1034,152,o),
(1034,384,cs),
(1034,569,o),
(910,674,o),
(723,770,c),
(896,870,o),
(994,1016,o),
(994,1174,cs),
(994,1378,o),
(823,1504,o),
(594,1504,cs),
(326,1504,o),
(172,1317,o),
(172,1123,cs),
(172,985,o),
(249,843,o),
(419,761,c),
(203,679,o),
(115,521,o),
(115,368,cs)
);
},
{
closed = 1;
nodes = (
(312,1326,o),
(437,1422,o),
(586,1422,cs),
(747,1422,o),
(856,1314,o),
(856,1128,cs),
(856,998,o),
(772,879,o),
(637,815,c),
(463,906,o),
(312,1004,o),
(312,1170,cs)
);
},
{
closed = 1;
nodes = (
(875,180,o),
(741,70,o),
(595,70,cs),
(395,70,o),
(268,198,o),
(268,402,cs),
(268,543,o),
(360,672,o),
(498,722,c),
(698,625,o),
(875,520,o),
(875,348,cs)
);
}
);
width = 1149;
},
{
layerId = "F2B10EEF-9DDC-48CA-970D-6B8C79870881";
shapes = (
{
closed = 1;
nodes = (
(56,83,o),
(314,-22,o),
(555,-22,cs),
(852,-22,o),
(1068,136,o),
(1068,427,cs),
(1068,648,o),
(916,741,o),
(707,865,c),
(872,918,o),
(1002,1020,o),
(1002,1184,cs),
(1002,1408,o),
(803,1506,o),
(591,1506,cs),
(339,1506,o),
(112,1369,o),
(112,1098,cs),
(112,964,o),
(207,794,o),
(370,690,c),
(187,650,o),
(56,523,o),
(56,351,cs)
);
},
{
closed = 1;
nodes = (
(400,1368,o),
(484,1446,o),
(590,1446,cs),
(722,1446,o),
(771,1329,o),
(771,1181,cs),
(771,1071,o),
(717,952,o),
(664,894,c),
(539,980,o),
(400,1049,o),
(400,1228,cs)
);
},
{
closed = 1;
nodes = (
(755,119,o),
(673,37,o),
(557,37,cs),
(400,37,o),
(311,193,o),
(311,388,cs),
(311,500,o),
(361,606,o),
(415,657,c),
(612,555,o),
(755,458,o),
(755,262,cs)
);
}
);
width = 1124;
},
{
layerId = "E96AC896-F5DF-475B-BBD9-C7FEC6A86D0E";
shapes = (
{
closed = 1;
nodes = (
(55,146,o),
(187,-18,o),
(493,-18,cs),
(744,-18,o),
(956,135,o),
(956,392,cs),
(956,592,o),
(799,703,o),
(616,790,c),
(814,885,o),
(916,1044,o),
(916,1188,cs),
(916,1356,o),
(786,1504,o),
(536,1504,cs),
(327,1504,o),
(126,1378,o),
(126,1134,cs),
(126,930,o),
(266,818,o),
(390,739,c),
(169,656,o),
(55,505,o),
(55,349,cs)
);
},
{
closed = 1;
nodes = (
(252,1359,o),
(358,1458,o),
(523,1458,cs),
(696,1458,o),
(787,1311,o),
(787,1152,cs),
(787,1010,o),
(718,872,o),
(585,805,c),
(374,924,o),
(252,1018,o),
(252,1193,cs)
);
},
{
closed = 1;
nodes = (
(814,146,o),
(682,33,o),
(516,33,cs),
(284,33,o),
(196,202,o),
(196,378,cs),
(196,516,o),
(277,658,o),
(435,722,c),
(646,599,o),
(814,519,o),
(814,319,cs)
);
}
);
width = 1011;
},
{
layerId = "C9B9556E-C2FD-4F62-BB40-44923C452C22";
shapes = (
{
closed = 1;
nodes = (
(80,131,o),
(273,-18,o),
(556,-18,cs),
(829,-18,o),
(1059,135,o),
(1059,392,cs),
(1059,592,o),
(893,703,o),
(694,790,c),
(919,885,o),
(1016,1044,o),
(1016,1188,cs),
(1016,1356,o),
(874,1504,o),
(603,1504,cs),
(375,1504,o),
(157,1378,o),
(157,1134,cs),
(157,930,o),
(305,818,o),
(440,739,c),
(189,666,o),
(80,505,o),
(80,349,cs)
);
},
{
closed = 1;
nodes = (
(294,1359,o),
(409,1458,o),
(588,1458,cs),
(777,1458,o),
(876,1311,o),
(876,1152,cs),
(876,1010,o),
(806,874,o),
(651,807,c),
(422,926,o),
(294,1018,o),
(294,1193,cs)
);
},
{
closed = 1;
nodes = (
(905,146,o),
(761,33,o),
(581,33,cs),
(379,33,o),
(233,187,o),
(233,378,cs),
(233,516,o),
(307,668,o),
(488,722,c),
(718,599,o),
(905,519,o),
(905,319,cs)
);
}
);
width = 1139;
},
{
layerId = "AFA1064D-EFC9-4C9F-B9B0-9118E41D87C4";
shapes = (
{
closed = 1;
nodes = (
(40,83,o),
(346,-22,o),
(632,-22,cs),
(985,-22,o),
(1241,136,o),
(1241,427,cs),
(1241,646,o),
(1093,741,o),
(841,866,c),
(1034,918,o),
(1165,1017,o),
(1165,1184,cs),
(1165,1408,o),
(928,1506,o),
(676,1506,cs),
(376,1506,o),
(104,1369,o),
(104,1098,cs),
(104,963,o),
(189,795,o),
(383,690,c),
(163,649,o),
(40,521,o),
(40,351,cs)
);
},
{
closed = 1;
nodes = (
(450,1369,o),
(551,1446,o),
(674,1446,cs),
(829,1446,o),
(887,1329,o),
(887,1181,cs),
(887,1061,o),
(849,948,o),
(784,895,c),
(618,980,o),
(450,1048,o),
(450,1228,cs)
);
},
{
closed = 1;
nodes = (
(867,119,o),
(770,37,o),
(636,37,cs),
(450,37,o),
(346,194,o),
(346,388,cs),
(346,501,o),
(380,606,o),
(443,657,c),
(676,554,o),
(867,461,o),
(867,262,cs)
);
}
);
width = 1281;
},
{
layerId = "2103F1D3-C390-4F79-A87D-298F85EA6916";
shapes = (
{
closed = 1;
nodes = (
(72,146,o),
(280,-19,o),
(602,-19,cs),
(890,-19,o),
(1153,135,o),
(1153,392,cs),
(1153,592,o),
(958,703,o),
(738,790,c),
(975,885,o),
(1088,1044,o),
(1088,1188,cs),
(1088,1356,o),
(921,1504,o),
(632,1504,cs),
(381,1504,o),
(140,1378,o),
(140,1134,cs),
(140,930,o),
(306,807,o),
(472,738,c),
(205,665,o),
(72,505,o),
(72,349,cs)
);
},
{
closed = 1;
nodes = (
(276,1359,o),
(410,1458,o),
(616,1458,cs),
(823,1458,o),
(945,1311,o),
(945,1152,cs),
(945,1010,o),
(863,873,o),
(699,806,c),
(435,906,o),
(276,978,o),
(276,1193,cs)
);
},
{
closed = 1;
nodes = (
(1006,146,o),
(825,32,o),
(628,32,cs),
(362,32,o),
(228,202,o),
(228,378,cs),
(228,516,o),
(319,666,o),
(516,720,c),
(782,625,o),
(1006,549,o),
(1006,319,cs)
);
}
);
width = 1225;
},
{
layerId = "779F1615-9D1A-4778-9767-9A030AA58B6C";
shapes = (
{
closed = 1;
nodes = (
(80,92,o),
(380,-18,o),
(593,-18,cs),
(902,-18,o),
(1135,136,o),
(1135,394,cs),
(1135,562,o),
(986,705,o),
(783,782,c),
(975,872,o),
(1072,1006,o),
(1072,1164,cs),
(1072,1378,o),
(888,1504,o),
(623,1504,cs),
(384,1504,o),
(154,1377,o),
(154,1129,cs),
(154,973,o),
(243,835,o),
(420,754,c),
(172,689,o),
(80,504,o),
(80,368,cs)
);
},
{
closed = 1;
nodes = (
(299,1326,o),
(455,1422,o),
(614,1422,cs),
(799,1422,o),
(920,1324,o),
(920,1138,cs),
(920,1008,o),
(823,873,o),
(680,819,c),
(470,900,o),
(299,984,o),
(299,1170,cs)
);
},
{
closed = 1;
nodes = (
(971,170,o),
(814,70,o),
(616,70,cs),
(415,70,o),
(242,192,o),
(242,402,cs),
(242,526,o),
(356,681,o),
(514,721,c),
(752,639,o),
(971,549,o),
(971,368,cs)
);
}
);
userData = {
com.schriftgestaltung.Glyphs.lastChange = "2019-04-25 21:50:43 +0000";
};
width = 1215;
},
{
layerId = "97BB7961-D669-43AB-8BBF-11FFD0C46A4B";
shapes = (
{
closed = 1;
nodes = (
(110,81,o),
(400,-22,o),
(697,-22,cs),
(1025,-22,o),
(1331,100,o),
(1331,403,cs),
(1331,592,o),
(1167,747,o),
(965,832,c),
(1152,910,o),
(1239,1023,o),
(1239,1167,cs),
(1239,1359,o),
(1053,1506,o),
(726,1506,cs),
(433,1506,o),
(177,1365,o),
(177,1092,cs),
(177,931,o),
(283,785,o),
(427,717,c),
(213,645,o),
(110,501,o),
(110,359,cs)
);
},
{
closed = 1;
nodes = (
(496,1309,o),
(609,1380,o),
(726,1380,cs),
(883,1380,o),
(972,1283,o),
(972,1123,cs),
(972,1033,o),
(933,943,o),
(842,883,c),
(654,961,o),
(496,1047,o),
(496,1183,cs)
);
},
{
closed = 1;
nodes = (
(968,189,o),
(836,112,o),
(710,112,cs),
(516,112,o),
(405,233,o),
(405,407,cs),
(405,509,o),
(449,610,o),
(535,664,c),
(755,573,o),
(968,483,o),
(968,325,cs)
);
}
);
width = 1441;
}
);
metricRight = "=|";
unicode = 56;
}
{
color = 4;
glyphname = F;
kernLeft = H;
kernRight = F;
layers = (
{
anchors = (
{
name = bottom;
pos = (609,0);
},
{
name = top;
pos = (609,1486);
}
);
layerId = UUID0;
shapes = (
{
closed = 1;
nodes = (
(91,86,l),
(91,0,l),
(733,0,l),
(733,86,l),
(419,104,l),
(419,706,l),
(819,698,l),
(853,528,l),
(945,528,l),
(945,970,l),
(853,970,l),
(819,808,l),
(419,802,l),
(419,1394,l),
(982,1384,l),
(1038,1158,l),
(1147,1158,l),
(1127,1486,l),
(79,1486,l),
(79,1400,l),
(255,1378,l),
(255,104,l)
);
}
);
width = 1217;
},
{
anchors = (
{
name = bottom;
pos = (632,0);
},
{
name = top;
pos = (632,1486);
}
);
layerId = "DEBB1CE4-A72D-4960-969E-E04A036D2FA1";
shapes = (
{
closed = 1;
nodes = (
(88,132,l),
(88,0,l),
(887,0,l),
(887,132,l),
(582,154,l),
(582,645,l),
(843,637,l),
(884,453,l),
(1023,453,l),
(1023,986,l),
(883,986,l),
(843,807,l),
(582,801,l),
(582,1354,l),
(965,1329,l),
(1046,1112,l),
(1225,1112,l),
(1204,1486,l),
(79,1486,l),
(79,1347,l),
(239,1319,l),
(239,154,l)
);
}
);
width = 1264;
},
{
anchors = (
{
name = bottom;
pos = (586,0);
},
{
name = top;
pos = (586,1486);
}
);
layerId = "184155C8-9F61-4F1C-9784-DDA8EA717636";
shapes = (
{
closed = 1;
nodes = (
(18,38,l),
(18,0,l),
(750,0,l),
(750,38,l),
(533,72,l),
(533,711,l),
(751,704,l),
(834,438,l),
(882,438,l),
(882,1019,l),
(835,1019,l),
(751,770,l),
(533,763,l),
(533,1426,l),
(865,1389,l),
(994,1088,l),
(1127,1088,l),
(1098,1486,l),
(19,1486,l),
(19,1450,l),
(152,1412,l),
(152,72,l)
);
}
);
width = 1172;
},
{
anchors = (
{
name = bottom;
pos = (536,0);
},
{
name = top;
pos = (536,1486);
}
);
layerId = "EA2265BD-E890-48C4-9E90-A53076E780C5";
shapes = (
{
closed = 1;
nodes = (
(55,132,l),
(55,0,l),
(784,0,l),
(784,132,l),
(523,154,l),
(523,645,l),
(694,637,l),
(735,453,l),
(874,453,l),
(874,986,l),
(734,986,l),
(694,807,l),
(523,801,l),
(523,1354,l),
(822,1333,l),
(893,1112,l),
(1042,1112,l),
(1021,1486,l),
(50,1486,l),
(50,1347,l),
(181,1321,l),
(181,154,l)
);
}
);
width = 1072;
},
{
anchors = (
{
name = bottom;
pos = (527,0);
},
{
name = top;
pos = (527,1486);
}
);
layerId = "0E4B6E2E-ECAB-4D06-9686-B0B40AA31834";
shapes = (
{
closed = 1;
nodes = (
(58,86,l),
(58,0,l),
(619,0,l),
(619,86,l),
(363,104,l),
(363,706,l),
(659,698,l),
(693,528,l),
(785,528,l),
(785,970,l),
(693,970,l),
(659,808,l),
(363,802,l),
(363,1394,l),
(822,1384,l),
(876,1158,l),
(986,1158,l),
(966,1486,l),
(61,1486,l),
(61,1400,l),
(204,1378,l),
(204,104,l)
);
}
);
width = 1054;
},
{
anchors = (
{
name = bottom;
pos = (532,0);
},
{
name = top;
pos = (532,1486);
}
);
layerId = "F2B10EEF-9DDC-48CA-970D-6B8C79870881";
shapes = (
{
closed = 1;
nodes = (
(40,38,l),
(40,0,l),
(662,0,l),
(662,38,l),
(507,72,l),
(507,710,l),
(678,704,l),
(770,437,l),
(808,437,l),
(808,1019,l),
(770,1019,l),
(677,770,l),
(507,764,l),
(507,1429,l),
(749,1400,l),
(889,1088,l),
(1019,1088,l),
(993,1486,l),
(41,1486,l),
(41,1450,l),
(152,1412,l),
(152,72,l)
);
}
);
width = 1064;
},
{
anchors = (
{
name = bottom;
pos = (481,0);
},
{
name = top;
pos = (481,1486);
}
);
layerId = "E96AC896-F5DF-475B-BBD9-C7FEC6A86D0E";
shapes = (
{
closed = 1;
nodes = (
(36,36,l),
(36,0,l),
(530,0,l),
(530,36,l),
(330,67,l),
(330,735,l),
(632,722,l),
(667,542,l),
(721,542,l),
(721,984,l),
(667,984,l),
(632,808,l),
(330,792,l),
(330,1433,l),
(778,1422,l),
(866,1192,l),
(933,1192,l),
(906,1486,l),
(37,1486,l),
(37,1450,l),
(177,1420,l),
(177,67,l)
);
}
);
width = 961;
},
{
anchors = (
{
name = bottom;
pos = (522,0);
},
{
name = top;
pos = (522,1486);
}
);
layerId = "C9B9556E-C2FD-4F62-BB40-44923C452C22";
shapes = (
{
closed = 1;
nodes = (
(24,36,l),
(24,0,l),
(528,0,l),
(528,36,l),
(321,67,l),
(321,735,l),
(703,722,l),
(738,542,l),
(792,542,l),
(792,984,l),
(738,984,l),
(703,808,l),
(321,792,l),
(321,1433,l),
(849,1422,l),
(937,1192,l),
(1004,1192,l),
(977,1486,l),
(25,1486,l),
(25,1450,l),
(165,1420,l),
(165,67,l)
);
}
);
width = 1044;
},
{
anchors = (
{
name = bottom;
pos = (632,0);
},
{
name = top;
pos = (632,1486);
}
);
layerId = "AFA1064D-EFC9-4C9F-B9B0-9118E41D87C4";
shapes = (
{
closed = 1;
nodes = (
(20,38,l),
(20,0,l),
(723,0,l),
(723,38,l),
(541,72,l),
(541,711,l),
(818,704,l),
(920,438,l),
(973,438,l),
(973,1019,l),
(921,1019,l),
(818,770,l),
(541,763,l),
(541,1426,l),
(952,1389,l),
(1084,1088,l),
(1219,1088,l),
(1190,1486,l),
(21,1486,l),
(21,1450,l),
(154,1412,l),
(154,72,l)
);
}
);
width = 1264;
},
{
anchors = (
{
name = bottom;
pos = (564,0);
},
{
name = top;
pos = (564,1486);
}
);
layerId = "2103F1D3-C390-4F79-A87D-298F85EA6916";
shapes = (
{
closed = 1;
nodes = (
(25,36,l),
(25,0,l),
(569,0,l),
(569,36,l),
(322,67,l),
(322,735,l),
(754,722,l),
(789,542,l),
(843,542,l),
(843,984,l),
(789,984,l),
(754,808,l),
(322,792,l),
(322,1433,l),
(930,1422,l),
(1018,1192,l),
(1085,1192,l),
(1058,1486,l),
(26,1486,l),
(26,1450,l),
(166,1420,l),
(166,67,l)
);
}
);
width = 1127;
},
{
anchors = (
{
name = bottom;
pos = (634,0);
},
{
name = top;
pos = (634,1486);
}
);
layerId = "779F1615-9D1A-4778-9767-9A030AA58B6C";
shapes = (
{
closed = 1;
nodes = (
(81,86,l),
(81,0,l),
(722,0,l),
(722,86,l),
(437,104,l),
(437,706,l),
(832,698,l),
(866,528,l),
(958,528,l),
(958,970,l),
(866,970,l),
(832,808,l),
(437,802,l),
(437,1394,l),
(1042,1384,l),
(1097,1158,l),
(1207,1158,l),
(1187,1486,l),
(69,1486,l),
(69,1400,l),
(273,1378,l),
(273,104,l)
);
}
);
userData = {
com.schriftgestaltung.Glyphs.lastChange = "2019-04-25 21:50:43 +0000";
};
width = 1267;
},
{
anchors = (
{
name = bottom;
pos = (662,0);
},
{
name = top;
pos = (662,1486);
}
);
layerId = "97BB7961-D669-43AB-8BBF-11FFD0C46A4B";
shapes = (
{
closed = 1;
nodes = (
(78,132,l),
(78,0,l),
(862,0,l),
(862,132,l),
(577,154,l),
(577,635,l),
(896,627,l),
(937,443,l),
(1090,443,l),
(1090,976,l),
(936,976,l),
(896,797,l),
(577,791,l),
(577,1354,l),
(1032,1329,l),
(1121,1092,l),
(1300,1092,l),
(1271,1486,l),
(78,1486,l),
(78,1347,l),
(225,1319,l),
(225,154,l)
);
}
);
width = 1324;
}
);
metricLeft = H;
unicode = 70;
}
{
color = 4;
glyphname = J;
kernLeft = J;
kernRight = J;
layers = (
{
anchors = (
{
name = bottom;
pos = (356,0);
},
{
name = center;
pos = (368,791);
},
{
name = top;
pos = (369,1486);
}
);
layerId = UUID0;
shapes = (
{
closed = 1;
nodes = (
(22,-346,l),
(194,-314,o),
(384,-188,o),
(430,42,cs),
(455,166,o),
(450,328,o),
(450,550,cs),
(450,1376,l),
(642,1400,l),
(642,1486,l),
(84,1486,l),
(84,1400,l),
(286,1376,l),
(286,506,ls),
(286,208,o),
(282,96,o),
(246,-18,cs),
(204,-152,o),
(96,-242,o),
(-22,-274,c)
);
}
);
width = 711;
},
{
anchors = (
{
name = bottom;
pos = (416,0);
},
{
name = center;
pos = (417,791);
},
{
name = top;
pos = (416,1486);
}
);
layerId = "DEBB1CE4-A72D-4960-969E-E04A036D2FA1";
shapes = (
{
closed = 1;
nodes = (
(34,-387,l),
(316,-342,o),
(496,-184,o),
(556,29,cs),
(582,122,o),
(585,298,o),
(585,550,cs),
(585,1320,l),
(744,1347,l),
(744,1486,l),
(73,1486,l),
(73,1347,l),
(244,1318,l),
(244,382,ls),
(244,171,o),
(229,68,o),
(202,-12,cs),
(154,-155,o),
(50,-239,o),
(-43,-271,c)
);
}
);
width = 832;
},
{
anchors = (
{
name = bottom;
pos = (358,0);
},
{
name = center;
pos = (356,791);
},
{
name = top;
pos = (358,1486);
}
);
layerId = "184155C8-9F61-4F1C-9784-DDA8EA717636";
shapes = (
{
closed = 1;
nodes = (
(-23,-387,l),
(255,-357,o),
(457,-195,o),
(522,29,cs),
(549,122,o),
(551,298,o),
(551,550,cs),
(551,1412,l),
(692,1450,l),
(692,1486,l),
(25,1486,l),
(25,1450,l),
(168,1412,l),
(168,318,ls),
(168,107,o),
(153,-19,o),
(126,-99,cs),
(78,-242,o),
(44,-286,o),
(-55,-330,c)
);
}
);
width = 716;
},
{
anchors = (
{
name = bottom;
pos = (364,0);
},
{
name = center;
pos = (361,791);
},
{
name = top;
pos = (364,1486);
}
);
layerId = "EA2265BD-E890-48C4-9E90-A53076E780C5";
shapes = (
{
closed = 1;
nodes = (
(5,-387,l),
(267,-342,o),
(437,-174,o),
(497,39,cs),
(523,132,o),
(526,308,o),
(526,560,cs),
(526,1320,l),
(691,1347,l),
(691,1486,l),
(30,1486,l),
(30,1347,l),
(199,1318,l),
(199,382,ls),
(199,171,o),
(186,68,o),
(159,-12,cs),
(111,-155,o),
(21,-239,o),
(-72,-271,c)
);
}
);
width = 727;
},
{
anchors = (
{
name = bottom;
pos = (309,0);
},
{
name = center;
pos = (299,791);
},
{
name = top;
pos = (302,1486);
}
);
layerId = "0E4B6E2E-ECAB-4D06-9686-B0B40AA31834";
shapes = (
{
closed = 1;
nodes = (
(-55,-346,l),
(117,-314,o),
(307,-188,o),
(353,42,cs),
(378,166,o),
(373,328,o),
(373,550,cs),
(373,1376,l),
(565,1400,l),
(565,1486,l),
(27,1486,l),
(27,1400,l),
(212,1376,l),
(212,506,ls),
(212,208,o),
(208,96,o),
(172,-18,cs),
(130,-152,o),
(19,-242,o),
(-99,-274,c)
);
}
);
width = 617;
},
{
anchors = (
{
name = bottom;
pos = (335,0);
},
{
name = center;
pos = (332,791);
},
{
name = top;
pos = (335,1486);
}
);
layerId = "F2B10EEF-9DDC-48CA-970D-6B8C79870881";
shapes = (
{
closed = 1;
nodes = (
(-46,-387,l),
(232,-357,o),
(402,-195,o),
(467,29,cs),
(494,122,o),
(496,298,o),
(496,550,cs),
(496,1412,l),
(629,1450,l),
(629,1486,l),
(19,1486,l),
(19,1450,l),
(152,1412,l),
(152,318,ls),
(152,107,o),
(137,-19,o),
(110,-99,cs),
(62,-242,o),
(21,-286,o),
(-78,-330,c)
);
}
);
width = 669;
},
{
anchors = (
{
name = bottom;
pos = (248,0);
},
{
name = center;
pos = (248,791);
},
{
name = top;
pos = (248,1486);
}
);
layerId = "E96AC896-F5DF-475B-BBD9-C7FEC6A86D0E";
shapes = (
{
closed = 1;
nodes = (
(-80,-346,l),
(92,-314,o),
(257,-170,o),
(297,38,cs),
(321,162,o),
(316,330,o),
(316,476,cs),
(316,1420,l),
(456,1450,l),
(456,1486,l),
(18,1486,l),
(18,1450,l),
(165,1420,l),
(165,506,ls),
(165,208,o),
(160,97,o),
(131,-18,cs),
(94,-164,o),
(2,-269,o),
(-116,-301,c)
);
}
);
width = 496;
},
{
anchors = (
{
name = bottom;
pos = (254,0);
},
{
name = center;
pos = (239,791);
},
{
name = top;
pos = (237,1486);
}
);
layerId = "C9B9556E-C2FD-4F62-BB40-44923C452C22";
shapes = (
{
closed = 1;
nodes = (
(-89,-346,l),
(83,-314,o),
(254,-170,o),
(294,38,cs),
(318,162,o),
(313,333,o),
(313,476,cs),
(313,1420,l),
(445,1450,l),
(445,1486,l),
(12,1486,l),
(12,1450,l),
(157,1420,l),
(157,506,ls),
(157,208,o),
(153,96,o),
(123,-18,cs),
(85,-164,o),
(-5,-269,o),
(-123,-301,c)
);
}
);
width = 507;
},
{
anchors = (
{
name = bottom;
pos = (356,0);
},
{
name = center;
pos = (356,791);
},
{
name = top;
pos = (356,1486);
}
);
layerId = "AFA1064D-EFC9-4C9F-B9B0-9118E41D87C4";
shapes = (
{
closed = 1;
nodes = (
(-41,-387,l),
(237,-357,o),
(452,-195,o),
(517,29,cs),
(544,122,o),
(554,298,o),
(554,550,cs),
(554,1412,l),
(689,1450,l),
(689,1486,l),
(17,1486,l),
(17,1450,l),
(153,1412,l),
(153,318,ls),
(153,107,o),
(138,-19,o),
(111,-99,cs),
(63,-242,o),
(26,-286,o),
(-73,-330,c)
);
}
);
width = 712;
},
{
anchors = (
{
name = bottom;
pos = (248,0);
},
{
name = center;
pos = (247,791);
},
{
name = top;
pos = (248,1486);
}
);
layerId = "2103F1D3-C390-4F79-A87D-298F85EA6916";
shapes = (
{
closed = 1;
nodes = (
(-74,-348,l),
(108,-314,o),
(266,-170,o),
(306,38,cs),
(330,162,o),
(325,333,o),
(325,476,cs),
(325,1420,l),
(460,1450,l),
(460,1486,l),
(23,1486,l),
(23,1450,l),
(165,1420,l),
(165,506,ls),
(165,208,o),
(161,96,o),
(131,-18,cs),
(93,-164,o),
(10,-269,o),
(-108,-301,c)
);
}
);
width = 496;
},
{
anchors = (
{
name = bottom;
pos = (377,0);
},
{
name = center;
pos = (381,791);
},
{
name = top;
pos = (382,1486);
}
);
layerId = "779F1615-9D1A-4778-9767-9A030AA58B6C";
shapes = (
{
closed = 1;
nodes = (
(34,-346,l),
(206,-314,o),
(389,-188,o),
(434,42,cs),
(458,166,o),
(464,328,o),
(464,550,cs),
(464,1376,l),
(654,1400,l),
(654,1486,l),
(96,1486,l),
(96,1400,l),
(296,1376,l),
(296,506,ls),
(296,208,o),
(292,96,o),
(256,-18,cs),
(214,-152,o),
(108,-242,o),
(-10,-274,c)
);
}
);
userData = {
com.schriftgestaltung.Glyphs.lastChange = "2019-04-25 21:50:43 +0000";
};
width = 754;
},
{
anchors = (
{
name = bottom;
pos = (422,0);
},
{
name = center;
pos = (429,791);
},
{
name = top;
pos = (428,1486);
}
);
layerId = "97BB7961-D669-43AB-8BBF-11FFD0C46A4B";
shapes = (
{
closed = 1;
nodes = (
(56,-387,l),
(338,-342,o),
(517,-184,o),
(577,29,cs),
(603,122,o),
(606,298,o),
(606,550,cs),
(606,1320,l),
(766,1347,l),
(766,1486,l),
(75,1486,l),
(75,1347,l),
(254,1318,l),
(254,382,ls),
(254,171,o),
(239,68,o),
(212,-12,cs),
(164,-155,o),
(72,-239,o),
(-21,-271,c)
);
}
);
width = 843;
}
);
metricWidth = I;
unicode = 74;
}
{
category = Letter;
glyphname = l;
kernLeft = l;
kernRight = l;
layers = (
{
anchors = (
{
name = belt;
pos = (231,817);
},
{
name = bottom;
pos = (300,0);
},
{
name = center;
pos = (300,983);
},
{
name = center1;
pos = (284,1110);
},
{
name = center2;
pos = (282,602);
},
{
name = top;
pos = (341,1569);
},
{
name = topright;
pos = (459,1110);
}
);
layerId = UUID0;
shapes = (
{
closed = 1;
nodes = (
(37,86,l),
(37,0,l),
(563,0,l),
(563,86,l),
(373,100,l),
(373,1612,l),
(335,1638,l),
(333,1638,l),
(43,1604,l),
(43,1530,l),
(213,1512,l),
(213,102,l)
);
}
);
width = 599;
},
{
anchors = (
{
name = belt;
pos = (193,817);
},
{
name = bottom;
pos = (334,0);
},
{
name = center;
pos = (334,983);
},
{
name = center1;
pos = (344,1110);
},
{
name = center2;
pos = (334,602);
},
{
name = top;
pos = (341,1606);
},
{
name = topright;
pos = (566,1112);
}
);
layerId = "DEBB1CE4-A72D-4960-969E-E04A036D2FA1";
shapes = (
{
closed = 1;
nodes = (
(50,132,l),
(50,0,l),
(632,0,l),
(632,132,l),
(502,150,l),
(502,1597,l),
(443,1639,l),
(438,1639,l),
(37,1592,l),
(37,1471,l),
(178,1444,l),
(178,151,l)
);
}
);
width = 668;
},
{
anchors = (
{
name = belt;
pos = (158,817);
},
{
name = bottom;
pos = (281,0);
},
{
name = center;
pos = (281,983);
},
{
name = center1;
pos = (284,1110);
},
{
name = center2;
pos = (284,602);
},
{
name = top;
pos = (281,1550);
},
{
name = topright;
pos = (492,1005);
}
);
layerId = "184155C8-9F61-4F1C-9784-DDA8EA717636";
shapes = (
{
closed = 1;
nodes = (
(0,37,l),
(0,0,l),
(558,0,l),
(558,37,l),
(444,72,l),
(444,1590,l),
(389,1634,l),
(353,1634,l),
(2,1519,l),
(2,1480,l),
(113,1433,l),
(113,73,l)
);
}
);
width = 562;
},
{
anchors = (
{
name = belt;
pos = (193,817);
},
{
name = bottom;
pos = (287,0);
},
{
name = center;
pos = (287,983);
},
{
name = center1;
pos = (305,1110);
},
{
name = center2;
pos = (306,602);
},
{
name = top;
pos = (291,1606);
},
{
name = topright;
pos = (526,1112);
}
);
layerId = "EA2265BD-E890-48C4-9E90-A53076E780C5";
shapes = (
{
closed = 1;
nodes = (
(45,131,l),
(45,0,l),
(553,0,l),
(553,131,l),
(456,149,l),
(456,1597,l),
(400,1639,l),
(395,1639,l),
(29,1592,l),
(29,1473,l),
(143,1446,l),
(143,150,l)
);
}
);
width = 573;
},
{
anchors = (
{
name = belt;
pos = (231,817);
},
{
name = bottom;
pos = (266,0);
},
{
name = center;
pos = (266,983);
},
{
name = center1;
pos = (264,1110);
},
{
name = center2;
pos = (264,602);
},
{
name = top;
pos = (261,1569);
},
{
name = topright;
pos = (389,1110);
}
);
layerId = "0E4B6E2E-ECAB-4D06-9686-B0B40AA31834";
shapes = (
{
closed = 1;
nodes = (
(35,85,l),
(35,0,l),
(493,0,l),
(493,85,l),
(338,99,l),
(338,1612,l),
(303,1638,l),
(301,1638,l),
(38,1604,l),
(38,1532,l),
(181,1514,l),
(181,101,l)
);
}
);
width = 532;
},
{
anchors = (
{
name = belt;
pos = (158,817);
},
{
name = bottom;
pos = (265,0);
},
{
name = center;
pos = (265,983);
},
{
name = center1;
pos = (254,1110);
},
{
name = center2;
pos = (261,602);
},
{
name = top;
pos = (262,1550);
},
{
name = topright;
pos = (473,1005);
}
);
layerId = "F2B10EEF-9DDC-48CA-970D-6B8C79870881";
shapes = (
{
closed = 1;
nodes = (
(3,38,l),
(3,0,l),
(527,0,l),
(527,38,l),
(421,72,l),
(421,1609,l),
(402,1634,l),
(349,1634,l),
(-2,1519,l),
(-2,1480,l),
(109,1433,l),
(109,73,l)
);
}
);
width = 530;
},
{
anchors = (
{
name = belt;
pos = (214,817);
},
{
name = bottom;
pos = (226,0);
},
{
name = center;
pos = (226,983);
},
{
name = center1;
pos = (230,1110);
},
{
name = center2;
pos = (226,602);
},
{
name = top;
pos = (231,1606);
},
{
name = topright;
pos = (381,1005);
}
);
layerId = "E96AC896-F5DF-475B-BBD9-C7FEC6A86D0E";
shapes = (
{
closed = 1;
nodes = (
(25,36,l),
(25,0,l),
(432,0,l),
(432,36,l),
(300,65,l),
(300,1625,l),
(285,1638,l),
(258,1638,l),
(30,1606,l),
(30,1579,l),
(164,1560,l),
(164,67,l)
);
}
);
width = 452;
},
{
anchors = (
{
name = belt;
pos = (214,817);
},
{
name = bottom;
pos = (221,0);
},
{
name = center;
pos = (221,983);
},
{
name = center1;
pos = (241,1110);
},
{
name = center2;
pos = (241,602);
},
{
name = top;
pos = (241,1606);
},
{
name = topright;
pos = (391,1005);
}
);
layerId = "C9B9556E-C2FD-4F62-BB40-44923C452C22";
shapes = (
{
closed = 1;
nodes = (
(52,36,l),
(52,0,l),
(431,0,l),
(431,36,l),
(312,67,l),
(312,1625,l),
(298,1638,l),
(256,1638,l),
(38,1606,l),
(38,1579,l),
(173,1560,l),
(173,67,l)
);
}
);
width = 441;
},
{
anchors = (
{
name = belt;
pos = (158,817);
},
{
name = bottom;
pos = (294,0);
},
{
name = center;
pos = (294,983);
},
{
name = center1;
pos = (291,1110);
},
{
name = center2;
pos = (288,602);
},
{
name = top;
pos = (291,1550);
},
{
name = topright;
pos = (502,1005);
}
);
layerId = "AFA1064D-EFC9-4C9F-B9B0-9118E41D87C4";
shapes = (
{
closed = 1;
nodes = (
(12,37,l),
(12,0,l),
(570,0,l),
(570,37,l),
(468,72,l),
(468,1590,l),
(413,1634,l),
(377,1634,l),
(4,1519,l),
(4,1480,l),
(115,1433,l),
(115,73,l)
);
}
);
width = 588;
},
{
anchors = (
{
name = belt;
pos = (214,817);
},
{
name = bottom;
pos = (218,0);
},
{
name = center;
pos = (218,983);
},
{
name = center1;
pos = (240,1110);
},
{
name = center2;
pos = (238,602);
},
{
name = top;
pos = (231,1606);
},
{
name = topright;
pos = (381,1005);
}
);
layerId = "2103F1D3-C390-4F79-A87D-298F85EA6916";
shapes = (
{
closed = 1;
nodes = (
(49,36,l),
(49,0,l),
(425,0,l),
(425,36,l),
(308,67,l),
(308,1625,l),
(297,1638,l),
(233,1638,l),
(15,1606,l),
(15,1579,l),
(169,1560,l),
(169,67,l)
);
}
);
width = 435;
},
{
anchors = (
{
name = belt;
pos = (231,817);
},
{
name = bottom;
pos = (306,0);
},
{
name = center;
pos = (306,983);
},
{
name = center1;
pos = (301,1110);
},
{
name = center2;
pos = (301,602);
},
{
name = top;
pos = (331,1569);
},
{
name = topright;
pos = (449,1110);
}
);
layerId = "779F1615-9D1A-4778-9767-9A030AA58B6C";
shapes = (
{
closed = 1;
nodes = (
(49,86,l),
(49,0,l),
(575,0,l),
(575,86,l),
(395,102,l),
(395,1612,l),
(345,1638,l),
(343,1638,l),
(37,1604,l),
(37,1532,l),
(226,1514,l),
(226,102,l)
);
}
);
userData = {
com.schriftgestaltung.Glyphs.lastChange = "2019-04-25 21:50:43 +0000";
};
width = 611;
},
{
anchors = (
{
name = belt;
pos = (193,817);
},
{
name = bottom;
pos = (350,0);
},
{
name = center;
pos = (350,983);
},
{
name = center1;
pos = (358,1110);
},
{
name = center2;
pos = (354,602);
},
{
name = top;
pos = (341,1606);
},
{
name = topright;
pos = (576,1112);
}
);
layerId = "97BB7961-D669-43AB-8BBF-11FFD0C46A4B";
shapes = (
{
closed = 1;
nodes = (
(50,132,l),
(50,0,l),
(664,0,l),
(664,132,l),
(535,150,l),
(535,1597,l),
(475,1639,l),
(470,1639,l),
(37,1592,l),
(37,1471,l),
(179,1444,l),
(178,151,l)
);
}
);
width = 700;
}
);
subCategory = Lowercase;
unicode = 108;
}
{
category = Letter;
glyphname = w;
kernLeft = w;
kernRight = w;
layers = (
{
anchors = (
{
name = bottom;
pos = (828,0);
},
{
name = top;
pos = (848,1110);
}
);
layerId = UUID0;
shapes = (
{
closed = 1;
nodes = (
(95,1004,l),
(408,-16,l),
(566,-16,l),
(777,728,l),
(831,971,l),
(883,728,l),
(1092,-16,l),
(1257,-16,l),
(1578,1002,l),
(1688,1028,l),
(1688,1110,l),
(1296,1110,l),
(1296,1028,l),
(1450,1002,l),
(1274,382,l),
(1196,102,l),
(1138,384,l),
(947,1110,l),
(769,1110,l),
(569,384,l),
(503,104,l),
(440,382,l),
(263,1004,l),
(423,1028,l),
(423,1110,l),
(-14,1110,l),
(-14,1028,l)
);
}
);
width = 1666;
},
{
anchors = (
{
name = bottom;
pos = (875,0);
},
{
name = top;
pos = (921,1111);
}
);
layerId = "DEBB1CE4-A72D-4960-969E-E04A036D2FA1";
shapes = (
{
closed = 1;
nodes = (
(91,963,l),
(399,-16,l),
(659,-16,l),
(837,596,l),
(881,809,l),
(919,596,l),
(1101,-16,l),
(1361,-16,l),
(1664,962,l),
(1764,984,l),
(1764,1112,l),
(1320,1112,l),
(1320,984,l),
(1463,959,l),
(1338,463,l),
(1297,267,l),
(1256,464,l),
(1077,1112,l),
(795,1112,l),
(615,464,l),
(580,267,l),
(538,463,l),
(413,961,l),
(556,984,l),
(556,1112,l),
(-2,1112,l),
(-2,984,l)
);
}
);
width = 1741;
},
{
anchors = (
{
name = bottom;
pos = (807,0);
},
{
name = top;
pos = (843,1005);
}
);
layerId = "184155C8-9F61-4F1C-9784-DDA8EA717636";
shapes = (
{
closed = 1;
nodes = (
(57,921,l),
(319,0,l),
(614,0,l),
(757,614,l),
(798,805,l),
(841,615,l),
(978,0,l),
(1294,0,l),
(1580,921,l),
(1698,967,l),
(1698,1005,l),
(1353,1005,l),
(1353,968,l),
(1480,921,l),
(1334,350,l),
(1283,140,l),
(1236,350,l),
(1099,1005,l),
(769,1005,l),
(639,349,l),
(592,140,l),
(548,350,l),
(415,921,l),
(510,968,l),
(510,1005,l),
(-25,1005,l),
(-25,967,l)
);
}
);
width = 1583;
},
{
anchors = (
{
name = bottom;
pos = (753,0);
},
{
name = top;
pos = (802,1111);
}
);
layerId = "EA2265BD-E890-48C4-9E90-A53076E780C5";
shapes = (
{
closed = 1;
nodes = (
(63,963,l),
(318,-16,l),
(571,-16,l),
(713,596,l),
(749,798,l),
(783,596,l),
(925,-16,l),
(1171,-16,l),
(1437,962,l),
(1535,984,l),
(1535,1112,l),
(1155,1112,l),
(1155,984,l),
(1274,959,l),
(1161,463,l),
(1126,267,l),
(1094,464,l),
(961,1112,l),
(680,1112,l),
(533,464,l),
(502,267,l),
(467,463,l),
(367,961,l),
(489,984,l),
(489,1112,l),
(-28,1112,l),
(-28,984,l)
);
}
);
width = 1464;
},
{
anchors = (
{
name = bottom;
pos = (736,0);
},
{
name = top;
pos = (756,1110);
}
);
layerId = "0E4B6E2E-ECAB-4D06-9686-B0B40AA31834";
shapes = (
{
closed = 1;
nodes = (
(64,1002,l),
(326,-16,l),
(503,-16,l),
(682,728,l),
(741,975,l),
(785,728,l),
(958,-16,l),
(1135,-16,l),
(1405,1000,l),
(1510,1026,l),
(1510,1110,l),
(1156,1110,l),
(1156,1026,l),
(1290,1000,l),
(1132,382,l),
(1064,106,l),
(1008,384,l),
(854,1110,l),
(668,1110,l),
(485,384,l),
(427,108,l),
(368,382,l),
(225,1002,l),
(365,1026,l),
(365,1110,l),
(-36,1110,l),
(-36,1026,l)
);
}
);
width = 1472;
},
{
anchors = (
{
name = bottom;
pos = (683,0);
},
{
name = top;
pos = (715,1004);
}
);
layerId = "F2B10EEF-9DDC-48CA-970D-6B8C79870881";
shapes = (
{
closed = 1;
nodes = (
(41,921,l),
(256,0,l),
(521,0,l),
(631,614,l),
(663,805,l),
(698,615,l),
(807,0,l),
(1095,0,l),
(1319,921,l),
(1413,967,l),
(1413,1005,l),
(1137,1005,l),
(1137,968,l),
(1238,921,l),
(1115,350,l),
(1075,140,l),
(1037,350,l),
(934,1005,l),
(644,1005,l),
(535,349,l),
(499,140,l),
(463,350,l),
(357,921,l),
(433,968,l),
(433,1005,l),
(-25,1005,l),
(-25,967,l)
);
}
);
width = 1323;
},
{
anchors = (
{
name = bottom;
pos = (629,0);
},
{
name = top;
pos = (634,1005);
}
);
layerId = "E96AC896-F5DF-475B-BBD9-C7FEC6A86D0E";
shapes = (
{
closed = 1;
nodes = (
(32,943,l),
(283,0,l),
(392,0,l),
(558,644,l),
(608,907,l),
(662,644,l),
(822,0,l),
(935,0,l),
(1195,943,l),
(1273,970,l),
(1273,1005,l),
(1023,1005,l),
(1023,970,l),
(1111,943,l),
(940,214,l),
(918,52,l),
(894,182,l),
(713,1005,l),
(576,1005,l),
(397,214,l),
(376,52,l),
(351,182,l),
(171,943,l),
(253,970,l),
(253,1005,l),
(-37,1005,l),
(-37,970,l)
);
}
);
width = 1216;
},
{
anchors = (
{
name = bottom;
pos = (739,0);
},
{
name = top;
pos = (755,1005);
}
);
layerId = "C9B9556E-C2FD-4F62-BB40-44923C452C22";
shapes = (
{
closed = 1;
nodes = (
(58,943,l),
(356,0,l),
(479,0,l),
(671,644,l),
(728,907,l),
(791,644,l),
(984,0,l),
(1107,0,l),
(1408,943,l),
(1498,970,l),
(1498,1005,l),
(1210,1005,l),
(1210,970,l),
(1310,943,l),
(1112,214,l),
(1087,52,l),
(1059,182,l),
(842,1005,l),
(693,1005,l),
(484,214,l),
(459,52,l),
(431,182,l),
(225,943,l),
(320,970,l),
(320,1005,l),
(-22,1005,l),
(-22,970,l)
);
}
);
width = 1476;
},
{
anchors = (
{
name = bottom;
pos = (883,0);
},
{
name = top;
pos = (920,1005);
}
);
layerId = "AFA1064D-EFC9-4C9F-B9B0-9118E41D87C4";
shapes = (
{
closed = 1;
nodes = (
(62,921,l),
(340,0,l),
(653,0,l),
(795,614,l),
(838,805,l),
(884,615,l),
(1029,0,l),
(1365,0,l),
(1658,921,l),
(1783,967,l),
(1783,1005,l),
(1417,1005,l),
(1417,968,l),
(1552,921,l),
(1407,350,l),
(1353,140,l),
(1303,350,l),
(1158,1005,l),
(808,1005,l),
(680,349,l),
(630,140,l),
(583,350,l),
(442,921,l),
(543,968,l),
(543,1005,l),
(-25,1005,l),
(-25,967,l)
);
}
);
width = 1693;
},
{
anchors = (
{
name = bottom;
pos = (754,0);
},
{
name = top;
pos = (754,1005);
}
);
layerId = "2103F1D3-C390-4F79-A87D-298F85EA6916";
shapes = (
{
closed = 1;
nodes = (
(60,943,l),
(358,0,l),
(481,0,l),
(673,644,l),
(730,907,l),
(793,644,l),
(986,0,l),
(1109,0,l),
(1410,943,l),
(1500,970,l),
(1500,1005,l),
(1212,1005,l),
(1212,970,l),
(1312,943,l),
(1114,214,l),
(1089,52,l),
(1061,182,l),
(844,1005,l),
(695,1005,l),
(486,214,l),
(461,52,l),
(433,182,l),
(227,943,l),
(322,970,l),
(322,1005,l),
(-20,1005,l),
(-20,970,l)
);
}
);
width = 1480;
},
{
anchors = (
{
name = bottom;
pos = (901,0);
},
{
name = top;
pos = (910,1110);
}
);
layerId = "779F1615-9D1A-4778-9767-9A030AA58B6C";
shapes = (
{
closed = 1;
nodes = (
(99,1004,l),
(439,-16,l),
(605,-16,l),
(828,728,l),
(890,980,l),
(938,728,l),
(1151,-16,l),
(1328,-16,l),
(1675,1002,l),
(1792,1028,l),
(1792,1110,l),
(1377,1110,l),
(1377,1028,l),
(1540,1002,l),
(1337,382,l),
(1261,102,l),
(1192,384,l),
(997,1110,l),
(819,1110,l),
(599,384,l),
(535,104,l),
(467,382,l),
(277,1004,l),
(446,1028,l),
(446,1110,l),
(-14,1110,l),
(-14,1028,l)
);
}
);
userData = {
com.schriftgestaltung.Glyphs.lastChange = "2019-04-25 21:50:43 +0000";
};
width = 1770;
},
{
anchors = (
{
name = bottom;
pos = (912,0);
},
{
name = top;
pos = (958,1111);
}
);
layerId = "97BB7961-D669-43AB-8BBF-11FFD0C46A4B";
shapes = (
{
closed = 1;
nodes = (
(90,963,l),
(405,-16,l),
(696,-16,l),
(848,596,l),
(894,799,l),
(950,596,l),
(1106,-16,l),
(1416,-16,l),
(1734,962,l),
(1844,984,l),
(1844,1112,l),
(1373,1112,l),
(1373,984,l),
(1513,959,l),
(1403,463,l),
(1352,267,l),
(1311,464,l),
(1143,1112,l),
(818,1112,l),
(666,464,l),
(621,267,l),
(576,463,l),
(452,961,l),
(578,984,l),
(578,1112,l),
(-10,1112,l),
(-10,984,l)
);
}
);
width = 1777;
}
);
subCategory = Lowercase;
unicode = 119;
}
{
color = 0;
glyphname = asciitilde;
kernLeft = hyphen;
kernRight = hyphen;
layers = (
{
anchors = (
{
name = _stem;
pos = (593,559);
}
);
layerId = UUID0;
shapes = (
{
closed = 1;
nodes = (
(246,477,ls),
(287,528,o),
(355,584,o),
(430,584,cs),
(558,584,o),
(614,436,o),
(781,435,cs),
(893,436,o),
(1002,513,o),
(1050,591,cs),
(984,658,ls),
(943,607,o),
(875,553,o),
(802,553,cs),
(678,553,o),
(618,701,o),
(451,701,cs),
(335,701,o),
(227,620,o),
(180,546,cs)
);
}
);
width = 1230;
},
{
anchors = (
{
name = _stem;
pos = (607,569);
}
);
layerId = "DEBB1CE4-A72D-4960-969E-E04A036D2FA1";
shapes = (
{
closed = 1;
nodes = (
(276,468,l),
(325,522,o),
(383,565,o),
(475,565,cs),
(651,565,o),
(716,349,o),
(935,349,cs),
(1073,349,o),
(1186,449,o),
(1234,554,c),
(1137,668,l),
(1092,609,o),
(1049,568,o),
(959,568,cs),
(810,568,o),
(727,781,o),
(488,781,cs),
(339,781,o),
(219,673,o),
(180,581,c)
);
}
);
width = 1414;
},
{
anchors = (
{
name = _stem;
pos = (577,569);
}
);
layerId = "184155C8-9F61-4F1C-9784-DDA8EA717636";
shapes = (
{
closed = 1;
nodes = (
(200,498,l),
(243,548,o),
(285,577,o),
(333,577,cs),
(478,577,o),
(617,376,o),
(863,376,cs),
(977,376,o),
(1050,459,o),
(1104,603,c),
(1059,625,l),
(1010,574,o),
(970,550,o),
(919,550,cs),
(773,550,o),
(637,751,o),
(409,751,cs),
(293,751,o),
(221,669,o),
(154,524,c)
);
}
);
width = 1258;
},
{
anchors = (
{
name = _stem;
pos = (587,569);
}
);
layerId = "EA2265BD-E890-48C4-9E90-A53076E780C5";
shapes = (
{
closed = 1;
nodes = (
(281,435,l),
(330,489,o),
(398,542,o),
(490,542,cs),
(616,542,o),
(681,366,o),
(860,366,cs),
(1008,366,o),
(1131,476,o),
(1179,581,c),
(1082,695,l),
(1037,636,o),
(984,585,o),
(884,585,cs),
(775,585,o),
(692,758,o),
(503,758,cs),
(354,758,o),
(224,640,o),
(185,548,c)
);
}
);
width = 1364;
},
{
anchors = (
{
name = _stem;
pos = (517,569);
}
);
layerId = "0E4B6E2E-ECAB-4D06-9686-B0B40AA31834";
shapes = (
{
closed = 1;
nodes = (
(175,463,l),
(215,519,o),
(283,581,o),
(377,581,cs),
(503,581,o),
(559,417,o),
(724,417,cs),
(855,417,o),
(962,503,o),
(1010,589,c),
(945,663,l),
(905,607,o),
(837,547,o),
(745,547,cs),
(622,547,o),
(563,711,o),
(398,711,cs),
(263,711,o),
(156,621,o),
(110,539,c)
);
}
);
width = 1120;
},
{
anchors = (
{
name = _stem;
pos = (587,569);
}
);
layerId = "F2B10EEF-9DDC-48CA-970D-6B8C79870881";
shapes = (
{
closed = 1;
nodes = (
(173,489,l),
(218,560,o),
(287,610,o),
(358,610,cs),
(504,610,o),
(524,426,o),
(694,426,cs),
(794,426,o),
(895,494,o),
(933,581,c),
(894,645,l),
(849,574,o),
(776,517,o),
(703,517,cs),
(561,517,o),
(533,701,o),
(376,701,cs),
(278,701,o),
(175,629,o),
(141,546,c)
);
}
);
width = 1074;
},
{
anchors = (
{
name = _stem;
pos = (587,569);
}
);
layerId = "E96AC896-F5DF-475B-BBD9-C7FEC6A86D0E";
shapes = (
{
closed = 1;
nodes = (
(172,489,l),
(217,560,o),
(286,610,o),
(357,610,cs),
(503,610,o),
(523,426,o),
(693,426,cs),
(793,426,o),
(894,494,o),
(932,581,c),
(893,645,l),
(848,574,o),
(775,517,o),
(702,517,cs),
(560,517,o),
(532,701,o),
(375,701,cs),
(277,701,o),
(174,629,o),
(140,546,c)
);
}
);
width = 1072;
},
{
anchors = (
{
name = _stem;
pos = (547,559);
}
);
layerId = "C9B9556E-C2FD-4F62-BB40-44923C452C22";
shapes = (
{
closed = 1;
nodes = (
(179,510,ls),
(246,608,o),
(285,634,o),
(336,634,cs),
(483,634,o),
(570,400,o),
(745,400,cs),
(830,400,o),
(894,477,o),
(950,598,c),
(922,616,l),
(871,534,o),
(829,503,o),
(764,503,cs),
(613,503,o),
(521,737,o),
(363,737,cs),
(282,737,o),
(212,658,o),
(154,529,cs)
);
}
);
width = 1104;
},
{
anchors = (
{
name = _stem;
pos = (537,569);
}
);
layerId = "AFA1064D-EFC9-4C9F-B9B0-9118E41D87C4";
shapes = (
{
closed = 1;
nodes = (
(142,490,l),
(196,561,o),
(277,611,o),
(362,611,cs),
(535,611,o),
(569,427,o),
(770,427,cs),
(890,427,o),
(988,495,o),
(1045,582,c),
(999,646,l),
(945,575,o),
(859,518,o),
(771,518,cs),
(603,518,o),
(560,702,o),
(373,702,cs),
(258,702,o),
(156,630,o),
(104,547,c)
);
}
);
width = 1149;
},
{
anchors = (
{
name = _stem;
pos = (587,569);
}
);
layerId = "2103F1D3-C390-4F79-A87D-298F85EA6916";
shapes = (
{
closed = 1;
nodes = (
(194,490,l),
(248,561,o),
(329,611,o),
(414,611,cs),
(587,611,o),
(621,427,o),
(822,427,cs),
(942,427,o),
(1040,495,o),
(1097,582,c),
(1051,646,l),
(997,575,o),
(911,518,o),
(823,518,cs),
(655,518,o),
(612,702,o),
(425,702,cs),
(310,702,o),
(208,630,o),
(156,547,c)
);
}
);
width = 1253;
},
{
anchors = (
{
name = _stem;
pos = (517,569);
}
);
layerId = "779F1615-9D1A-4778-9767-9A030AA58B6C";
shapes = (
{
closed = 1;
nodes = (
(177,462,l),
(216,512,o),
(301,580,o),
(402,580,cs),
(558,580,o),
(606,416,o),
(800,416,cs),
(939,416,o),
(1064,502,o),
(1117,588,c),
(1050,662,l),
(1008,608,o),
(921,546,o),
(826,546,cs),
(674,546,o),
(623,710,o),
(429,710,cs),
(284,710,o),
(159,617,o),
(110,538,c)
);
}
);
userData = {
com.schriftgestaltung.Glyphs.lastChange = "2019-04-25 21:50:43 +0000";
};
width = 1227;
},
{
anchors = (
{
name = _stem;
pos = (587,569);
}
);
layerId = "97BB7961-D669-43AB-8BBF-11FFD0C46A4B";
shapes = (
{
closed = 1;
nodes = (
(271,436,l),
(315,482,o),
(384,543,o),
(481,543,cs),
(645,543,o),
(700,367,o),
(908,367,cs),
(1073,367,o),
(1188,477,o),
(1243,582,c),
(1141,696,l),
(1101,646,o),
(1041,586,o),
(948,586,cs),
(790,586,o),
(720,759,o),
(510,759,cs),
(338,759,o),
(220,644,o),
(170,549,c)
);
}
);
width = 1413;
}
);
metricLeft = hyphen;
metricRight = hyphen;
unicode = 126;
}
{
category = Letter;
glyphname = kgreenlandic;
kernLeft = h;
kernRight = k;
layers = (
{
anchors = (
{
name = bottom;
pos = (648,0);
},
{
name = top;
pos = (648,1110);
}
);
layerId = UUID0;
shapes = (
{
closed = 1;
nodes = (
(62,84,l),
(62,0,l),
(554,0,l),
(554,82,l),
(388,98,l),
(388,250,l),
(384,350,ls),
(610,554,ls),
(930,98,ls),
(816,82,ls),
(816,0,ls),
(1256,0,ls),
(1256,84,ls),
(1120,98,ls),
(716,648,ls),
(1062,1008,l),
(1200,1026,l),
(1200,1110,l),
(728,1110,l),
(728,1026,l),
(892,1000,l),
(384,476,l),
(388,678,l),
(388,1102,l),
(350,1134,l),
(346,1134,l),
(70,1102,l),
(70,1012,l),
(228,978,l),
(228,98,l)
);
}
);
width = 1296;
},
{
anchors = (
{
name = bottom;
pos = (676,0);
},
{
name = top;
pos = (676,1112);
}
);
layerId = "DEBB1CE4-A72D-4960-969E-E04A036D2FA1";
shapes = (
{
closed = 1;
nodes = (
(75,131,l),
(75,0,l),
(648,0,l),
(648,131,l),
(532,150,l),
(532,251,l),
(525,341,l),
(689,513,l),
(887,148,l),
(805,131,l),
(805,0,l),
(1356,0,l),
(1356,131,l),
(1250,151,l),
(912,722,l),
(1147,962,l),
(1306,982,l),
(1306,1109,l),
(745,1109,l),
(745,982,l),
(909,960,l),
(524,516,l),
(529,678,l),
(529,1096,l),
(454,1138,l),
(450,1138,l),
(78,1095,l),
(78,938,l),
(201,901,l),
(199,150,l)
);
}
);
width = 1352;
},
{
anchors = (
{
name = bottom;
pos = (587,0);
},
{
name = top;
pos = (587,1005);
}
);
layerId = "184155C8-9F61-4F1C-9784-DDA8EA717636";
shapes = (
{
closed = 1;
nodes = (
(12,37,l),
(12,0,l),
(569,0,l),
(569,35,l),
(463,71,l),
(463,252,l),
(458,345,l),
(569,474,l),
(760,71,l),
(656,38,l),
(656,0,l),
(1244,0,l),
(1244,38,l),
(1147,71,l),
(802,726,l),
(979,935,l),
(1111,966,l),
(1111,1005,l),
(712,1005,l),
(712,966,l),
(878,934,l),
(458,430,l),
(463,641,l),
(461,991,l),
(407,1035,l),
(365,1035,l),
(14,920,l),
(14,881,l),
(125,834,l),
(125,71,l)
);
}
);
width = 1173;
},
{
anchors = (
{
name = bottom;
pos = (579,0);
},
{
name = top;
pos = (579,1112);
}
);
layerId = "EA2265BD-E890-48C4-9E90-A53076E780C5";
shapes = (
{
closed = 1;
nodes = (
(54,131,l),
(54,0,l),
(580,0,l),
(580,131,l),
(480,150,l),
(480,251,l),
(474,341,l),
(606,505,l),
(765,148,l),
(694,131,l),
(694,0,l),
(1183,0,l),
(1183,131,l),
(1091,151,l),
(809,732,l),
(1004,962,l),
(1140,982,l),
(1140,1109,l),
(644,1109,l),
(644,982,l),
(806,960,l),
(473,516,l),
(477,678,l),
(477,1096,l),
(403,1138,l),
(400,1138,l),
(56,1095,l),
(56,938,l),
(165,901,l),
(163,150,l)
);
}
);
width = 1157;
},
{
anchors = (
{
name = bottom;
pos = (586,0);
},
{
name = top;
pos = (586,1110);
}
);
layerId = "0E4B6E2E-ECAB-4D06-9686-B0B40AA31834";
shapes = (
{
closed = 1;
nodes = (
(28,84,l),
(28,0,l),
(480,0,l),
(480,82,l),
(328,98,l),
(328,250,l),
(324,350,l),
(532,564,l),
(826,98,l),
(721,82,l),
(721,0,l),
(1126,0,l),
(1126,84,l),
(1001,98,l),
(629,658,l),
(948,1008,l),
(1075,1026,l),
(1075,1110,l),
(640,1110,l),
(640,1026,l),
(791,1000,l),
(324,476,l),
(328,678,l),
(328,1102,l),
(293,1134,l),
(289,1134,l),
(35,1102,l),
(35,1012,l),
(180,978,l),
(180,98,l)
);
}
);
width = 1171;
},
{
anchors = (
{
name = bottom;
pos = (506,0);
},
{
name = top;
pos = (506,1005);
}
);
layerId = "F2B10EEF-9DDC-48CA-970D-6B8C79870881";
shapes = (
{
closed = 1;
nodes = (
(2,37,l),
(2,0,l),
(511,0,l),
(511,35,l),
(418,71,l),
(418,252,l),
(413,345,l),
(511,471,l),
(664,71,l),
(580,38,l),
(580,0,l),
(1097,0,l),
(1097,38,l),
(1017,71,l),
(717,726,l),
(876,935,l),
(998,966,l),
(998,1005,l),
(631,1005,l),
(631,966,l),
(777,934,l),
(413,430,l),
(418,641,l),
(416,991,l),
(369,1035,l),
(313,1035,l),
(4,920,l),
(4,881,l),
(101,834,l),
(101,71,l)
);
}
);
width = 1012;
},
{
anchors = (
{
name = bottom;
pos = (405,0);
},
{
name = top;
pos = (405,1005);
}
);
layerId = "E96AC896-F5DF-475B-BBD9-C7FEC6A86D0E";
shapes = (
{
closed = 1;
nodes = (
(22,36,l),
(22,0,l),
(339,0,l),
(339,36,l),
(251,67,l),
(251,216,l),
(247,331,l),
(394,509,l),
(645,67,l),
(533,36,l),
(533,0,l),
(879,0,l),
(879,38,l),
(787,67,l),
(470,588,l),
(737,935,l),
(829,966,l),
(829,1005,l),
(517,1005,l),
(517,966,l),
(642,934,l),
(247,413,l),
(251,562,l),
(251,998,l),
(237,1010,l),
(188,1010,l),
(14,958,l),
(14,931,l),
(125,896,l),
(125,67,l)
);
}
);
width = 809;
},
{
anchors = (
{
name = bottom;
pos = (456,0);
},
{
name = top;
pos = (456,1005);
}
);
layerId = "C9B9556E-C2FD-4F62-BB40-44923C452C22";
shapes = (
{
closed = 1;
nodes = (
(29,36,l),
(29,0,l),
(389,0,l),
(389,36,l),
(289,67,l),
(289,216,l),
(284,331,l),
(436,509,l),
(714,67,l),
(587,36,l),
(587,0,l),
(991,0,l),
(991,38,l),
(875,67,l),
(522,588,l),
(818,935,l),
(934,966,l),
(934,1005,l),
(592,1005,l),
(592,966,l),
(713,934,l),
(285,412,l),
(289,562,l),
(289,998,l),
(273,1010,l),
(217,1010,l),
(20,958,l),
(20,931,l),
(146,896,l),
(146,67,l)
);
}
);
width = 911;
},
{
anchors = (
{
name = bottom;
pos = (578,0);
},
{
name = top;
pos = (578,1005);
}
);
layerId = "AFA1064D-EFC9-4C9F-B9B0-9118E41D87C4";
shapes = (
{
closed = 1;
nodes = (
(12,37,l),
(12,0,l),
(583,0,l),
(583,35,l),
(477,71,l),
(477,252,l),
(472,345,l),
(583,474,l),
(764,71,l),
(660,38,l),
(660,0,l),
(1258,0,l),
(1258,38,l),
(1161,71,l),
(820,734,l),
(995,935,l),
(1125,966,l),
(1125,1005,l),
(724,1005,l),
(724,966,l),
(892,934,l),
(472,428,l),
(477,641,l),
(477,991,l),
(421,1035,l),
(379,1035,l),
(14,920,l),
(14,881,l),
(125,834,l),
(125,71,l)
);
}
);
width = 1156;
},
{
anchors = (
{
name = bottom;
pos = (465,0);
},
{
name = top;
pos = (465,1005);
}
);
layerId = "2103F1D3-C390-4F79-A87D-298F85EA6916";
shapes = (
{
closed = 1;
nodes = (
(25,36,l),
(25,0,l),
(385,0,l),
(385,36,l),
(285,67,l),
(285,216,l),
(280,331,l),
(467,543,l),
(727,67,l),
(606,36,l),
(606,0,l),
(1000,0,l),
(1000,38,l),
(885,67,l),
(554,627,l),
(827,935,l),
(942,966,l),
(942,1005,l),
(595,1005,l),
(595,966,l),
(727,934,l),
(281,400,l),
(285,562,l),
(285,998,l),
(269,1010,l),
(213,1010,l),
(16,958,l),
(16,931,l),
(142,896,l),
(142,67,l)
);
}
);
width = 930;
},
{
anchors = (
{
name = bottom;
pos = (591,0);
},
{
name = top;
pos = (591,1110);
}
);
layerId = "779F1615-9D1A-4778-9767-9A030AA58B6C";
shapes = (
{
closed = 1;
nodes = (
(28,84,l),
(28,0,l),
(520,0,l),
(520,82,l),
(354,98,l),
(354,250,l),
(350,350,l),
(576,566,l),
(896,98,l),
(782,82,l),
(782,0,l),
(1203,0,l),
(1203,84,l),
(1086,98,l),
(682,660,l),
(1028,1008,l),
(1147,1026,l),
(1147,1110,l),
(694,1110,l),
(694,1026,l),
(858,1000,l),
(350,476,l),
(354,678,l),
(354,1102,l),
(316,1134,l),
(312,1134,l),
(36,1102,l),
(36,1012,l),
(194,978,l),
(194,98,l)
);
}
);
userData = {
com.schriftgestaltung.Glyphs.lastChange = "2019-04-25 21:50:43 +0000";
};
width = 1181;
},
{
anchors = (
{
name = bottom;
pos = (701,0);
},
{
name = top;
pos = (701,1112);
}
);
layerId = "97BB7961-D669-43AB-8BBF-11FFD0C46A4B";
shapes = (
{
closed = 1;
nodes = (
(52,131,l),
(52,0,l),
(659,0,l),
(659,131,l),
(542,150,l),
(542,251,l),
(535,341,l),
(703,513,l),
(903,148,l),
(816,131,l),
(816,0,l),
(1411,0,l),
(1411,131,l),
(1298,151,l),
(939,722,l),
(1189,962,l),
(1358,982,l),
(1358,1109,l),
(752,1109,l),
(752,982,l),
(936,960,l),
(534,516,l),
(539,678,l),
(539,1096,l),
(453,1138,l),
(449,1138,l),
(52,1095,l),
(52,938,l),
(178,901,l),
(178,150,l)
);
}
);
width = 1401;
}
);
metricLeft = n;
subCategory = Lowercase;
unicode = 312;
}
{
color = 4;
glyphname = OE;
kernLeft = O;
kernRight = E;
layers = (
{
anchors = (
{
name = bottom;
pos = (992,0);
},
{
name = top;
pos = (992,1486);
}
);
layerId = UUID0;
shapes = (
{
closed = 1;
nodes = (
(989,0,l),
(1900,0,l),
(1962,339,l),
(1868,368,l),
(1766,118,l),
(1152,101,l),
(1152,720,l),
(1521,714,l),
(1548,542,l),
(1647,542,l),
(1647,984,l),
(1548,984,l),
(1521,820,l),
(1152,814,l),
(1152,1393,l),
(1690,1384,l),
(1744,1192,l),
(1838,1192,l),
(1810,1486,l),
(989,1486,l),
(989,1456,l),
(911,1494,o),
(821,1512,o),
(721,1510,cs),
(351,1502,o),
(53,1206,o),
(53,734,cs),
(53,286,o),
(287,-16,o),
(691,-16,cs),
(799,-16,o),
(899,14,o),
(989,64,c)
);
},
{
closed = 1;
nodes = (
(401,78,o),
(231,374,o),
(231,734,cs),
(231,1174,o),
(421,1418,o),
(707,1418,cs),
(839,1418,o),
(927,1378,o),
(989,1318,c),
(989,192,l),
(919,118,o),
(823,78,o),
(703,78,cs)
);
}
);
width = 1983;
},
{
anchors = (
{
name = bottom;
pos = (1022,0);
},
{
name = top;
pos = (1022,1486);
}
);
layerId = "DEBB1CE4-A72D-4960-969E-E04A036D2FA1";
shapes = (
{
closed = 1;
nodes = (
(958,0,l),
(1977,0,l),
(2022,372,l),
(1856,425,l),
(1732,165,l),
(1299,138,l),
(1299,693,l),
(1541,687,l),
(1575,512,l),
(1714,512,l),
(1714,1013,l),
(1578,1013,l),
(1539,849,l),
(1299,842,l),
(1299,1355,l),
(1692,1333,l),
(1760,1131,l),
(1917,1131,l),
(1889,1486,l),
(958,1486,l),
(958,1471,l),
(894,1497,o),
(823,1509,o),
(746,1509,cs),
(316,1505,o),
(53,1207,o),
(53,741,cs),
(53,293,o),
(264,-16,o),
(725,-16,cs),
(810,-16,o),
(887,4,o),
(958,43,c)
);
},
{
closed = 1;
nodes = (
(543,113,o),
(428,318,o),
(428,743,cs),
(428,1164,o),
(538,1377,o),
(731,1377,cs),
(839,1377,o),
(914,1334,o),
(958,1192,c),
(958,341,l),
(913,201,o),
(840,113,o),
(734,113,cs)
);
}
);
width = 2043;
},
{
anchors = (
{
name = bottom;
pos = (1048,0);
},
{
name = top;
pos = (1048,1486);
}
);
layerId = "184155C8-9F61-4F1C-9784-DDA8EA717636";
shapes = (
{
closed = 1;
nodes = (
(964,0,l),
(1976,0,l),
(2073,437,l),
(1900,458,l),
(1730,121,l),
(1326,59,l),
(1326,735,l),
(1545,729,l),
(1627,461,l),
(1675,461,l),
(1675,1043,l),
(1627,1043,l),
(1545,795,l),
(1326,788,l),
(1326,1427,l),
(1696,1388,l),
(1833,1109,l),
(1970,1109,l),
(1936,1486,l),
(964,1486,l),
(964,1471,l),
(900,1497,o),
(789,1505,o),
(712,1505,cs),
(235,1505,o),
(26,1157,o),
(26,714,cs),
(26,284,o),
(215,-25,o),
(684,-25,cs),
(769,-25,o),
(893,4,o),
(964,43,c)
);
},
{
closed = 1;
nodes = (
(521,34,o),
(443,311,o),
(443,714,cs),
(443,1203,o),
(533,1446,o),
(706,1446,cs),
(892,1446,o),
(946,1238,o),
(946,1027,c),
(946,499,l),
(946,256,o),
(876,34,o),
(699,34,cs)
);
}
);
width = 2095;
},
{
anchors = (
{
name = bottom;
pos = (901,0);
},
{
name = top;
pos = (901,1486);
}
);
layerId = "EA2265BD-E890-48C4-9E90-A53076E780C5";
shapes = (
{
closed = 1;
nodes = (
(851,0,l),
(1745,0,l),
(1782,372,l),
(1619,424,l),
(1510,165,l),
(1178,138,l),
(1178,693,l),
(1354,689,l),
(1386,512,l),
(1517,512,l),
(1517,1013,l),
(1389,1013,l),
(1352,849,l),
(1178,842,l),
(1178,1355,l),
(1482,1333,l),
(1544,1135,l),
(1697,1135,l),
(1670,1486,l),
(851,1486,l),
(851,1471,l),
(791,1497,o),
(724,1509,o),
(651,1509,cs),
(267,1509,o),
(40,1207,o),
(40,741,cs),
(40,285,o),
(206,-25,o),
(631,-25,cs),
(711,-25,o),
(784,4,o),
(851,43,c)
);
},
{
closed = 1;
nodes = (
(502,113,o),
(410,318,o),
(410,743,cs),
(410,1164,o),
(485,1377,o),
(679,1377,cs),
(785,1377,o),
(851,1261,o),
(851,1112,c),
(851,341,l),
(808,201,o),
(739,113,o),
(639,113,cs)
);
}
);
width = 1801;
},
{
anchors = (
{
name = bottom;
pos = (909,0);
},
{
name = top;
pos = (909,1486);
}
);
layerId = "0E4B6E2E-ECAB-4D06-9686-B0B40AA31834";
shapes = (
{
closed = 1;
nodes = (
(920,0,l),
(1716,0,l),
(1770,337,l),
(1681,366,l),
(1587,118,l),
(1080,101,l),
(1080,720,l),
(1382,714,l),
(1407,542,l),
(1496,542,l),
(1496,984,l),
(1407,984,l),
(1382,820,l),
(1080,814,l),
(1080,1393,l),
(1526,1384,l),
(1577,1192,l),
(1665,1192,l),
(1639,1486,l),
(920,1486,l),
(920,1456,l),
(847,1494,o),
(768,1512,o),
(674,1510,cs),
(326,1503,o),
(46,1206,o),
(46,734,cs),
(46,286,o),
(266,-16,o),
(646,-16,cs),
(747,-16,o),
(835,14,o),
(920,64,c)
);
},
{
closed = 1;
nodes = (
(373,78,o),
(225,374,o),
(225,734,cs),
(225,1174,o),
(392,1418,o),
(661,1418,cs),
(785,1418,o),
(862,1378,o),
(920,1318,c),
(920,192,l),
(854,118,o),
(770,78,o),
(657,78,cs)
);
}
);
width = 1817;
},
{
anchors = (
{
name = bottom;
pos = (915,0);
},
{
name = top;
pos = (915,1486);
}
);
layerId = "F2B10EEF-9DDC-48CA-970D-6B8C79870881";
shapes = (
{
closed = 1;
nodes = (
(833,0,l),
(1719,0,l),
(1798,390,l),
(1652,432,l),
(1493,108,l),
(1190,59,l),
(1190,735,l),
(1361,729,l),
(1453,461,l),
(1491,461,l),
(1491,1043,l),
(1453,1043,l),
(1361,795,l),
(1190,788,l),
(1190,1427,l),
(1467,1398,l),
(1601,1123,l),
(1724,1123,l),
(1696,1486,l),
(833,1486,l),
(833,1450,l),
(769,1492,o),
(715,1502,o),
(638,1502,cs),
(233,1502,o),
(40,1192,o),
(40,714,cs),
(40,237,o),
(219,-23,o),
(617,-23,cs),
(691,-23,o),
(765,10,o),
(833,58,c)
);
},
{
closed = 1;
nodes = (
(475,43,o),
(414,239,o),
(414,714,cs),
(414,1271,o),
(482,1437,o),
(619,1437,cs),
(748,1437,o),
(834,1306,o),
(834,1027,c),
(834,499,l),
(834,309,o),
(795,43,o),
(625,43,cs)
);
}
);
width = 1830;
},
{
anchors = (
{
name = bottom;
pos = (896,0);
},
{
name = top;
pos = (896,1486);
}
);
layerId = "E96AC896-F5DF-475B-BBD9-C7FEC6A86D0E";
shapes = (
{
closed = 1;
nodes = (
(924,0,l),
(1699,0,l),
(1763,337,l),
(1692,364,l),
(1573,74,l),
(1070,50,l),
(1070,740,l),
(1355,722,l),
(1397,542,l),
(1448,542,l),
(1448,984,l),
(1397,984,l),
(1355,807,l),
(1070,789,l),
(1070,1433,l),
(1536,1422,l),
(1623,1192,l),
(1692,1192,l),
(1661,1486,l),
(924,1486,l),
(924,1449,l),
(851,1483,o),
(712,1502,o),
(618,1502,cs),
(278,1502,o),
(40,1210,o),
(40,734,cs),
(40,293,o),
(222,-22,o),
(588,-21,cs),
(738,-25,o),
(839,8,o),
(924,58,c)
);
},
{
closed = 1;
nodes = (
(363,28,o),
(205,287,o),
(205,724,cs),
(205,1215,o),
(362,1452,o),
(601,1452,cs),
(744,1452,o),
(871,1386,o),
(924,1327,c),
(924,150,l),
(858,88,o),
(777,28,o),
(593,28,cs)
);
}
);
width = 1791;
},
{
anchors = (
{
name = bottom;
pos = (987,0);
},
{
name = top;
pos = (987,1486);
}
);
layerId = "C9B9556E-C2FD-4F62-BB40-44923C452C22";
shapes = (
{
closed = 1;
nodes = (
(981,0,l),
(1871,0,l),
(1933,337,l),
(1861,364,l),
(1737,74,l),
(1136,50,l),
(1136,733,l),
(1518,722,l),
(1552,542,l),
(1607,542,l),
(1607,984,l),
(1552,984,l),
(1518,807,l),
(1136,794,l),
(1136,1433,l),
(1654,1422,l),
(1743,1192,l),
(1809,1192,l),
(1781,1486,l),
(981,1486,l),
(981,1449,l),
(903,1483,o),
(809,1502,o),
(709,1502,cs),
(337,1502,o),
(45,1232,o),
(45,734,cs),
(45,286,o),
(269,-22,o),
(675,-22,cs),
(783,-18,o),
(891,8,o),
(981,58,c)
);
},
{
closed = 1;
nodes = (
(376,28,o),
(216,287,o),
(216,724,cs),
(216,1215,o),
(405,1452,o),
(691,1452,cs),
(843,1452,o),
(925,1386,o),
(981,1327,c),
(981,150,l),
(911,88,o),
(825,28,o),
(685,28,cs)
);
}
);
width = 1973;
},
{
anchors = (
{
name = bottom;
pos = (1126,0);
},
{
name = top;
pos = (1126,1486);
}
);
layerId = "AFA1064D-EFC9-4C9F-B9B0-9118E41D87C4";
shapes = (
{
closed = 1;
nodes = (
(1070,0,l),
(2163,0,l),
(2236,425,l),
(2078,462,l),
(1929,126,l),
(1459,59,l),
(1459,735,l),
(1717,729,l),
(1812,461,l),
(1860,461,l),
(1860,1043,l),
(1812,1043,l),
(1717,795,l),
(1459,788,l),
(1459,1427,l),
(1899,1388,l),
(2030,1112,l),
(2169,1112,l),
(2139,1486,l),
(1072,1486,l),
(1072,1434,l),
(1008,1483,o),
(878,1505,o),
(787,1505,cs),
(286,1505,o),
(24,1179,o),
(24,714,cs),
(24,271,o),
(251,-23,o),
(752,-23,cs),
(848,-23,o),
(966,-5,o),
(1070,57,c)
);
},
{
closed = 1;
nodes = (
(559,34,o),
(458,285,o),
(458,714,cs),
(458,1228,o),
(579,1446,o),
(765,1446,cs),
(971,1446,o),
(1073,1253,o),
(1073,1027,c),
(1073,499,l),
(1073,280,o),
(945,34,o),
(763,34,cs)
);
}
);
width = 2252;
},
{
anchors = (
{
name = bottom;
pos = (1002,0);
},
{
name = top;
pos = (1002,1486);
}
);
layerId = "2103F1D3-C390-4F79-A87D-298F85EA6916";
shapes = (
{
closed = 1;
nodes = (
(973,0,l),
(1904,0,l),
(1966,337,l),
(1894,364,l),
(1770,74,l),
(1128,50,l),
(1128,741,l),
(1549,722,l),
(1593,542,l),
(1648,542,l),
(1648,984,l),
(1593,984,l),
(1549,807,l),
(1128,787,l),
(1128,1434,l),
(1692,1422,l),
(1783,1192,l),
(1851,1192,l),
(1823,1486,l),
(973,1486,l),
(973,1449,l),
(895,1493,o),
(781,1502,o),
(761,1502,cs),
(339,1502,o),
(37,1204,o),
(37,734,cs),
(37,266,o),
(301,-22,o),
(727,-19,cs),
(825,-18,o),
(903,8,o),
(973,58,c)
);
},
{
closed = 1;
nodes = (
(408,28,o),
(216,257,o),
(216,724,cs),
(216,1215,o),
(437,1452,o),
(741,1452,cs),
(865,1452,o),
(917,1386,o),
(973,1327,c),
(973,150,l),
(923,88,o),
(837,28,o),
(737,28,cs)
);
}
);
width = 2004;
},
{
anchors = (
{
name = bottom;
pos = (1051,0);
},
{
name = top;
pos = (1051,1486);
}
);
layerId = "779F1615-9D1A-4778-9767-9A030AA58B6C";
shapes = (
{
closed = 1;
nodes = (
(1034,0,l),
(2003,0,l),
(2080,339,l),
(1981,368,l),
(1861,118,l),
(1200,101,l),
(1200,720,l),
(1595,714,l),
(1624,542,l),
(1736,542,l),
(1736,984,l),
(1624,984,l),
(1595,820,l),
(1200,814,l),
(1200,1393,l),
(1798,1384,l),
(1860,1192,l),
(1960,1192,l),
(1927,1486,l),
(1034,1486,l),
(1034,1456,l),
(951,1494,o),
(866,1500,o),
(760,1500,cs),
(348,1500,o),
(42,1206,o),
(42,734,cs),
(42,292,o),
(270,-21,o),
(718,-21,cs),
(833,-21,o),
(939,14,o),
(1034,64,c)
);
},
{
closed = 1;
nodes = (
(391,73,o),
(224,353,o),
(224,734,cs),
(224,1174,o),
(422,1408,o),
(745,1408,cs),
(885,1408,o),
(968,1367,o),
(1034,1318,c),
(1034,192,l),
(960,118,o),
(858,73,o),
(731,73,cs)
);
}
);
userData = {
com.schriftgestaltung.Glyphs.lastChange = "2019-04-25 21:50:43 +0000";
};
width = 2101;
},
{
anchors = (
{
name = bottom;
pos = (1086,0);
},
{
name = top;
pos = (1086,1486);
}
);
layerId = "97BB7961-D669-43AB-8BBF-11FFD0C46A4B";
shapes = (
{
closed = 1;
nodes = (
(999,0,l),
(2099,0,l),
(2147,374,l),
(1941,425,l),
(1839,165,l),
(1350,138,l),
(1350,693,l),
(1635,687,l),
(1671,512,l),
(1832,512,l),
(1832,1013,l),
(1674,1013,l),
(1633,849,l),
(1350,842,l),
(1350,1355,l),
(1789,1333,l),
(1861,1131,l),
(2047,1131,l),
(2018,1486,l),
(999,1486,l),
(999,1471,l),
(931,1497,o),
(866,1506,o),
(785,1506,cs),
(339,1506,o),
(40,1207,o),
(40,741,cs),
(40,289,o),
(260,-22,o),
(752,-22,cs),
(842,-22,o),
(924,4,o),
(999,43,c)
);
},
{
closed = 1;
nodes = (
(582,113,o),
(459,319,o),
(459,743,cs),
(459,1164,o),
(580,1373,o),
(771,1373,cs),
(885,1373,o),
(953,1334,o),
(999,1192,c),
(999,341,l),
(952,201,o),
(874,113,o),
(772,113,cs)
);
}
);
width = 2172;
}
);
metricLeft = O;
metricRight = E;
unicode = 338;
}
{
color = 2;
glyphname = Fhook;
layers = (
{
background = {
shapes = (
{
closed = 1;
nodes = (
(269,-437,o),
(472,-243,o),
(472,2,cs),
(472,706,l),
(872,698,l),
(906,528,l),
(998,528,l),
(998,970,l),
(906,970,l),
(872,808,l),
(472,802,l),
(472,1394,l),
(1035,1384,l),
(1091,1158,l),
(1200,1158,l),
(1180,1486,l),
(132,1486,l),
(132,1400,l),
(308,1378,l),
(308,-47,ls),
(308,-211,o),
(262,-296,o),
(132,-296,cs),
(54,-296,o),
(-4,-274,o),
(-22,-260,c),
(-22,-421,l),
(-3,-429,o),
(21,-437,o),
(76,-437,cs)
);
}
);
};
layerId = UUID0;
shapes = (
{
closed = 1;
nodes = (
(216,-502,o),
(419,-308,o),
(419,-63,cs),
(419,706,l),
(819,698,l),
(853,528,l),
(945,528,l),
(945,970,l),
(853,970,l),
(819,808,l),
(419,802,l),
(419,1394,l),
(982,1384,l),
(1038,1158,l),
(1147,1158,l),
(1127,1486,l),
(79,1486,l),
(79,1400,l),
(255,1378,l),
(255,-112,ls),
(255,-276,o),
(209,-361,o),
(79,-361,cs),
(1,-361,o),
(-57,-339,o),
(-75,-325,c),
(-75,-486,l),
(-56,-494,o),
(-32,-502,o),
(23,-502,cs)
);
}
);
width = 1217;
},
{
background = {
shapes = (
{
closed = 1;
nodes = (
(417,-411,o),
(634,-217,o),
(637,68,cs),
(637,645,l),
(898,637,l),
(939,453,l),
(1078,453,l),
(1078,986,l),
(938,986,l),
(898,807,l),
(637,801,l),
(637,1354,l),
(1020,1329,l),
(1101,1112,l),
(1280,1112,l),
(1259,1486,l),
(134,1486,l),
(134,1347,l),
(294,1319,l),
(291,-22,ls),
(291,-128,o),
(253,-169,o),
(149,-169,cs),
(75,-169,o),
(-2,-153,o),
(-42,-121,c),
(-43,-393,l),
(-27,-398,o),
(15,-411,o),
(91,-411,cs)
);
}
);
};
layerId = "DEBB1CE4-A72D-4960-969E-E04A036D2FA1";
shapes = (
{
closed = 1;
nodes = (
(362,-508,o),
(582,-314,o),
(582,-29,cs),
(582,645,l),
(843,637,l),
(884,453,l),
(1023,453,l),
(1023,986,l),
(883,986,l),
(843,807,l),
(582,801,l),
(582,1354,l),
(965,1329,l),
(1046,1112,l),
(1225,1112,l),
(1204,1486,l),
(79,1486,l),
(79,1347,l),
(239,1319,l),
(236,-119,ls),
(236,-225,o),
(198,-266,o),
(94,-266,cs),
(20,-266,o),
(-57,-250,o),
(-97,-218,c),
(-98,-490,l),
(-82,-495,o),
(-40,-508,o),
(36,-508,cs)
);
}
);
width = 1264;
},
{
layerId = "0E4B6E2E-ECAB-4D06-9686-B0B40AA31834";
shapes = (
{
closed = 1;
nodes = (
(192,-437,o),
(384,-245,o),
(384,0,cs),
(384,706,l),
(680,698,l),
(714,528,l),
(806,528,l),
(806,970,l),
(714,970,l),
(680,808,l),
(384,802,l),
(384,1394,l),
(843,1384,l),
(897,1158,l),
(1007,1158,l),
(987,1486,l),
(82,1486,l),
(82,1400,l),
(225,1378,l),
(223,-47,ls),
(223,-211,o),
(185,-296,o),
(55,-296,cs),
(-23,-296,o),
(-81,-274,o),
(-99,-260,c),
(-99,-421,l),
(-80,-429,o),
(-56,-437,o),
(-1,-437,cs)
);
}
);
width = 1075;
},
{
layerId = "EA2265BD-E890-48C4-9E90-A53076E780C5";
shapes = (
{
closed = 1;
nodes = (
(346,-411,o),
(602,-204,o),
(602,68,cs),
(602,645,l),
(773,637,l),
(814,453,l),
(953,453,l),
(953,986,l),
(813,986,l),
(773,807,l),
(602,801,l),
(602,1354,l),
(901,1333,l),
(972,1112,l),
(1121,1112,l),
(1100,1486,l),
(129,1486,l),
(129,1347,l),
(260,1321,l),
(263,-22,ls),
(263,-128,o),
(224,-169,o),
(120,-169,cs),
(46,-169,o),
(-31,-153,o),
(-71,-121,c),
(-72,-393,l),
(-56,-398,o),
(-14,-411,o),
(62,-411,cs)
);
}
);
width = 1151;
},
{
layerId = "779F1615-9D1A-4778-9767-9A030AA58B6C";
shapes = (
{
closed = 1;
nodes = (
(281,-437,o),
(484,-245,o),
(484,0,cs),
(484,706,l),
(879,698,l),
(913,528,l),
(1005,528,l),
(1005,970,l),
(913,970,l),
(879,808,l),
(484,802,l),
(484,1394,l),
(1089,1384,l),
(1144,1158,l),
(1254,1158,l),
(1234,1486,l),
(116,1486,l),
(116,1400,l),
(320,1378,l),
(318,-47,ls),
(318,-211,o),
(274,-296,o),
(144,-296,cs),
(66,-296,o),
(8,-274,o),
(-10,-260,c),
(-10,-421,l),
(9,-429,o),
(33,-437,o),
(88,-437,cs)
);
}
);
width = 1314;
},
{
layerId = "97BB7961-D669-43AB-8BBF-11FFD0C46A4B";
shapes = (
{
closed = 1;
nodes = (
(397,-412,o),
(664,-202,o),
(664,70,cs),
(664,635,l),
(983,627,l),
(1024,443,l),
(1177,443,l),
(1177,976,l),
(1023,976,l),
(983,797,l),
(664,791,l),
(664,1354,l),
(1119,1329,l),
(1208,1092,l),
(1387,1092,l),
(1358,1486,l),
(165,1486,l),
(165,1347,l),
(312,1319,l),
(314,-23,ls),
(314,-129,o),
(275,-170,o),
(171,-170,cs),
(97,-170,o),
(20,-154,o),
(-20,-122,c),
(-21,-394,l),
(-5,-399,o),
(37,-412,o),
(113,-412,cs)
);
}
);
width = 1411;
},
{
layerId = "C9B9556E-C2FD-4F62-BB40-44923C452C22";
shapes = (
{
closed = 1;
nodes = (
(134,-506,o),
(321,-327,o),
(321,-67,cs),
(321,735,l),
(703,722,l),
(738,542,l),
(792,542,l),
(792,984,l),
(738,984,l),
(703,808,l),
(321,792,l),
(321,1433,l),
(849,1422,l),
(937,1192,l),
(1004,1192,l),
(977,1486,l),
(25,1486,l),
(25,1450,l),
(165,1420,l),
(165,-116,ls),
(165,-347,o),
(125,-375,o),
(-3,-375,cs),
(-67,-375,o),
(-118,-363,o),
(-157,-349,c),
(-157,-490,l),
(-138,-498,o),
(-114,-506,o),
(-67,-506,cs)
);
}
);
width = 1044;
},
{
background = {
shapes = (
{
closed = 1;
nodes = (
(407,-466,o),
(614,-201,o),
(614,146,cs),
(614,711,l),
(832,704,l),
(915,438,l),
(963,438,l),
(963,1019,l),
(916,1019,l),
(832,770,l),
(614,763,l),
(614,1426,l),
(936,1389,l),
(1068,1088,l),
(1208,1088,l),
(1179,1486,l),
(100,1486,l),
(100,1450,l),
(233,1412,l),
(235,-109,ls),
(235,-242,o),
(198,-283,o),
(123,-283,cs),
(63,-283,o),
(-6,-233,o),
(-55,-201,c),
(-55,-449,l),
(-38,-460,o),
(2,-466,o),
(66,-466,cs)
);
}
);
};
layerId = "184155C8-9F61-4F1C-9784-DDA8EA717636";
shapes = (
{
closed = 1;
nodes = (
(326,-500,o),
(533,-235,o),
(533,112,cs),
(533,711,l),
(751,704,l),
(834,438,l),
(882,438,l),
(882,1019,l),
(835,1019,l),
(751,770,l),
(533,763,l),
(533,1426,l),
(855,1389,l),
(987,1088,l),
(1127,1088,l),
(1098,1486,l),
(19,1486,l),
(19,1450,l),
(152,1412,l),
(154,-143,ls),
(154,-276,o),
(117,-317,o),
(42,-317,cs),
(-18,-317,o),
(-87,-267,o),
(-136,-235,c),
(-136,-483,l),
(-119,-494,o),
(-79,-500,o),
(-15,-500,cs)
);
}
);
width = 1172;
},
{
layerId = "E96AC896-F5DF-475B-BBD9-C7FEC6A86D0E";
shapes = (
{
closed = 1;
nodes = (
(180,-448,o),
(404,-260,o),
(404,67,cs),
(404,735,l),
(706,722,l),
(741,542,l),
(795,542,l),
(795,984,l),
(741,984,l),
(706,808,l),
(404,792,l),
(404,1433,l),
(852,1422,l),
(940,1192,l),
(1007,1192,l),
(980,1486,l),
(111,1486,l),
(111,1450,l),
(251,1420,l),
(254,-106,ls),
(255,-299,o),
(192,-341,o),
(44,-341,cs),
(-41,-341,o),
(-92,-332,o),
(-116,-320,c),
(-116,-432,l),
(-101,-438,o),
(-75,-448,o),
(-34,-448,cs)
);
}
);
width = 1035;
},
{
layerId = "F2B10EEF-9DDC-48CA-970D-6B8C79870881";
shapes = (
{
closed = 1;
nodes = (
(384,-466,o),
(565,-201,o),
(565,109,cs),
(565,710,l),
(736,704,l),
(828,437,l),
(866,437,l),
(866,1019,l),
(828,1019,l),
(735,770,l),
(565,764,l),
(565,1429,l),
(807,1400,l),
(947,1088,l),
(1077,1088,l),
(1051,1486,l),
(99,1486,l),
(99,1450,l),
(210,1412,l),
(210,-109,ls),
(210,-242,o),
(175,-283,o),
(100,-283,cs),
(40,-283,o),
(-29,-233,o),
(-78,-201,c),
(-78,-449,l),
(-61,-460,o),
(-21,-466,o),
(43,-466,cs)
);
}
);
width = 1122;
},
{
layerId = "2103F1D3-C390-4F79-A87D-298F85EA6916";
shapes = (
{
closed = 1;
nodes = (
(188,-446,o),
(421,-261,o),
(422,66,c),
(423,735,l),
(855,722,l),
(890,542,l),
(944,542,l),
(944,984,l),
(890,984,l),
(855,808,l),
(423,792,l),
(423,1433,l),
(1031,1422,l),
(1119,1192,l),
(1186,1192,l),
(1159,1486,l),
(127,1486,l),
(127,1450,l),
(267,1420,l),
(266,-104,ls),
(266,-297,o),
(200,-339,o),
(52,-339,cs),
(-33,-339,o),
(-84,-330,o),
(-108,-318,c),
(-108,-430,l),
(-93,-436,o),
(-67,-446,o),
(-26,-446,cs)
);
}
);
width = 1228;
},
{
layerId = "AFA1064D-EFC9-4C9F-B9B0-9118E41D87C4";
shapes = (
{
closed = 1;
nodes = (
(389,-466,o),
(624,-201,o),
(624,146,cs),
(624,711,l),
(901,704,l),
(1003,438,l),
(1056,438,l),
(1056,1019,l),
(1004,1019,l),
(901,770,l),
(624,763,l),
(624,1426,l),
(1035,1389,l),
(1167,1088,l),
(1302,1088,l),
(1273,1486,l),
(104,1486,l),
(104,1450,l),
(237,1412,l),
(237,-80,ls),
(237,-232,o),
(180,-283,o),
(105,-283,cs),
(45,-283,o),
(-24,-233,o),
(-73,-201,c),
(-73,-449,l),
(-56,-460,o),
(-16,-466,o),
(48,-466,cs)
);
}
);
width = 1347;
}
);
metricRight = F;
unicode = 401;
}
{
glyphname = florin;
kernLeft = florin;
kernRight = florin;
layers = (
{
layerId = UUID0;
shapes = (
{
closed = 1;
nodes = (
(322,990,l),
(210,-348,l),
(368,-348,l),
(484,990,l),
(796,990,l),
(804,1110,l),
(492,1110,l),
(508,1244,l),
(526,1462,o),
(612,1516,o),
(732,1516,cs),
(824,1516,o),
(874,1500,o),
(892,1488,c),
(910,1628,l),
(896,1636,o),
(850,1646,o),
(770,1646,cs),
(572,1646,o),
(368,1484,o),
(344,1188,c),
(334,1110,l),
(126,1062,l),
(120,990,l)
);
}
);
width = 970;
},
{
layerId = "DEBB1CE4-A72D-4960-969E-E04A036D2FA1";
shapes = (
{
closed = 1;
nodes = (
(291,922,l),
(179,-348,l),
(474,-348,l),
(586,922,l),
(865,922,l),
(882,1109,l),
(607,1109,l),
(623,1245,l),
(638,1385,o),
(705,1426,o),
(778,1426,cs),
(879,1426,o),
(923,1394,o),
(939,1380,c),
(963,1625,l),
(943,1632,o),
(885,1646,o),
(779,1646,cs),
(575,1646,o),
(346,1481,o),
(322,1189,c),
(312,1109,l),
(116,1053,l),
(101,922,l)
);
}
);
width = 1023;
},
{
layerId = "184155C8-9F61-4F1C-9784-DDA8EA717636";
shapes = (
{
closed = 1;
nodes = (
(261,978,l),
(147,-348,l),
(462,-348,l),
(577,978,l),
(849,978,l),
(856,1056,l),
(586,1056,l),
(595,1148,ls),
(618,1386,o),
(633,1560,o),
(718,1560,cs),
(780,1560,o),
(864,1483,o),
(917,1380,c),
(941,1625,l),
(910,1637,o),
(866,1646,o),
(820,1646,cs),
(592,1646,o),
(341,1424,o),
(282,1097,cs),
(275,1058,l),
(110,1023,l),
(106,978,l)
);
}
);
width = 1001;
},
{
layerId = "EA2265BD-E890-48C4-9E90-A53076E780C5";
shapes = (
{
closed = 1;
nodes = (
(243,922,l),
(148,-348,l),
(438,-348,l),
(533,922,l),
(764,922,l),
(781,1109,l),
(553,1109,l),
(567,1245,l),
(583,1397,o),
(634,1426,o),
(694,1426,cs),
(732,1426,o),
(793,1411,o),
(821,1380,c),
(843,1625,l),
(825,1633,o),
(750,1646,o),
(692,1646,cs),
(465,1646,o),
(292,1459,o),
(272,1189,c),
(263,1109,l),
(99,1053,l),
(84,922,l)
);
}
);
width = 896;
},
{
layerId = "0E4B6E2E-ECAB-4D06-9686-B0B40AA31834";
shapes = (
{
closed = 1;
nodes = (
(284,990,l),
(184,-348,l),
(338,-348,l),
(443,990,l),
(723,990,l),
(731,1110,l),
(451,1110,l),
(466,1244,l),
(482,1462,o),
(559,1516,o),
(663,1516,cs),
(746,1516,o),
(791,1500,o),
(808,1488,c),
(824,1628,l),
(811,1636,o),
(767,1646,o),
(694,1646,cs),
(516,1646,o),
(327,1484,o),
(306,1188,c),
(296,1110,l),
(109,1062,l),
(103,990,l)
);
}
);
width = 877;
},
{
layerId = "F2B10EEF-9DDC-48CA-970D-6B8C79870881";
shapes = (
{
closed = 1;
nodes = (
(245,978,l),
(144,-348,l),
(429,-348,l),
(530,978,l),
(773,978,l),
(782,1056,l),
(540,1056,l),
(548,1148,ls),
(572,1386,o),
(580,1560,o),
(653,1560,cs),
(709,1560,o),
(782,1483,o),
(828,1380,c),
(851,1625,l),
(822,1637,o),
(780,1646,o),
(734,1646,cs),
(539,1646,o),
(314,1424,o),
(265,1097,cs),
(259,1058,l),
(105,1023,l),
(99,978,l)
);
}
);
width = 914;
},
{
layerId = "E96AC896-F5DF-475B-BBD9-C7FEC6A86D0E";
shapes = (
{
closed = 1;
nodes = (
(263,978,l),
(173,-348,l),
(319,-348,l),
(413,978,l),
(651,978,l),
(657,1044,l),
(419,1044,l),
(429,1148,ls),
(458,1449,o),
(498,1555,o),
(577,1555,cs),
(624,1555,o),
(676,1531,o),
(711,1496,c),
(724,1625,l),
(707,1639,o),
(684,1646,o),
(659,1646,cs),
(474,1646,o),
(305,1350,o),
(277,1082,cs),
(273,1044,l),
(130,1014,l),
(127,978,l)
);
}
);
width = 790;
},
{
layerId = "C9B9556E-C2FD-4F62-BB40-44923C452C22";
shapes = (
{
closed = 1;
nodes = (
(308,978,l),
(207,-348,l),
(357,-348,l),
(463,978,l),
(734,978,l),
(741,1044,l),
(470,1044,l),
(481,1148,ls),
(515,1473,o),
(574,1555,o),
(655,1555,cs),
(709,1555,o),
(763,1530,o),
(802,1493,c),
(816,1625,l),
(798,1639,o),
(774,1646,o),
(747,1646,cs),
(538,1646,o),
(352,1355,o),
(323,1082,cs),
(319,1044,l),
(157,1014,l),
(154,978,l)
);
}
);
width = 900;
},
{
layerId = "AFA1064D-EFC9-4C9F-B9B0-9118E41D87C4";
shapes = (
{
closed = 1;
nodes = (
(299,978,l),
(172,-348,l),
(504,-348,l),
(633,978,l),
(935,978,l),
(940,1056,l),
(641,1056,l),
(651,1148,ls),
(675,1386,o),
(695,1560,o),
(793,1560,cs),
(860,1560,o),
(956,1483,o),
(1016,1380,c),
(1041,1625,l),
(1008,1637,o),
(961,1646,o),
(916,1646,cs),
(663,1646,o),
(388,1424,o),
(321,1097,cs),
(313,1058,l),
(135,1023,l),
(133,978,l)
);
}
);
width = 1098;
},
{
layerId = "2103F1D3-C390-4F79-A87D-298F85EA6916";
shapes = (
{
closed = 1;
nodes = (
(316,978,l),
(211,-348,l),
(361,-348,l),
(471,978,l),
(752,978,l),
(760,1044,l),
(479,1044,l),
(490,1148,ls),
(518,1411,o),
(567,1555,o),
(672,1555,cs),
(728,1555,o),
(783,1530,o),
(823,1493,c),
(838,1625,l),
(819,1639,o),
(794,1646,o),
(768,1646,cs),
(552,1646,o),
(361,1355,o),
(332,1082,cs),
(328,1044,l),
(159,1014,l),
(156,978,l)
);
}
);
width = 908;
},
{
layerId = "779F1615-9D1A-4778-9767-9A030AA58B6C";
shapes = (
{
closed = 1;
nodes = (
(343,990,l),
(218,-348,l),
(376,-348,l),
(505,990,l),
(853,990,l),
(861,1110,l),
(513,1110,l),
(529,1244,l),
(549,1436,o),
(632,1516,o),
(803,1516,cs),
(877,1516,o),
(946,1501,o),
(966,1488,c),
(986,1628,l),
(974,1635,o),
(916,1646,o),
(848,1646,cs),
(578,1646,o),
(393,1467,o),
(365,1188,c),
(355,1110,l),
(123,1062,l),
(117,990,l)
);
}
);
userData = {
com.schriftgestaltung.Glyphs.lastChange = "2019-04-25 21:50:43 +0000";
};
width = 1043;
},
{
layerId = "97BB7961-D669-43AB-8BBF-11FFD0C46A4B";
shapes = (
{
closed = 1;
nodes = (
(314,922,l),
(193,-348,l),
(533,-348,l),
(652,922,l),
(915,922,l),
(933,1109,l),
(674,1109,l),
(689,1245,l),
(694,1321,o),
(712,1426,o),
(839,1426,cs),
(887,1426,o),
(960,1410,o),
(998,1380,c),
(1023,1625,l),
(1010,1631,o),
(928,1646,o),
(849,1646,cs),
(602,1646,o),
(372,1493,o),
(345,1189,c),
(335,1109,l),
(123,1053,l),
(108,922,l)
);
}
);
width = 1080;
}
);
unicode = 402;
}
{
color = 1;
glyphname = Phook;
layers = (
{
layerId = UUID0;
shapes = (
{
alignment = -1;
pos = (152,0);
ref = _Phook.part;
},
{
pos = (-225,0);
ref = _hook.part;
}
);
width = 1407;
},
{
layerId = "DEBB1CE4-A72D-4960-969E-E04A036D2FA1";
shapes = (
{
alignment = -1;
pos = (232,0);
ref = _Phook.part;
},
{
pos = (-205,0);
ref = _hook.part;
}
);
width = 1577;
},
{
layerId = "0E4B6E2E-ECAB-4D06-9686-B0B40AA31834";
shapes = (
{
ref = _Phook.part;
}
);
width = 1374;
},
{
layerId = "EA2265BD-E890-48C4-9E90-A53076E780C5";
shapes = (
{
ref = _Phook.part;
}
);
width = 1531;
},
{
layerId = "779F1615-9D1A-4778-9767-9A030AA58B6C";
shapes = (
{
ref = _Phook.part;
}
);
width = 1531;
},
{
layerId = "97BB7961-D669-43AB-8BBF-11FFD0C46A4B";
shapes = (
{
ref = _Phook.part;
}
);
width = 1816;
},
{
layerId = "C9B9556E-C2FD-4F62-BB40-44923C452C22";
shapes = (
{
alignment = -1;
pos = (202,0);
ref = _Phook.part;
},
{
pos = (-225,0);
ref = _hook.part;
}
);
width = 1288;
},
{
layerId = "184155C8-9F61-4F1C-9784-DDA8EA717636";
shapes = (
{
alignment = -1;
pos = (313,0);
ref = _Phook.part;
},
{
pos = (-178,0);
ref = _hook.part;
}
);
width = 1629;
},
{
layerId = "E96AC896-F5DF-475B-BBD9-C7FEC6A86D0E";
shapes = (
{
ref = _Phook.part;
}
);
width = 1349;
},
{
layerId = "F2B10EEF-9DDC-48CA-970D-6B8C79870881";
shapes = (
{
ref = _Phook.part;
}
);
width = 1549;
},
{
background = {
shapes = (
{
closed = 1;
nodes = (
(364,36,l),
(364,0,l),
(862,0,l),
(862,36,l),
(664,68,l),
(664,637,l),
(702,630,o),
(829,624,o),
(897,624,cs),
(1263,624,o),
(1431,823,o),
(1431,1076,cs),
(1431,1339,o),
(1296,1502,o),
(925,1502,cs),
(792,1502,o),
(706,1486,o),
(587,1486,cs),
(504,1486,l),
(504,68,l)
);
},
{
closed = 1;
nodes = (
(664,1433,l),
(705,1433,o),
(820,1452,o),
(915,1452,cs),
(1204,1452,o),
(1265,1312,o),
(1265,1066,cs),
(1265,831,o),
(1169,675,o),
(890,675,cs),
(800,675,o),
(715,681,o),
(664,695,c)
);
},
{
closed = 1;
nodes = (
(504,1486,ls),
(168,1486,o),
(47,1276,o),
(47,1021,cs),
(47,957,o),
(51,917,o),
(58,900,c),
(225,900,l),
(123,1238,o),
(311,1433,o),
(504,1433,c),
(534,1433,l),
(550,1486,l)
);
}
);
};
layerId = "2103F1D3-C390-4F79-A87D-298F85EA6916";
shapes = (
{
ref = _Phook.part;
}
);
width = 1464;
},
{
background = {
shapes = (
{
closed = 1;
nodes = (
(421,37,l),
(421,0,l),
(1126,0,l),
(1126,38,l),
(954,72,l),
(955,516,l),
(972,514,o),
(1067,509,o),
(1124,509,cs),
(1511,509,o),
(1757,685,o),
(1757,1024,cs),
(1757,1309,o),
(1598,1500,o),
(1189,1497,cs),
(1015,1496,o),
(914,1486,o),
(802,1486,c),
(559,1486,l),
(559,73,l)
);
},
{
closed = 1;
nodes = (
(954,1430,l),
(984,1435,o),
(1020,1442,o),
(1092,1442,cs),
(1268,1442,o),
(1349,1241,o),
(1349,1017,cs),
(1349,711,o),
(1216,576,o),
(1084,576,cs),
(1023,576,o),
(977,579,o),
(954,585,c)
);
},
{
closed = 1;
nodes = (
(559,1486,ls),
(183,1486,o),
(42,1216,o),
(42,961,cs),
(42,897,o),
(48,857,o),
(59,840,c),
(417,840,l),
(270,1129,o),
(305,1431,o),
(538,1431,c),
(589,1431,l),
(636,1486,l)
);
}
);
};
layerId = "AFA1064D-EFC9-4C9F-B9B0-9118E41D87C4";
shapes = (
{
ref = _Phook.part;
}
);
width = 1781;
}
);
metricRight = P;
unicode = 420;
}
{
color = 8;
glyphname = yogh;
layers = (
{
background = {
shapes = (
{
closed = 1;
nodes = (
(436,-456,o),
(852,-276,o),
(852,120,cs),
(852,247,o),
(717,481,o),
(347,441,c),
(819,1036,ls),
(788,1110,ls),
(-55,1110,ls),
(-55,804,ls),
(53,804,ls),
(84,989,ls),
(640,1007,ls),
(508,886,ls),
(116,374,ls),
(162,318,ls),
(193,280,o),
(275,368,o),
(355,368,c),
(597,368,o),
(703,222,o),
(703,66,cs),
(703,-193,o),
(351,-360,o),
(77,-411,c),
(102,-491,l)
);
}
);
};
layerId = UUID0;
shapes = (
{
closed = 1;
nodes = (
(436,-445,o),
(852,-276,o),
(852,120,cs),
(852,241,o),
(784,466,o),
(498,473,c),
(651,524,o),
(806,660,o),
(806,835,cs),
(806,1013,o),
(677,1142,o),
(422,1142,cs),
(263,1142,o),
(162,1078,o),
(63,1071,c),
(62,795,l),
(154,795,l),
(206,955,l),
(233,998,o),
(318,1044,o),
(413,1044,cs),
(589,1044,o),
(625,939,o),
(625,825,cs),
(625,647,o),
(474,507,o),
(187,460,c),
(213,391,l),
(254,410,o),
(286,418,o),
(368,418,cs),
(614,418,o),
(703,254,o),
(703,96,cs),
(703,-193,o),
(428,-356,o),
(230,-418,c),
(265,-485,l)
);
}
);
width = 906;
},
{
background = {
shapes = (
{
pos = (-69,0);
ref = ezh;
}
);
};
layerId = "DEBB1CE4-A72D-4960-969E-E04A036D2FA1";
shapes = (
{
closed = 1;
nodes = (
(526,-502,o),
(970,-299,o),
(970,88,cs),
(970,237,o),
(875,388,o),
(584,403,c),
(741,480,o),
(914,630,o),
(914,802,cs),
(914,1004,o),
(788,1130,o),
(446,1130,cs),
(259,1130,o),
(127,1082,o),
(39,1076,c),
(38,719,l),
(217,719,l),
(266,926,l),
(301,1008,o),
(368,1014,o),
(436,1014,cs),
(509,1014,o),
(596,960,o),
(596,824,cs),
(596,616,o),
(544,516,o),
(218,352,c),
(244,282,l),
(274,300,o),
(332,317,o),
(375,317,cs),
(593,317,o),
(634,193,o),
(634,76,cs),
(634,-184,o),
(425,-329,o),
(201,-444,c),
(259,-546,l)
);
}
);
width = 1022;
},
{
background = {
shapes = (
{
pos = (7583,0);
ref = ezh;
}
);
};
layerId = "0E4B6E2E-ECAB-4D06-9686-B0B40AA31834";
shapes = (
{
closed = 1;
nodes = (
(429,-445,o),
(845,-276,o),
(845,120,cs),
(845,241,o),
(777,466,o),
(491,473,c),
(644,524,o),
(799,660,o),
(799,835,cs),
(799,1013,o),
(670,1142,o),
(415,1142,cs),
(256,1142,o),
(155,1078,o),
(56,1071,c),
(55,795,l),
(147,795,l),
(199,955,l),
(226,998,o),
(311,1044,o),
(406,1044,cs),
(582,1044,o),
(618,939,o),
(618,825,cs),
(618,647,o),
(467,507,o),
(180,460,c),
(206,391,l),
(247,410,o),
(279,418,o),
(361,418,cs),
(607,418,o),
(696,254,o),
(696,96,cs),
(696,-193,o),
(421,-356,o),
(223,-418,c),
(258,-485,l)
);
}
);
width = 899;
},
{
background = {
shapes = (
{
pos = (4410,0);
ref = ezh;
}
);
};
layerId = "EA2265BD-E890-48C4-9E90-A53076E780C5";
shapes = (
{
closed = 1;
nodes = (
(520,-502,o),
(964,-299,o),
(964,88,cs),
(964,237,o),
(869,388,o),
(578,403,c),
(735,480,o),
(908,630,o),
(908,802,cs),
(908,1004,o),
(782,1130,o),
(440,1130,cs),
(253,1130,o),
(121,1082,o),
(33,1076,c),
(32,719,l),
(211,719,l),
(260,926,l),
(295,1008,o),
(362,1014,o),
(430,1014,cs),
(503,1014,o),
(590,960,o),
(590,824,cs),
(590,616,o),
(538,516,o),
(212,352,c),
(238,282,l),
(268,300,o),
(326,317,o),
(369,317,cs),
(587,317,o),
(628,193,o),
(628,76,cs),
(628,-184,o),
(419,-329,o),
(195,-444,c),
(253,-546,l)
);
}
);
width = 1012;
},
{
background = {
shapes = (
{
pos = (7583,0);
ref = ezh;
}
);
};
layerId = "779F1615-9D1A-4778-9767-9A030AA58B6C";
shapes = (
{
closed = 1;
nodes = (
(429,-445,o),
(845,-276,o),
(845,120,cs),
(845,241,o),
(777,466,o),
(491,473,c),
(644,524,o),
(799,660,o),
(799,835,cs),
(799,1013,o),
(670,1142,o),
(415,1142,cs),
(256,1142,o),
(155,1078,o),
(56,1071,c),
(55,795,l),
(147,795,l),
(199,955,l),
(226,998,o),
(311,1044,o),
(406,1044,cs),
(582,1044,o),
(618,939,o),
(618,825,cs),
(618,647,o),
(467,507,o),
(180,460,c),
(206,391,l),
(247,410,o),
(279,418,o),
(361,418,cs),
(607,418,o),
(696,254,o),
(696,96,cs),
(696,-193,o),
(421,-356,o),
(223,-418,c),
(258,-485,l)
);
}
);
width = 903;
},
{
background = {
shapes = (
{
pos = (2325,0);
ref = ezh;
}
);
};
layerId = "97BB7961-D669-43AB-8BBF-11FFD0C46A4B";
shapes = (
{
closed = 1;
nodes = (
(505,-502,o),
(949,-299,o),
(949,88,cs),
(949,237,o),
(854,388,o),
(563,403,c),
(720,480,o),
(893,630,o),
(893,802,cs),
(893,1004,o),
(767,1130,o),
(425,1130,cs),
(238,1130,o),
(106,1082,o),
(18,1076,c),
(17,719,l),
(196,719,l),
(245,926,l),
(280,1008,o),
(347,1014,o),
(415,1014,cs),
(488,1014,o),
(575,960,o),
(575,824,cs),
(575,616,o),
(523,516,o),
(197,352,c),
(223,282,l),
(253,300,o),
(311,317,o),
(354,317,cs),
(572,317,o),
(613,193,o),
(613,76,cs),
(613,-184,o),
(404,-329,o),
(180,-444,c),
(238,-546,l)
);
}
);
width = 997;
},
{
background = {
shapes = (
{
pos = (-98,0);
ref = ezh;
}
);
};
layerId = "C9B9556E-C2FD-4F62-BB40-44923C452C22";
shapes = (
{
closed = 1;
nodes = (
(530,-393,o),
(839,-162,o),
(839,113,cs),
(839,315,o),
(706,442,o),
(461,455,c),
(623,488,o),
(771,618,o),
(771,772,cs),
(771,938,o),
(626,1042,o),
(388,1042,cs),
(234,1042,o),
(142,992,o),
(48,986,c),
(47,722,l),
(114,722,l),
(159,923,l),
(184,959,o),
(294,993,o),
(383,993,cs),
(543,993,o),
(615,901,o),
(615,751,cs),
(615,616,o),
(511,505,o),
(236,414,c),
(254,373,l),
(301,395,o),
(338,402,o),
(362,402,cs),
(601,402,o),
(687,267,o),
(687,99,cs),
(687,-142,o),
(433,-342,o),
(165,-389,c),
(178,-430,l)
);
}
);
width = 889;
},
{
background = {
shapes = (
{
pos = (-81,0);
ref = ezh;
}
);
};
layerId = "184155C8-9F61-4F1C-9784-DDA8EA717636";
shapes = (
{
closed = 1;
nodes = (
(610,-482,o),
(950,-207,o),
(950,64,cs),
(950,304,o),
(787,385,o),
(577,385,c),
(709,408,o),
(894,528,o),
(894,740,cs),
(894,949,o),
(723,1042,o),
(411,1042,cs),
(238,1042,o),
(186,1001,o),
(27,997,c),
(15,675,l),
(190,675,l),
(262,923,l),
(284,958,o),
(337,989,o),
(391,989,cs),
(481,989,o),
(562,925,o),
(562,709,cs),
(562,512,o),
(460,414,o),
(219,328,c),
(254,270,l),
(275,294,o),
(349,321,o),
(382,321,cs),
(518,321,o),
(600,206,o),
(600,60,cs),
(600,-207,o),
(429,-378,o),
(177,-491,c),
(208,-546,l)
);
}
);
width = 981;
},
{
background = {
shapes = (
{
pos = (3984,0);
ref = ezh;
}
);
};
layerId = "E96AC896-F5DF-475B-BBD9-C7FEC6A86D0E";
shapes = (
{
closed = 1;
nodes = (
(512,-393,o),
(821,-162,o),
(821,113,cs),
(821,315,o),
(688,442,o),
(443,455,c),
(605,488,o),
(753,618,o),
(753,772,cs),
(753,938,o),
(608,1042,o),
(370,1042,cs),
(216,1042,o),
(124,992,o),
(30,986,c),
(29,722,l),
(96,722,l),
(141,923,l),
(166,959,o),
(276,993,o),
(365,993,cs),
(525,993,o),
(597,901,o),
(597,751,cs),
(597,616,o),
(493,505,o),
(218,414,c),
(236,373,l),
(283,395,o),
(320,402,o),
(344,402,cs),
(583,402,o),
(669,267,o),
(669,99,cs),
(669,-142,o),
(415,-342,o),
(147,-389,c),
(160,-430,l)
);
}
);
width = 864;
},
{
background = {
shapes = (
{
pos = (1375,0);
ref = ezh;
}
);
};
layerId = "F2B10EEF-9DDC-48CA-970D-6B8C79870881";
shapes = (
{
closed = 1;
nodes = (
(605,-482,o),
(945,-207,o),
(945,64,cs),
(945,304,o),
(782,385,o),
(572,385,c),
(704,408,o),
(889,528,o),
(889,740,cs),
(889,949,o),
(718,1042,o),
(406,1042,cs),
(233,1042,o),
(181,1001,o),
(22,997,c),
(10,675,l),
(185,675,l),
(257,923,l),
(279,958,o),
(332,989,o),
(386,989,cs),
(476,989,o),
(557,925,o),
(557,709,cs),
(557,512,o),
(455,414,o),
(214,328,c),
(249,270,l),
(270,294,o),
(344,321,o),
(377,321,cs),
(513,321,o),
(595,206,o),
(595,60,cs),
(595,-207,o),
(424,-378,o),
(172,-491,c),
(203,-546,l)
);
}
);
width = 978;
},
{
background = {
shapes = (
{
pos = (6069,0);
ref = ezh;
}
);
};
layerId = "2103F1D3-C390-4F79-A87D-298F85EA6916";
shapes = (
{
closed = 1;
nodes = (
(527,-393,o),
(836,-162,o),
(836,113,cs),
(836,315,o),
(703,442,o),
(458,455,c),
(620,488,o),
(768,618,o),
(768,772,cs),
(768,938,o),
(623,1042,o),
(385,1042,cs),
(231,1042,o),
(139,992,o),
(45,986,c),
(44,722,l),
(111,722,l),
(156,923,l),
(181,959,o),
(291,993,o),
(380,993,cs),
(540,993,o),
(612,901,o),
(612,751,cs),
(612,616,o),
(508,505,o),
(233,414,c),
(251,373,l),
(298,395,o),
(335,402,o),
(359,402,cs),
(598,402,o),
(684,267,o),
(684,99,cs),
(684,-142,o),
(430,-342,o),
(162,-389,c),
(175,-430,l)
);
}
);
width = 876;
},
{
background = {
shapes = (
{
pos = (3043,0);
ref = ezh;
}
);
};
layerId = "AFA1064D-EFC9-4C9F-B9B0-9118E41D87C4";
shapes = (
{
closed = 1;
nodes = (
(617,-482,o),
(957,-207,o),
(957,64,cs),
(957,304,o),
(794,385,o),
(584,385,c),
(716,408,o),
(901,528,o),
(901,740,cs),
(901,949,o),
(730,1042,o),
(418,1042,cs),
(245,1042,o),
(193,1001,o),
(34,997,c),
(22,675,l),
(197,675,l),
(269,923,l),
(291,958,o),
(344,989,o),
(398,989,cs),
(488,989,o),
(569,925,o),
(569,709,cs),
(569,512,o),
(467,414,o),
(226,328,c),
(261,270,l),
(282,294,o),
(356,321,o),
(389,321,cs),
(525,321,o),
(607,206,o),
(607,60,cs),
(607,-207,o),
(436,-378,o),
(184,-491,c),
(215,-546,l)
);
}
);
width = 981;
}
);
metricLeft = z;
metricRight = o;
unicode = 541;
}
{
color = 2;
glyphname = ou;
layers = (
{
background = {
shapes = (
{
closed = 1;
nodes = (
(899,-22,o),
(1082,167,o),
(1082,427,cs),
(1082,652,o),
(961,802,o),
(775,867,c),
(944,929,o),
(1051,1045,o),
(1051,1245,cs),
(1051,1397,o),
(928,1573,o),
(704,1638,c),
(670,1558,l),
(831,1513,o),
(879,1362,o),
(879,1246,cs),
(879,1034,o),
(773,920,o),
(566,920,cs),
(359,920,o),
(253,1034,o),
(253,1246,cs),
(253,1362,o),
(301,1513,o),
(462,1558,c),
(428,1638,l),
(217,1588,o),
(81,1398,o),
(81,1245,cs),
(81,1045,o),
(197,929,o),
(357,866,c),
(176,810,o),
(54,652,o),
(54,453,cs),
(54,161,o),
(276,-22,o),
(578,-22,cs)
);
},
{
closed = 1;
nodes = (
(363,82,o),
(236,202,o),
(236,441,cs),
(236,657,o),
(329,816,o),
(566,816,cs),
(785,816,o),
(900,672,o),
(900,456,cs),
(900,229,o),
(782,82,o),
(568,82,cs)
);
}
);
};
layerId = UUID0;
shapes = (
{
closed = 1;
nodes = (
(860,-22,o),
(1082,161,o),
(1082,453,cs),
(1082,652,o),
(960,810,o),
(775,866,cs),
(939,929,o),
(1051,1045,o),
(1051,1245,cs),
(1051,1398,o),
(928,1573,o),
(704,1638,cs),
(670,1558,ls),
(831,1513,o),
(879,1362,o),
(879,1246,cs),
(879,1034,o),
(777,920,o),
(568,920,cs),
(363,920,o),
(257,1034,o),
(257,1246,cs),
(257,1362,o),
(305,1513,o),
(466,1558,cs),
(432,1638,ls),
(208,1573,o),
(85,1397,o),
(85,1245,cs),
(85,1045,o),
(192,929,o),
(361,867,cs),
(175,802,o),
(54,652,o),
(54,427,cs),
(54,167,o),
(237,-22,o),
(558,-22,cs)
);
},
{
closed = 1;
nodes = (
(354,82,o),
(236,229,o),
(236,456,cs),
(236,672,o),
(351,816,o),
(570,816,cs),
(807,816,o),
(900,657,o),
(900,441,cs),
(900,202,o),
(773,82,o),
(568,82,cs)
);
}
);
width = 1136;
},
{
background = {
shapes = (
{
closed = 1;
nodes = (
(927,-22,o),
(1132,163,o),
(1132,454,cs),
(1132,668,o),
(1012,826,o),
(780,877,c),
(975,906,o),
(1084,1010,o),
(1084,1230,cs),
(1084,1398,o),
(965,1581,o),
(697,1636,c),
(650,1537,l),
(723,1479,o),
(762,1373,o),
(762,1201,cs),
(762,1028,o),
(695,940,o),
(590,940,cs),
(488,940,o),
(418,1020,o),
(418,1201,cs),
(418,1388,o),
(462,1487,o),
(529,1537,c),
(483,1636,l),
(239,1581,o),
(96,1413,o),
(96,1241,cs),
(96,1010,o),
(196,915,o),
(396,883,c),
(165,822,o),
(52,676,o),
(52,456,cs),
(52,161,o),
(254,-22,o),
(592,-22,cs)
);
},
{
closed = 1;
nodes = (
(478,112,o),
(394,207,o),
(394,485,cs),
(394,696,o),
(467,806,o),
(596,806,cs),
(712,806,o),
(790,687,o),
(790,449,cs),
(790,216,o),
(704,112,o),
(592,112,cs)
);
}
);
};
layerId = "DEBB1CE4-A72D-4960-969E-E04A036D2FA1";
shapes = (
{
closed = 1;
nodes = (
(930,-22,o),
(1132,161,o),
(1132,456,cs),
(1132,676,o),
(1012,826,o),
(788,877,cs),
(975,906,o),
(1084,1010,o),
(1084,1241,cs),
(1084,1398,o),
(965,1581,o),
(697,1636,cs),
(651,1537,ls),
(723,1479,o),
(762,1373,o),
(762,1201,cs),
(762,1028,o),
(696,940,o),
(594,940,cs),
(489,940,o),
(422,1028,o),
(422,1201,cs),
(422,1373,o),
(461,1479,o),
(534,1537,cs),
(487,1636,ls),
(219,1581,o),
(100,1398,o),
(100,1230,cs),
(100,1010,o),
(209,906,o),
(404,877,cs),
(172,826,o),
(52,668,o),
(52,454,cs),
(52,163,o),
(257,-22,o),
(592,-22,cs)
);
},
{
closed = 1;
nodes = (
(480,112,o),
(394,216,o),
(394,449,cs),
(394,687,o),
(472,806,o),
(588,806,cs),
(717,806,o),
(790,696,o),
(790,485,cs),
(790,207,o),
(706,112,o),
(592,112,cs)
);
}
);
width = 1184;
},
{
layerId = "0E4B6E2E-ECAB-4D06-9686-B0B40AA31834";
shapes = (
{
closed = 1;
nodes = (
(756,-22,o),
(945,161,o),
(945,453,cs),
(945,652,o),
(840,810,o),
(676,866,c),
(820,929,o),
(916,1045,o),
(916,1245,cs),
(916,1397,o),
(811,1573,o),
(612,1638,c),
(582,1558,l),
(708,1513,o),
(748,1363,o),
(748,1246,cs),
(748,1034,o),
(665,920,o),
(500,920,cs),
(337,920,o),
(250,1034,o),
(250,1246,cs),
(250,1354,o),
(286,1511,o),
(417,1558,c),
(387,1638,l),
(188,1573,o),
(83,1397,o),
(83,1245,cs),
(83,1045,o),
(175,929,o),
(324,867,c),
(158,802,o),
(54,652,o),
(54,427,cs),
(54,167,o),
(215,-22,o),
(492,-22,cs)
);
},
{
closed = 1;
nodes = (
(329,82,o),
(231,229,o),
(231,456,cs),
(231,672,o),
(326,816,o),
(500,816,cs),
(690,816,o),
(767,657,o),
(767,441,cs),
(767,203,o),
(664,82,o),
(499,82,cs)
);
}
);
width = 999;
},
{
layerId = "EA2265BD-E890-48C4-9E90-A53076E780C5";
shapes = (
{
closed = 1;
nodes = (
(822,-22,o),
(991,161,o),
(991,456,cs),
(991,676,o),
(888,826,o),
(685,877,c),
(852,906,o),
(945,1010,o),
(945,1241,cs),
(945,1397,o),
(844,1581,o),
(601,1636,c),
(559,1537,l),
(596,1479,o),
(627,1374,o),
(627,1201,cs),
(627,1027,o),
(580,940,o),
(522,940,cs),
(458,940,o),
(411,1029,o),
(411,1201,cs),
(411,1366,o),
(440,1475,o),
(481,1537,c),
(438,1636,l),
(195,1581,o),
(94,1397,o),
(94,1230,cs),
(94,1011,o),
(188,906,o),
(363,877,c),
(151,826,o),
(48,668,o),
(48,454,cs),
(48,163,o),
(231,-22,o),
(522,-22,cs)
);
},
{
closed = 1;
nodes = (
(451,112,o),
(385,216,o),
(385,449,cs),
(385,685,o),
(442,806,o),
(514,806,cs),
(596,806,o),
(653,696,o),
(653,485,cs),
(653,208,o),
(593,112,o),
(519,112,cs)
);
}
);
width = 1039;
},
{
layerId = "779F1615-9D1A-4778-9767-9A030AA58B6C";
shapes = (
{
closed = 1;
nodes = (
(864,-22,o),
(1086,161,o),
(1086,453,cs),
(1086,652,o),
(964,810,o),
(779,866,cs),
(943,929,o),
(1055,1045,o),
(1055,1245,cs),
(1055,1398,o),
(932,1573,o),
(708,1638,cs),
(674,1558,ls),
(835,1513,o),
(883,1362,o),
(883,1246,cs),
(883,1034,o),
(781,920,o),
(572,920,cs),
(367,920,o),
(261,1034,o),
(261,1246,cs),
(261,1362,o),
(309,1513,o),
(470,1558,cs),
(436,1638,ls),
(212,1573,o),
(89,1397,o),
(89,1245,cs),
(89,1045,o),
(196,929,o),
(365,867,cs),
(179,802,o),
(58,652,o),
(58,427,cs),
(58,167,o),
(241,-22,o),
(562,-22,cs)
);
},
{
closed = 1;
nodes = (
(358,82,o),
(240,229,o),
(240,456,cs),
(240,672,o),
(355,816,o),
(574,816,cs),
(811,816,o),
(904,657,o),
(904,441,cs),
(904,202,o),
(777,82,o),
(572,82,cs)
);
}
);
width = 1144;
},
{
layerId = "97BB7961-D669-43AB-8BBF-11FFD0C46A4B";
shapes = (
{
closed = 1;
nodes = (
(926,-22,o),
(1128,161,o),
(1128,456,cs),
(1128,676,o),
(1008,826,o),
(784,877,cs),
(971,906,o),
(1080,1010,o),
(1080,1241,cs),
(1080,1398,o),
(961,1581,o),
(693,1636,cs),
(647,1537,ls),
(719,1479,o),
(758,1373,o),
(758,1201,cs),
(758,1028,o),
(692,940,o),
(590,940,cs),
(485,940,o),
(418,1028,o),
(418,1201,cs),
(418,1373,o),
(457,1479,o),
(530,1537,cs),
(483,1636,ls),
(215,1581,o),
(96,1398,o),
(96,1230,cs),
(96,1010,o),
(205,906,o),
(400,877,cs),
(168,826,o),
(48,668,o),
(48,454,cs),
(48,163,o),
(253,-22,o),
(588,-22,cs)
);
},
{
closed = 1;
nodes = (
(476,112,o),
(390,216,o),
(390,449,cs),
(390,687,o),
(468,806,o),
(584,806,cs),
(713,806,o),
(786,696,o),
(786,485,cs),
(786,207,o),
(702,112,o),
(588,112,cs)
);
}
);
width = 1176;
},
{
background = {
shapes = (
{
closed = 1;
nodes = (
(804,-22,o),
(982,155,o),
(982,424,cs),
(982,641,o),
(879,807,o),
(636,863,c),
(830,909,o),
(949,1047,o),
(949,1231,cs),
(949,1410,o),
(854,1563,o),
(637,1638,c),
(617,1596,l),
(753,1533,o),
(802,1415,o),
(802,1248,cs),
(802,1016,o),
(684,888,o),
(514,888,cs),
(324,888,o),
(230,1057,o),
(230,1244,cs),
(230,1415,o),
(280,1530,o),
(415,1596,c),
(395,1638,l),
(164,1566,o),
(83,1415,o),
(83,1244,cs),
(83,1047,o),
(203,912,o),
(394,863,c),
(143,809,o),
(50,648,o),
(50,430,cs),
(50,153,o),
(260,-22,o),
(516,-22,cs)
);
},
{
closed = 1;
nodes = (
(347,28,o),
(210,162,o),
(210,430,cs),
(210,668,o),
(293,838,o),
(516,838,cs),
(724,838,o),
(822,690,o),
(822,426,cs),
(822,154,o),
(681,28,o),
(516,28,cs)
);
}
);
};
layerId = "C9B9556E-C2FD-4F62-BB40-44923C452C22";
shapes = (
{
closed = 1;
nodes = (
(772,-22,o),
(982,153,o),
(982,430,cs),
(982,648,o),
(889,809,o),
(638,863,cs),
(829,912,o),
(949,1047,o),
(949,1244,cs),
(949,1411,o),
(855,1564,o),
(637,1638,cs),
(617,1596,ls),
(753,1534,o),
(802,1415,o),
(802,1244,cs),
(802,1057,o),
(708,888,o),
(518,888,cs),
(348,888,o),
(230,1016,o),
(230,1248,cs),
(230,1415,o),
(279,1533,o),
(415,1596,cs),
(395,1638,ls),
(178,1563,o),
(83,1410,o),
(83,1231,cs),
(83,1047,o),
(202,909,o),
(396,863,cs),
(153,807,o),
(50,641,o),
(50,424,cs),
(50,155,o),
(228,-22,o),
(516,-22,cs)
);
},
{
closed = 1;
nodes = (
(351,28,o),
(210,154,o),
(210,426,cs),
(210,690,o),
(308,838,o),
(516,838,cs),
(739,838,o),
(822,668,o),
(822,430,cs),
(822,162,o),
(685,28,o),
(516,28,cs)
);
}
);
width = 1032;
},
{
background = {
shapes = (
{
closed = 1;
nodes = (
(895,-22,o),
(1080,154,o),
(1080,438,cs),
(1080,650,o),
(973,825,o),
(729,867,c),
(960,915,o),
(1039,1044,o),
(1039,1232,cs),
(1039,1399,o),
(914,1593,o),
(632,1634,c),
(620,1592,l),
(686,1531,o),
(722,1389,o),
(722,1233,cs),
(722,972,o),
(646,895,o),
(555,895,cs),
(456,895,o),
(391,973,o),
(391,1233,cs),
(391,1389,o),
(418,1531,o),
(493,1592,c),
(477,1634,l),
(210,1600,o),
(74,1414,o),
(74,1253,cs),
(74,1044,o),
(161,905,o),
(384,867,c),
(149,827,o),
(31,677,o),
(31,438,cs),
(31,138,o),
(232,-22,o),
(557,-22,cs)
);
},
{
closed = 1;
nodes = (
(464,32,o),
(413,103,o),
(413,477,cs),
(413,750,o),
(459,846,o),
(557,846,cs),
(659,846,o),
(698,764,o),
(698,441,cs),
(698,98,o),
(637,32,o),
(557,32,cs)
);
}
);
};
layerId = "184155C8-9F61-4F1C-9784-DDA8EA717636";
shapes = (
{
closed = 1;
nodes = (
(879,-22,o),
(1080,138,o),
(1080,438,cs),
(1080,677,o),
(962,827,o),
(727,867,cs),
(960,915,o),
(1039,1044,o),
(1039,1232,cs),
(1039,1399,o),
(914,1593,o),
(634,1634,cs),
(618,1592,ls),
(686,1531,o),
(722,1389,o),
(722,1233,cs),
(722,973,o),
(646,895,o),
(556,895,cs),
(465,895,o),
(389,972,o),
(389,1233,cs),
(389,1389,o),
(425,1531,o),
(491,1592,cs),
(479,1634,ls),
(197,1593,o),
(72,1399,o),
(72,1232,cs),
(72,1044,o),
(151,915,o),
(382,867,cs),
(138,825,o),
(31,650,o),
(31,438,cs),
(31,154,o),
(216,-22,o),
(554,-22,cs)
);
},
{
closed = 1;
nodes = (
(474,32,o),
(413,98,o),
(413,441,cs),
(413,764,o),
(452,846,o),
(554,846,cs),
(652,846,o),
(698,750,o),
(698,477,cs),
(698,103,o),
(647,32,o),
(554,32,cs)
);
}
);
width = 1111;
},
{
layerId = "E96AC896-F5DF-475B-BBD9-C7FEC6A86D0E";
shapes = (
{
closed = 1;
nodes = (
(680,-22,o),
(860,153,o),
(860,430,cs),
(860,647,o),
(777,809,o),
(563,863,c),
(736,913,o),
(830,1051,o),
(830,1244,cs),
(830,1419,o),
(738,1567,o),
(550,1638,c),
(533,1596,l),
(641,1534,o),
(682,1415,o),
(682,1244,cs),
(682,1057,o),
(603,888,o),
(453,888,cs),
(317,888,o),
(221,1016,o),
(221,1248,cs),
(221,1408,o),
(258,1531,o),
(369,1596,c),
(353,1638,l),
(158,1563,o),
(72,1410,o),
(72,1231,cs),
(72,1054,o),
(163,911,o),
(341,863,c),
(132,807,o),
(43,640,o),
(43,424,cs),
(43,155,o),
(197,-22,o),
(451,-22,cs)
);
},
{
closed = 1;
nodes = (
(321,28,o),
(210,154,o),
(210,426,cs),
(210,689,o),
(286,838,o),
(451,838,cs),
(627,838,o),
(693,667,o),
(693,430,cs),
(693,163,o),
(587,28,o),
(451,28,cs)
);
}
);
width = 903;
},
{
layerId = "F2B10EEF-9DDC-48CA-970D-6B8C79870881";
shapes = (
{
closed = 1;
nodes = (
(796,-22,o),
(967,138,o),
(967,438,cs),
(967,676,o),
(859,827,o),
(661,867,c),
(866,914,o),
(929,1035,o),
(929,1232,cs),
(929,1402,o),
(810,1594,o),
(556,1634,c),
(543,1592,l),
(583,1531,o),
(611,1390,o),
(611,1233,cs),
(611,973,o),
(550,895,o),
(500,895,cs),
(443,895,o),
(389,973,o),
(389,1233,cs),
(389,1384,o),
(415,1528,o),
(454,1592,c),
(446,1634,l),
(186,1593,o),
(70,1399,o),
(70,1232,cs),
(70,1035,o),
(134,914,o),
(336,867,c),
(126,825,o),
(33,649,o),
(33,438,cs),
(33,154,o),
(194,-22,o),
(498,-22,cs)
);
},
{
closed = 1;
nodes = (
(452,32,o),
(422,100,o),
(422,441,cs),
(422,763,o),
(439,846,o),
(498,846,cs),
(549,846,o),
(578,748,o),
(578,477,cs),
(578,105,o),
(558,32,o),
(498,32,cs)
);
}
);
width = 1000;
},
{
layerId = "2103F1D3-C390-4F79-A87D-298F85EA6916";
shapes = (
{
closed = 1;
nodes = (
(762,-22,o),
(972,153,o),
(972,430,cs),
(972,648,o),
(879,809,o),
(628,863,cs),
(819,912,o),
(939,1047,o),
(939,1244,cs),
(939,1411,o),
(845,1564,o),
(627,1638,cs),
(607,1596,ls),
(743,1534,o),
(792,1415,o),
(792,1244,cs),
(792,1057,o),
(698,888,o),
(508,888,cs),
(338,888,o),
(220,1016,o),
(220,1248,cs),
(220,1415,o),
(269,1533,o),
(405,1596,cs),
(385,1638,ls),
(168,1563,o),
(73,1410,o),
(73,1231,cs),
(73,1047,o),
(192,909,o),
(386,863,cs),
(143,807,o),
(40,641,o),
(40,424,cs),
(40,155,o),
(218,-22,o),
(506,-22,cs)
);
},
{
closed = 1;
nodes = (
(341,28,o),
(200,154,o),
(200,426,cs),
(200,690,o),
(298,838,o),
(506,838,cs),
(729,838,o),
(812,668,o),
(812,430,cs),
(812,162,o),
(675,28,o),
(506,28,cs)
);
}
);
width = 1012;
},
{
layerId = "AFA1064D-EFC9-4C9F-B9B0-9118E41D87C4";
shapes = (
{
closed = 1;
nodes = (
(872,-22,o),
(1073,138,o),
(1073,438,cs),
(1073,677,o),
(955,827,o),
(720,867,cs),
(953,915,o),
(1032,1044,o),
(1032,1232,cs),
(1032,1399,o),
(907,1593,o),
(627,1634,cs),
(611,1592,ls),
(679,1531,o),
(715,1389,o),
(715,1233,cs),
(715,973,o),
(639,895,o),
(549,895,cs),
(458,895,o),
(382,972,o),
(382,1233,cs),
(382,1389,o),
(418,1531,o),
(484,1592,cs),
(472,1634,ls),
(190,1593,o),
(65,1399,o),
(65,1232,cs),
(65,1044,o),
(144,915,o),
(375,867,cs),
(131,825,o),
(24,650,o),
(24,438,cs),
(24,154,o),
(209,-22,o),
(547,-22,cs)
);
},
{
closed = 1;
nodes = (
(467,32,o),
(406,98,o),
(406,441,cs),
(406,764,o),
(445,846,o),
(547,846,cs),
(645,846,o),
(691,750,o),
(691,477,cs),
(691,103,o),
(640,32,o),
(547,32,cs)
);
}
);
width = 1097;
}
);
metricLeft = o;
metricRight = o;
unicode = 547;
}
{
color = 2;
glyphname = dtail;
layers = (
{
background = {
shapes = (
{
ref = d;
}
);
};
layerId = UUID0;
shapes = (
{
closed = 1;
nodes = (
(1242,-502,o),
(1270,-494,o),
(1294,-486,cs),
(1294,-322,ls),
(1276,-336,o),
(1210,-358,o),
(1146,-358,cs),
(1068,-358,o),
(1004,-328,o),
(1004,-112,cs),
(1004,1610,ls),
(966,1638,ls),
(962,1638,ls),
(634,1604,ls),
(634,1532,ls),
(842,1512,ls),
(842,1116,ls),
(782,1130,o),
(708,1140,o),
(630,1140,cs),
(278,1140,o),
(60,870,o),
(60,528,cs),
(60,152,o),
(270,-22,o),
(498,-22,cs),
(660,-22,o),
(780,60,o),
(850,138,cs),
(850,-62,ls),
(850,-344,o),
(1033,-502,o),
(1182,-502,cs)
);
},
{
closed = 1;
nodes = (
(386,104,o),
(232,232,o),
(236,556,cs),
(240,896,o),
(402,1040,o),
(616,1040,cs),
(718,1040,o),
(820,1008,o),
(842,972,cs),
(842,236,ls),
(798,178,o),
(690,104,o),
(564,104,cs)
);
}
);
width = 1175;
},
{
background = {
shapes = (
{
ref = d;
}
);
};
layerId = "DEBB1CE4-A72D-4960-969E-E04A036D2FA1";
shapes = (
{
closed = 1;
nodes = (
(1309,-508,o),
(1346,-503,o),
(1387,-491,cs),
(1387,-218,ls),
(1337,-251,o),
(1273,-266,o),
(1209,-266,cs),
(1138,-266,o),
(1102,-231,o),
(1102,-118,cs),
(1102,1592,ls),
(1040,1639,ls),
(1032,1639,ls),
(588,1600,ls),
(588,1473,ls),
(780,1444,ls),
(780,1126,ls),
(745,1134,o),
(704,1140,o),
(661,1140,cs),
(262,1140,o),
(60,852,o),
(60,529,cs),
(60,142,o),
(254,-22,o),
(494,-22,cs),
(622,-22,o),
(754,44,o),
(818,138,cs),
(818,-54,ls),
(818,-321,o),
(1047,-508,o),
(1264,-508,cs)
);
},
{
closed = 1;
nodes = (
(493,159,o),
(404,276,o),
(406,563,cs),
(409,893,o),
(517,1002,o),
(652,1002,cs),
(709,1002,o),
(763,983,o),
(780,960,cs),
(780,236,ls),
(751,199,o),
(695,159,o),
(613,159,cs)
);
}
);
width = 1253;
},
{
layerId = "0E4B6E2E-ECAB-4D06-9686-B0B40AA31834";
shapes = (
{
closed = 1;
nodes = (
(1080,-501,o),
(1107,-496,o),
(1137,-485,c),
(1137,-321,l),
(1118,-335,o),
(1061,-357,o),
(1006,-357,cs),
(940,-357,o),
(888,-327,o),
(888,-155,cs),
(888,1610,l),
(853,1638,l),
(849,1638,l),
(555,1604,l),
(555,1534,l),
(732,1514,l),
(732,1114,l),
(689,1131,o),
(628,1140,o),
(562,1140,cs),
(253,1140,o),
(67,875,o),
(67,527,cs),
(67,162,o),
(241,-22,o),
(465,-22,cs),
(626,-22,o),
(700,72,o),
(739,138,c),
(739,-98,ls),
(739,-343,o),
(903,-501,o),
(1040,-501,cs)
);
},
{
closed = 1;
nodes = (
(356,100,o),
(237,231,o),
(237,550,cs),
(237,896,o),
(370,1040,o),
(548,1040,cs),
(629,1040,o),
(714,1013,o),
(732,977,c),
(732,242,l),
(695,174,o),
(619,100,o),
(504,100,cs)
);
}
);
width = 1018;
},
{
layerId = "EA2265BD-E890-48C4-9E90-A53076E780C5";
shapes = (
{
closed = 1;
nodes = (
(1141,-508,o),
(1214,-504,o),
(1214,-491,cs),
(1221,-218,l),
(1165,-251,o),
(1110,-266,o),
(1055,-266,cs),
(996,-266,o),
(973,-231,o),
(973,-118,cs),
(974,1592,l),
(915,1639,l),
(907,1639,l),
(497,1600,l),
(497,1475,l),
(658,1446,l),
(658,1126,l),
(634,1134,o),
(606,1140,o),
(578,1140,cs),
(224,1140,o),
(54,852,o),
(54,529,cs),
(54,143,o),
(217,-22,o),
(426,-22,cs),
(529,-22,o),
(646,46,o),
(698,138,c),
(688,-49,ls),
(674,-313,o),
(903,-508,o),
(1108,-508,cs)
);
},
{
closed = 1;
nodes = (
(451,157,o),
(391,280,o),
(393,563,cs),
(395,893,o),
(475,1003,o),
(572,1003,cs),
(608,1003,o),
(645,984,o),
(658,960,c),
(658,236,l),
(638,200,o),
(602,157,o),
(541,157,cs)
);
}
);
width = 1092;
},
{
layerId = "779F1615-9D1A-4778-9767-9A030AA58B6C";
shapes = (
{
closed = 1;
nodes = (
(1247,-502,o),
(1275,-494,o),
(1299,-486,cs),
(1299,-322,ls),
(1281,-336,o),
(1215,-358,o),
(1151,-358,cs),
(1073,-358,o),
(1009,-328,o),
(1009,-112,cs),
(1009,1610,ls),
(971,1638,ls),
(967,1638,ls),
(639,1604,ls),
(639,1532,ls),
(847,1512,ls),
(847,1116,ls),
(787,1130,o),
(713,1140,o),
(635,1140,cs),
(283,1140,o),
(65,870,o),
(65,528,cs),
(65,152,o),
(275,-22,o),
(503,-22,cs),
(665,-22,o),
(785,60,o),
(855,138,cs),
(855,-62,ls),
(855,-344,o),
(1038,-502,o),
(1187,-502,cs)
);
},
{
closed = 1;
nodes = (
(391,104,o),
(237,232,o),
(241,556,cs),
(245,896,o),
(407,1040,o),
(621,1040,cs),
(723,1040,o),
(825,1008,o),
(847,972,cs),
(847,236,ls),
(803,178,o),
(695,104,o),
(569,104,cs)
);
}
);
width = 1280;
},
{
layerId = "97BB7961-D669-43AB-8BBF-11FFD0C46A4B";
shapes = (
{
closed = 1;
nodes = (
(1304,-508,o),
(1341,-503,o),
(1382,-491,cs),
(1382,-218,ls),
(1332,-251,o),
(1268,-266,o),
(1204,-266,cs),
(1133,-266,o),
(1097,-231,o),
(1097,-118,cs),
(1097,1592,ls),
(1035,1639,ls),
(1027,1639,ls),
(583,1600,ls),
(583,1473,ls),
(775,1444,ls),
(775,1126,ls),
(740,1134,o),
(699,1140,o),
(656,1140,cs),
(257,1140,o),
(55,852,o),
(55,529,cs),
(55,142,o),
(249,-22,o),
(489,-22,cs),
(617,-22,o),
(749,44,o),
(813,138,cs),
(813,-54,ls),
(813,-321,o),
(1042,-508,o),
(1259,-508,cs)
);
},
{
closed = 1;
nodes = (
(488,159,o),
(399,276,o),
(401,563,cs),
(404,893,o),
(512,1002,o),
(647,1002,cs),
(704,1002,o),
(758,983,o),
(775,960,cs),
(775,236,ls),
(746,199,o),
(690,159,o),
(608,159,cs)
);
}
);
width = 1323;
},
{
background = {
shapes = (
{
ref = d;
}
);
};
layerId = "C9B9556E-C2FD-4F62-BB40-44923C452C22";
shapes = (
{
closed = 1;
nodes = (
(1108,-506,o),
(1143,-498,o),
(1167,-490,cs),
(1167,-378,ls),
(1123,-392,o),
(1064,-399,o),
(1005,-399,cs),
(922,-399,o),
(884,-363,o),
(884,-244,cs),
(884,1625,ls),
(870,1638,ls),
(828,1638,ls),
(608,1606,ls),
(608,1579,ls),
(745,1560,ls),
(745,984,ls),
(709,1008,o),
(628,1038,o),
(525,1038,cs),
(256,1038,o),
(42,798,o),
(42,469,cs),
(42,159,o),
(183,-22,o),
(428,-22,cs),
(607,-22,o),
(714,100,o),
(745,153,cs),
(745,-54,ls),
(745,-344,o),
(905,-506,o),
(1079,-506,cs)
);
},
{
closed = 1;
nodes = (
(321,46,o),
(209,188,o),
(209,484,cs),
(209,812,o),
(323,988,o),
(538,988,cs),
(651,988,o),
(717,936,o),
(745,900,cs),
(745,186,ls),
(700,136,o),
(601,46,o),
(468,46,cs)
);
}
);
width = 1004;
},
{
background = {
shapes = (
{
ref = d;
}
);
};
layerId = "184155C8-9F61-4F1C-9784-DDA8EA717636";
shapes = (
{
closed = 1;
nodes = (
(1255,-500,o),
(1295,-494,o),
(1312,-483,cs),
(1312,-235,ls),
(1263,-267,o),
(1194,-317,o),
(1134,-317,cs),
(1079,-317,o),
(1041,-281,o),
(1041,-113,cs),
(1041,1608,ls),
(1018,1634,ls),
(958,1634,ls),
(566,1539,ls),
(566,1510,ls),
(707,1483,ls),
(707,997,ls),
(677,1022,o),
(605,1042,o),
(530,1042,cs),
(281,1042,o),
(40,879,o),
(40,456,cs),
(40,131,o),
(235,-23,o),
(430,-23,cs),
(575,-23,o),
(679,60,o),
(711,145,cs),
(711,-30,ls),
(711,-312,o),
(956,-500,o),
(1191,-500,cs)
);
},
{
closed = 1;
nodes = (
(493,114,o),
(413,197,o),
(413,508,cs),
(413,817,o),
(454,979,o),
(588,979,cs),
(640,979,o),
(684,953,o),
(707,903,cs),
(707,185,ls),
(688,148,o),
(645,114,o),
(583,114,cs)
);
}
);
width = 1135;
},
{
layerId = "E96AC896-F5DF-475B-BBD9-C7FEC6A86D0E";
shapes = (
{
closed = 1;
nodes = (
(997,-506,o),
(1028,-498,o),
(1048,-490,c),
(1048,-378,l),
(1009,-392,o),
(957,-399,o),
(906,-399,cs),
(839,-399,o),
(806,-363,o),
(806,-244,cs),
(806,1625,l),
(790,1638,l),
(729,1638,l),
(523,1606,l),
(523,1579,l),
(671,1560,l),
(671,984,l),
(640,1008,o),
(564,1039,o),
(482,1039,cs),
(218,1039,o),
(43,811,o),
(43,489,cs),
(43,160,o),
(194,-20,o),
(413,-20,cs),
(549,-20,o),
(636,99,o),
(674,168,c),
(674,-54,ls),
(674,-343,o),
(810,-506,o),
(968,-506,cs)
);
},
{
closed = 1;
nodes = (
(280,56,o),
(189,213,o),
(189,494,cs),
(189,815,o),
(302,989,o),
(475,989,cs),
(563,989,o),
(633,939,o),
(670,878,c),
(670,199,l),
(632,159,o),
(565,56,o),
(432,56,cs)
);
}
);
width = 907;
},
{
layerId = "F2B10EEF-9DDC-48CA-970D-6B8C79870881";
shapes = (
{
closed = 1;
nodes = (
(1104,-500,o),
(1140,-494,o),
(1153,-483,c),
(1153,-268,l),
(1112,-300,o),
(1069,-338,o),
(1005,-338,cs),
(961,-338,o),
(922,-303,o),
(922,-134,cs),
(922,1607,l),
(904,1634,l),
(851,1634,l),
(498,1519,l),
(498,1480,l),
(607,1433,l),
(607,1026,l),
(595,1033,o),
(576,1042,o),
(500,1042,cs),
(246,1042,o),
(42,841,o),
(42,496,cs),
(42,104,o),
(208,-23,o),
(353,-24,cs),
(500,-25,o),
(597,66,o),
(610,124,c),
(610,-30,ls),
(610,-318,o),
(821,-500,o),
(1040,-500,cs)
);
},
{
closed = 1;
nodes = (
(450,120,o),
(389,199,o),
(389,516,cs),
(389,793,o),
(413,977,o),
(517,977,cs),
(559,977,o),
(589,949,o),
(608,902,c),
(608,201,l),
(600,174,o),
(572,120,o),
(517,120,cs)
);
}
);
width = 1001;
},
{
layerId = "2103F1D3-C390-4F79-A87D-298F85EA6916";
shapes = (
{
closed = 1;
nodes = (
(1106,-506,o),
(1141,-498,o),
(1165,-490,cs),
(1165,-378,ls),
(1121,-392,o),
(1062,-399,o),
(1003,-399,cs),
(920,-399,o),
(882,-363,o),
(882,-244,cs),
(882,1625,ls),
(868,1638,ls),
(826,1638,ls),
(606,1606,ls),
(606,1579,ls),
(743,1560,ls),
(743,984,ls),
(707,1008,o),
(626,1038,o),
(523,1038,cs),
(254,1038,o),
(40,798,o),
(40,469,cs),
(40,159,o),
(181,-22,o),
(426,-22,cs),
(605,-22,o),
(712,100,o),
(743,153,cs),
(743,-54,ls),
(743,-344,o),
(903,-506,o),
(1077,-506,cs)
);
},
{
closed = 1;
nodes = (
(319,46,o),
(207,188,o),
(207,484,cs),
(207,812,o),
(321,988,o),
(536,988,cs),
(649,988,o),
(715,936,o),
(743,900,cs),
(743,186,ls),
(698,136,o),
(599,46,o),
(466,46,cs)
);
}
);
width = 1050;
},
{
layerId = "AFA1064D-EFC9-4C9F-B9B0-9118E41D87C4";
shapes = (
{
closed = 1;
nodes = (
(1250,-500,o),
(1290,-494,o),
(1307,-483,cs),
(1307,-235,ls),
(1258,-267,o),
(1189,-317,o),
(1129,-317,cs),
(1074,-317,o),
(1036,-281,o),
(1036,-113,cs),
(1036,1608,ls),
(1013,1634,ls),
(953,1634,ls),
(561,1539,ls),
(561,1510,ls),
(702,1483,ls),
(702,997,ls),
(672,1022,o),
(600,1042,o),
(525,1042,cs),
(276,1042,o),
(35,879,o),
(35,456,cs),
(35,131,o),
(230,-23,o),
(425,-23,cs),
(570,-23,o),
(674,60,o),
(706,145,cs),
(706,-30,ls),
(706,-312,o),
(951,-500,o),
(1186,-500,cs)
);
},
{
closed = 1;
nodes = (
(488,114,o),
(408,197,o),
(408,508,cs),
(408,817,o),
(449,979,o),
(583,979,cs),
(635,979,o),
(679,953,o),
(702,903,cs),
(702,185,ls),
(683,148,o),
(640,114,o),
(578,114,cs)
);
}
);
width = 1186;
}
);
metricLeft = d;
metricWidth = d;
unicode = 598;
}
{
category = Letter;
glyphname = schwa;
kernLeft = o;
kernRight = o;
layers = (
{
layerId = UUID0;
shapes = (
{
closed = 1;
nodes = (
(323,1132,o),
(161,1068,o),
(85,990,c),
(117,916,l),
(179,970,o),
(311,1018,o),
(425,1018,cs),
(663,1018,o),
(787,812,o),
(787,542,c),
(75,542,l),
(65,498,o),
(63,442,o),
(63,366,c),
(73,108,o),
(211,-30,o),
(447,-30,cs),
(741,-30,o),
(959,206,o),
(959,550,cs),
(959,892,o),
(793,1132,o),
(477,1132,cs)
);
},
{
closed = 1;
nodes = (
(767,170,o),
(647,72,o),
(487,72,cs),
(309,72,o),
(239,196,o),
(237,360,cs),
(237,370,o),
(239,420,o),
(243,448,c),
(785,448,l)
);
}
);
width = 1018;
},
{
layerId = "DEBB1CE4-A72D-4960-969E-E04A036D2FA1";
shapes = (
{
closed = 1;
nodes = (
(320,1134,o),
(137,1037,o),
(77,971,c),
(133,850,l),
(193,888,o),
(313,933,o),
(419,933,cs),
(597,933,o),
(693,810,o),
(707,584,c),
(80,584,l),
(69,533,o),
(63,469,o),
(63,378,c),
(68,123,o),
(215,-28,o),
(498,-28,cs),
(829,-28,o),
(1046,186,o),
(1046,556,cs),
(1046,895,o),
(892,1134,o),
(509,1134,cs)
);
},
{
closed = 1;
nodes = (
(703,172,o),
(630,111,o),
(528,111,cs),
(415,111,o),
(378,211,o),
(378,368,cs),
(378,396,o),
(380,423,o),
(381,451,c),
(709,451,l)
);
}
);
width = 1105;
},
{
layerId = "184155C8-9F61-4F1C-9784-DDA8EA717636";
shapes = (
{
closed = 1;
nodes = (
(273,1035,o),
(106,946,o),
(51,885,c),
(77,829,l),
(133,872,o),
(241,895,o),
(312,895,cs),
(483,895,o),
(575,808,o),
(585,531,c),
(36,531,l),
(26,503,o),
(20,438,o),
(20,336,c),
(24,98,o),
(177,-31,o),
(435,-31,cs),
(738,-31,o),
(946,183,o),
(946,526,cs),
(946,839,o),
(796,1035,o),
(446,1035,cs)
);
},
{
closed = 1;
nodes = (
(595,138,o),
(522,25,o),
(455,25,cs),
(380,25,o),
(368,123,o),
(368,322,cs),
(368,350,o),
(370,434,o),
(370,463,c),
(587,484,l)
);
}
);
width = 966;
},
{
layerId = "EA2265BD-E890-48C4-9E90-A53076E780C5";
shapes = (
{
closed = 1;
nodes = (
(263,1134,o),
(100,1038,o),
(53,972,c),
(107,852,l),
(157,890,o),
(258,935,o),
(347,935,cs),
(486,935,o),
(567,812,o),
(583,583,c),
(58,583,l),
(49,532,o),
(42,473,o),
(42,378,c),
(46,117,o),
(179,-28,o),
(429,-28,cs),
(723,-28,o),
(909,188,o),
(909,556,cs),
(909,895,o),
(779,1134,o),
(434,1134,cs)
);
},
{
closed = 1;
nodes = (
(583,172,o),
(526,110,o),
(452,110,cs),
(371,110,o),
(348,211,o),
(348,368,cs),
(348,396,o),
(349,423,o),
(349,451,c),
(586,451,l)
);
}
);
width = 955;
},
{
layerId = "0E4B6E2E-ECAB-4D06-9686-B0B40AA31834";
shapes = (
{
closed = 1;
nodes = (
(290,1132,o),
(163,1069,o),
(100,991,c),
(130,918,l),
(182,972,o),
(289,1020,o),
(406,1020,cs),
(605,1020,o),
(698,832,o),
(700,541,c),
(78,541,l),
(70,497,o),
(67,449,o),
(67,366,c),
(76,105,o),
(211,-30,o),
(417,-30,cs),
(674,-30,o),
(871,208,o),
(871,550,cs),
(871,892,o),
(723,1132,o),
(445,1132,cs)
);
},
{
closed = 1;
nodes = (
(684,170,o),
(582,71,o),
(430,71,cs),
(303,71,o),
(232,196,o),
(232,360,cs),
(232,388,o),
(233,413,o),
(236,448,c),
(699,448,l)
);
}
);
width = 938;
},
{
layerId = "F2B10EEF-9DDC-48CA-970D-6B8C79870881";
shapes = (
{
closed = 1;
nodes = (
(250,1034,o),
(106,951,o),
(58,885,c),
(80,826,l),
(128,871,o),
(212,902,o),
(267,902,cs),
(408,902,o),
(501,803,o),
(508,508,c),
(44,508,l),
(36,480,o),
(30,426,o),
(30,334,c),
(33,108,o),
(168,-32,o),
(395,-32,cs),
(659,-32,o),
(847,171,o),
(847,500,cs),
(847,817,o),
(707,1034,o),
(408,1034,cs)
);
},
{
closed = 1;
nodes = (
(510,85,o),
(470,23,o),
(410,23,cs),
(356,23,o),
(334,90,o),
(334,313,cs),
(334,338,o),
(335,414,o),
(335,441,c),
(510,452,l)
);
}
);
width = 877;
},
{
layerId = "E96AC896-F5DF-475B-BBD9-C7FEC6A86D0E";
shapes = (
{
closed = 1;
nodes = (
(249,1034,o),
(129,979,o),
(69,910,c),
(92,872,l),
(144,923,o),
(235,968,o),
(342,968,cs),
(532,968,o),
(613,767,o),
(615,493,c),
(50,493,l),
(43,461,o),
(39,430,o),
(40,346,cs),
(43,107,o),
(183,-22,o),
(366,-22,cs),
(574,-22,o),
(761,164,o),
(761,503,cs),
(761,810,o),
(633,1034,o),
(365,1034,cs)
);
},
{
closed = 1;
nodes = (
(614,156,o),
(515,25,o),
(365,25,cs),
(241,25,o),
(179,146,o),
(179,348,cs),
(179,381,o),
(180,408,o),
(183,433,c),
(615,446,l)
);
}
);
width = 805;
},
{
layerId = "C9B9556E-C2FD-4F62-BB40-44923C452C22";
shapes = (
{
closed = 1;
nodes = (
(278,1034,o),
(153,978,o),
(81,908,c),
(102,868,l),
(161,917,o),
(271,967,o),
(386,967,cs),
(612,967,o),
(688,720,o),
(688,493,c),
(48,493,l),
(42,460,o),
(37,423,o),
(38,344,cs),
(41,105,o),
(184,-22,o),
(407,-22,cs),
(615,-22,o),
(851,171,o),
(851,527,cs),
(851,841,o),
(682,1034,o),
(404,1034,cs)
);
},
{
closed = 1;
nodes = (
(687,251,o),
(606,28,o),
(402,28,cs),
(251,28,o),
(185,145,o),
(185,346,cs),
(185,374,o),
(185,401,o),
(190,431,c),
(687,449,l)
);
}
);
width = 896;
},
{
layerId = "AFA1064D-EFC9-4C9F-B9B0-9118E41D87C4";
shapes = (
{
closed = 1;
nodes = (
(304,1034,o),
(120,945,o),
(59,884,c),
(88,828,l),
(149,871,o),
(259,899,o),
(337,899,cs),
(526,899,o),
(642,785,o),
(653,508,c),
(42,508,l),
(31,483,o),
(25,426,o),
(25,335,c),
(29,97,o),
(198,-32,o),
(483,-32,cs),
(817,-32,o),
(1047,172,o),
(1047,515,cs),
(1047,828,o),
(881,1034,o),
(495,1034,cs)
);
},
{
closed = 1;
nodes = (
(645,111,o),
(598,23,o),
(505,23,cs),
(422,23,o),
(409,121,o),
(409,321,cs),
(409,347,o),
(411,419,o),
(411,445,c),
(656,458,l)
);
}
);
width = 1077;
},
{
layerId = "2103F1D3-C390-4F79-A87D-298F85EA6916";
shapes = (
{
closed = 1;
nodes = (
(310,1034,o),
(168,978,o),
(96,908,c),
(117,868,l),
(176,917,o),
(303,967,o),
(408,967,cs),
(664,967,o),
(748,720,o),
(748,493,c),
(50,493,l),
(44,460,o),
(39,423,o),
(40,354,cs),
(43,105,o),
(207,-27,o),
(433,-27,cs),
(661,-27,o),
(906,181,o),
(906,527,cs),
(906,831,o),
(734,1034,o),
(426,1034,cs)
);
},
{
closed = 1;
nodes = (
(747,251,o),
(651,23,o),
(437,23,cs),
(286,23,o),
(192,145,o),
(192,346,cs),
(192,374,o),
(192,401,o),
(197,431,c),
(747,449,l)
);
}
);
width = 946;
},
{
layerId = "779F1615-9D1A-4778-9767-9A030AA58B6C";
shapes = (
{
closed = 1;
nodes = (
(344,1132,o),
(169,1068,o),
(87,990,c),
(121,916,l),
(188,970,o),
(331,1018,o),
(455,1018,cs),
(712,1018,o),
(849,812,o),
(849,542,c),
(76,542,l),
(65,498,o),
(63,442,o),
(63,366,c),
(74,108,o),
(223,-30,o),
(478,-30,cs),
(797,-30,o),
(1040,206,o),
(1040,550,cs),
(1040,892,o),
(853,1132,o),
(511,1132,cs)
);
},
{
closed = 1;
nodes = (
(826,170,o),
(701,72,o),
(521,72,cs),
(320,72,o),
(239,196,o),
(239,360,cs),
(239,370,o),
(241,420,o),
(246,448,c),
(846,448,l)
);
}
);
userData = {
com.schriftgestaltung.Glyphs.lastChange = "2019-04-25 21:50:43 +0000";
};
width = 1099;
},
{
layerId = "97BB7961-D669-43AB-8BBF-11FFD0C46A4B";
shapes = (
{
closed = 1;
nodes = (
(318,1134,o),
(149,1037,o),
(88,971,c),
(145,850,l),
(206,888,o),
(301,937,o),
(426,937,cs),
(635,937,o),
(728,790,o),
(730,584,c),
(68,584,l),
(56,533,o),
(50,469,o),
(50,378,c),
(55,123,o),
(218,-28,o),
(506,-28,cs),
(852,-28,o),
(1113,162,o),
(1114,556,cs),
(1115,925,o),
(896,1134,o),
(552,1134,cs)
);
},
{
closed = 1;
nodes = (
(726,172,o),
(626,107,o),
(548,107,cs),
(440,107,o),
(404,207,o),
(404,364,cs),
(404,392,o),
(406,423,o),
(407,451,c),
(732,451,l)
);
}
);
width = 1162;
}
);
subCategory = Lowercase;
unicode = 601;
}
{
color = 2;
glyphname = nhookleft;
layers = (
{
background = {
shapes = (
{
pos = (29,0);
ref = n;
}
);
};
layerId = UUID0;
shapes = (
{
closed = 1;
nodes = (
(292,-474,o),
(406,-326,o),
(406,6,cs),
(410,878,ls),
(492,942,o),
(630,1012,o),
(744,1012,cs),
(938,1012,o),
(970,900,o),
(970,668,cs),
(970,100,ls),
(836,86,ls),
(836,0,ls),
(1282,0,ls),
(1282,86,ls),
(1132,100,ls),
(1132,666,ls),
(1132,988,o),
(1072,1136,o),
(812,1136,cs),
(662,1136,o),
(478,1040,o),
(390,964,cs),
(391,1015,l),
(392,1102,ls),
(354,1134,ls),
(348,1134,ls),
(94,1102,ls),
(94,1012,ls),
(248,978,ls),
(248,44,ls),
(248,-172,o),
(214,-344,o),
(92,-382,cs),
(44,-398,o),
(-2,-404,o),
(-22,-402,cs),
(-14,-484,ls),
(-2,-492,o),
(80,-494,o),
(100,-492,cs)
);
}
);
width = 1329;
},
{
background = {
shapes = (
{
pos = (30,0);
ref = n;
}
);
};
layerId = "DEBB1CE4-A72D-4960-969E-E04A036D2FA1";
shapes = (
{
closed = 1;
nodes = (
(290,-483,o),
(556,-313,o),
(556,19,cs),
(557,860,ls),
(602,895,o),
(679,946,o),
(765,946,cs),
(884,946,o),
(933,881,o),
(933,696,cs),
(933,150,ls),
(836,132,ls),
(836,0,ls),
(1380,0,ls),
(1380,133,ls),
(1268,150,ls),
(1268,705,ls),
(1268,1019,o),
(1164,1135,o),
(928,1135,cs),
(760,1135,o),
(609,1055,o),
(525,976,cs),
(526,1030,l),
(527,1096,ls),
(474,1138,ls),
(468,1138,ls),
(105,1095,ls),
(105,938,ls),
(223,901,ls),
(222,84,ls),
(222,-142,o),
(184,-282,o),
(84,-329,cs),
(43,-349,o),
(2,-352,o),
(-15,-352,cs),
(0,-478,ls),
(18,-485,o),
(73,-487,o),
(124,-486,cs)
);
}
);
width = 1405;
},
{
background = {
shapes = (
{
pos = (-12,0);
ref = n;
}
);
};
layerId = "0E4B6E2E-ECAB-4D06-9686-B0B40AA31834";
shapes = (
{
closed = 1;
nodes = (
(251,-468,o),
(365,-320,o),
(365,12,cs),
(367,878,l),
(432,942,o),
(545,1014,o),
(641,1014,cs),
(820,1014,o),
(827,857,o),
(827,671,cs),
(827,99,l),
(716,85,l),
(716,0,l),
(1110,0,l),
(1110,85,l),
(985,99,l),
(985,665,ls),
(985,930,o),
(958,1136,o),
(700,1136,cs),
(578,1136,o),
(423,1041,o),
(348,960,c),
(350,1014,l),
(350,1102,l),
(316,1134,l),
(311,1134,l),
(81,1102,l),
(81,1014,l),
(210,980,l),
(210,50,ls),
(210,-166,o),
(173,-338,o),
(51,-376,cs),
(3,-392,o),
(-43,-398,o),
(-63,-396,c),
(-55,-478,l),
(-43,-486,o),
(39,-488,o),
(59,-486,cs)
);
}
);
width = 1146;
},
{
background = {
shapes = (
{
pos = (23,0);
ref = n;
}
);
};
layerId = "EA2265BD-E890-48C4-9E90-A53076E780C5";
shapes = (
{
closed = 1;
nodes = (
(283,-481,o),
(536,-313,o),
(527,19,c),
(527,860,l),
(562,898,o),
(607,948,o),
(681,948,cs),
(778,948,o),
(795,867,o),
(795,685,cs),
(794,150,l),
(711,131,l),
(711,0,l),
(1196,0,l),
(1196,132,l),
(1109,150,l),
(1109,766,ls),
(1109,1011,o),
(1038,1135,o),
(832,1135,cs),
(682,1135,o),
(582,1053,o),
(512,976,c),
(514,1023,l),
(514,1096,l),
(465,1138,l),
(460,1138,l),
(121,1095,l),
(121,940,l),
(214,903,l),
(214,84,ls),
(214,-142,o),
(177,-282,o),
(77,-329,cs),
(36,-349,o),
(-5,-352,o),
(-22,-352,c),
(-7,-478,l),
(11,-485,o),
(86,-487,o),
(117,-486,cs)
);
}
);
width = 1227;
},
{
background = {
shapes = (
{
pos = (35,0);
ref = n;
}
);
};
layerId = "779F1615-9D1A-4778-9767-9A030AA58B6C";
shapes = (
{
closed = 1;
nodes = (
(298,-474,o),
(412,-326,o),
(412,6,cs),
(416,878,ls),
(498,942,o),
(636,1012,o),
(750,1012,cs),
(944,1012,o),
(976,900,o),
(976,668,cs),
(976,100,ls),
(842,86,ls),
(842,0,ls),
(1288,0,ls),
(1288,86,ls),
(1138,100,ls),
(1138,666,ls),
(1138,988,o),
(1078,1136,o),
(818,1136,cs),
(668,1136,o),
(484,1040,o),
(396,964,cs),
(397,1015,l),
(398,1102,ls),
(360,1134,ls),
(354,1134,ls),
(100,1102,ls),
(100,1012,ls),
(254,978,ls),
(254,44,ls),
(254,-172,o),
(220,-344,o),
(98,-382,cs),
(50,-398,o),
(4,-404,o),
(-16,-402,cs),
(-8,-484,ls),
(4,-492,o),
(86,-494,o),
(106,-492,cs)
);
}
);
width = 1328;
},
{
background = {
shapes = (
{
pos = (51,0);
ref = n;
}
);
};
layerId = "97BB7961-D669-43AB-8BBF-11FFD0C46A4B";
shapes = (
{
closed = 1;
nodes = (
(311,-483,o),
(577,-313,o),
(577,19,cs),
(578,860,ls),
(623,895,o),
(700,946,o),
(786,946,cs),
(905,946,o),
(954,881,o),
(954,696,cs),
(954,150,ls),
(857,132,ls),
(857,0,ls),
(1401,0,ls),
(1401,133,ls),
(1289,150,ls),
(1289,705,ls),
(1289,1019,o),
(1185,1135,o),
(949,1135,cs),
(781,1135,o),
(630,1055,o),
(546,976,cs),
(547,1028,l),
(548,1096,ls),
(495,1138,ls),
(489,1138,ls),
(126,1095,ls),
(126,938,ls),
(244,901,ls),
(243,84,ls),
(243,-142,o),
(205,-282,o),
(105,-329,cs),
(64,-349,o),
(23,-352,o),
(6,-352,cs),
(21,-478,ls),
(39,-485,o),
(94,-487,o),
(145,-486,cs)
);
}
);
width = 1410;
},
{
background = {
shapes = (
{
pos = (18,0);
ref = n;
}
);
};
layerId = "C9B9556E-C2FD-4F62-BB40-44923C452C22";
shapes = (
{
closed = 1;
nodes = (
(173,-479,o),
(305,-292,o),
(305,-61,cs),
(306,806,ls),
(405,888,o),
(482,931,o),
(615,931,cs),
(779,931,o),
(799,801,o),
(799,620,cs),
(799,67,ls),
(676,36,ls),
(676,0,ls),
(1056,0,ls),
(1056,36,ls),
(941,67,ls),
(941,627,ls),
(941,854,o),
(891,1027,o),
(658,1027,cs),
(502,1027,o),
(373,921,o),
(306,835,cs),
(306,908,l),
(306,998,ls),
(290,1010,ls),
(235,1010,ls),
(38,958,ls),
(38,931,ls),
(164,896,ls),
(164,71,ls),
(164,-244,o),
(112,-341,o),
(38,-401,cs),
(6,-427,o),
(-52,-439,o),
(-68,-437,cs),
(-67,-478,ls),
(-65,-479,o),
(-40,-479,o),
(-14,-479,cs)
);
}
);
width = 1073;
},
{
background = {
shapes = (
{
ref = n;
}
);
};
layerId = "184155C8-9F61-4F1C-9784-DDA8EA717636";
shapes = (
{
closed = 1;
nodes = (
(244,-485,o),
(462,-320,o),
(462,0,cs),
(463,812,l),
(497,836,o),
(540,863,o),
(634,863,cs),
(715,863,o),
(746,796,o),
(746,662,cs),
(746,72,l),
(667,38,l),
(667,0,l),
(1189,0,l),
(1189,38,l),
(1085,72,l),
(1085,662,ls),
(1085,941,o),
(993,1039,o),
(798,1039,cs),
(645,1039,o),
(532,943,o),
(457,847,c),
(459,915,l),
(461,991,l),
(406,1035,l),
(366,1035,l),
(14,920,l),
(14,881,l),
(125,834,l),
(125,-99,ls),
(125,-261,o),
(85,-338,o),
(11,-375,cs),
(-29,-395,o),
(-76,-399,o),
(-109,-399,c),
(-94,-469,l),
(-76,-476,o),
(-28,-485,o),
(32,-485,cs)
);
}
);
width = 1197;
},
{
background = {
shapes = (
{
pos = (18,0);
ref = n;
}
);
};
layerId = "E96AC896-F5DF-475B-BBD9-C7FEC6A86D0E";
shapes = (
{
closed = 1;
nodes = (
(173,-479,o),
(299,-288,o),
(299,-57,cs),
(299,806,l),
(387,907,o),
(472,941,o),
(555,941,cs),
(681,941,o),
(724,847,o),
(724,646,cs),
(724,67,l),
(611,36,l),
(611,0,l),
(964,0,l),
(964,36,l),
(860,67,l),
(860,644,ls),
(860,874,o),
(812,1027,o),
(597,1027,cs),
(471,1027,o),
(344,930,o),
(299,835,c),
(299,917,l),
(299,998,l),
(282,1010,l),
(230,1010,l),
(38,958,l),
(38,931,l),
(164,896,l),
(164,71,ls),
(164,-244,o),
(112,-341,o),
(38,-401,cs),
(6,-427,o),
(-52,-439,o),
(-68,-437,c),
(-67,-478,l),
(-65,-479,o),
(-40,-479,o),
(-14,-479,cs)
);
}
);
width = 974;
},
{
background = {
shapes = (
{
ref = n;
}
);
};
layerId = "F2B10EEF-9DDC-48CA-970D-6B8C79870881";
shapes = (
{
closed = 1;
nodes = (
(244,-485,o),
(448,-320,o),
(448,53,cs),
(448,807,l),
(473,834,o),
(522,870,o),
(567,870,cs),
(639,870,o),
(656,790,o),
(656,648,cs),
(656,72,l),
(594,38,l),
(594,0,l),
(1057,0,l),
(1057,38,l),
(974,72,l),
(974,669,ls),
(974,913,o),
(911,1039,o),
(733,1039,cs),
(599,1039,o),
(486,950,o),
(448,868,c),
(449,927,l),
(449,1000,l),
(413,1035,l),
(342,1035,l),
(26,918,l),
(26,881,l),
(132,834,l),
(132,-7,ls),
(132,-233,o),
(98,-331,o),
(11,-375,cs),
(-29,-395,o),
(-76,-399,o),
(-109,-399,c),
(-94,-469,l),
(-76,-476,o),
(-28,-485,o),
(32,-485,cs)
);
}
);
width = 1067;
},
{
background = {
shapes = (
{
pos = (18,0);
ref = n;
}
);
};
layerId = "2103F1D3-C390-4F79-A87D-298F85EA6916";
shapes = (
{
closed = 1;
nodes = (
(173,-479,o),
(305,-292,o),
(305,-61,cs),
(306,806,ls),
(405,888,o),
(482,931,o),
(615,931,cs),
(779,931,o),
(799,801,o),
(799,620,cs),
(799,67,ls),
(676,36,ls),
(676,0,ls),
(1056,0,ls),
(1056,36,ls),
(941,67,ls),
(941,627,ls),
(941,854,o),
(891,1027,o),
(658,1027,cs),
(502,1027,o),
(373,921,o),
(306,835,cs),
(306,904,l),
(306,998,ls),
(290,1010,ls),
(235,1010,ls),
(38,958,ls),
(38,931,ls),
(164,896,ls),
(164,71,ls),
(164,-244,o),
(112,-341,o),
(38,-401,cs),
(6,-427,o),
(-52,-439,o),
(-68,-437,cs),
(-67,-478,ls),
(-65,-479,o),
(-40,-479,o),
(-14,-479,cs)
);
}
);
width = 1064;
},
{
background = {
shapes = (
{
pos = (10,0);
ref = n;
}
);
};
layerId = "AFA1064D-EFC9-4C9F-B9B0-9118E41D87C4";
shapes = (
{
closed = 1;
nodes = (
(254,-485,o),
(472,-320,o),
(472,53,cs),
(473,812,ls),
(507,836,o),
(550,863,o),
(644,863,cs),
(725,863,o),
(756,796,o),
(756,662,cs),
(756,72,ls),
(677,38,ls),
(677,0,ls),
(1199,0,ls),
(1199,38,ls),
(1095,72,ls),
(1095,662,ls),
(1095,941,o),
(1003,1039,o),
(808,1039,cs),
(655,1039,o),
(542,943,o),
(467,847,cs),
(468,901,l),
(471,991,ls),
(416,1035,ls),
(376,1035,ls),
(24,920,ls),
(24,881,ls),
(135,834,ls),
(135,-99,ls),
(127,-261,o),
(95,-338,o),
(21,-375,cs),
(-19,-395,o),
(-66,-399,o),
(-99,-399,cs),
(-84,-469,ls),
(-66,-476,o),
(-18,-485,o),
(42,-485,cs)
);
}
);
width = 1209;
}
);
metricLeft = j;
metricRight = n;
unicode = 626;
}
{
color = 2;
glyphname = rfishhook;
layers = (
{
background = {
shapes = (
{
closed = 1;
nodes = (
(405,-2,l),
(405,750,ls),
(405,934,o),
(469,996,o),
(607,996,cs),
(701,996,o),
(767,974,o),
(785,960,c),
(785,1124,l),
(761,1132,o),
(733,1140,o),
(673,1140,cs),
(457,1140,o),
(243,944,o),
(243,698,cs),
(243,0,l)
);
}
);
};
layerId = UUID0;
shapes = (
{
closed = 1;
nodes = (
(626,0,ls),
(626,82,ls),
(382,98,ls),
(382,750,ls),
(382,935,o),
(435,996,o),
(584,996,cs),
(701,996,o),
(788,974,o),
(816,960,cs),
(816,1124,ls),
(792,1132,o),
(747,1140,o),
(693,1140,cs),
(434,1140,o),
(220,944,o),
(220,698,cs),
(220,96,ls),
(60,84,ls),
(60,0,ls)
);
}
);
width = 866;
},
{
background = {
shapes = (
{
closed = 0;
nodes = (
(498,756,ls),
(498,862,o),
(536,903,o),
(640,903,cs),
(714,903,o),
(791,887,o),
(831,855,c),
(832,1127,l),
(816,1132,o),
(774,1145,o),
(698,1145,cs),
(414,1145,o),
(172,935,o),
(172,663,cs)
);
}
);
};
layerId = "DEBB1CE4-A72D-4960-969E-E04A036D2FA1";
shapes = (
{
closed = 1;
nodes = (
(710,0,ls),
(710,131,ls),
(506,150,ls),
(506,772,ls),
(506,870,o),
(540,912,o),
(625,912,cs),
(707,912,o),
(793,885,o),
(856,854,cs),
(856,1127,ls),
(820,1139,o),
(754,1144,o),
(709,1144,cs),
(381,1144,o),
(172,915,o),
(172,565,cs),
(172,149,ls),
(50,131,ls),
(50,0,ls)
);
}
);
width = 897;
},
{
layerId = "0E4B6E2E-ECAB-4D06-9686-B0B40AA31834";
shapes = (
{
closed = 1;
nodes = (
(534,0,l),
(534,82,l),
(329,98,l),
(329,750,ls),
(329,935,o),
(373,996,o),
(492,996,cs),
(588,996,o),
(663,974,o),
(692,960,c),
(692,1124,l),
(666,1133,o),
(625,1140,o),
(583,1140,cs),
(351,1140,o),
(168,944,o),
(168,698,cs),
(168,96,l),
(35,84,l),
(35,0,l)
);
}
);
width = 742;
},
{
layerId = "EA2265BD-E890-48C4-9E90-A53076E780C5";
shapes = (
{
closed = 1;
nodes = (
(607,0,l),
(607,131,l),
(442,150,l),
(442,772,ls),
(442,870,o),
(467,912,o),
(522,912,cs),
(583,912,o),
(657,885,o),
(721,854,c),
(721,1127,l),
(687,1139,o),
(623,1144,o),
(588,1144,cs),
(287,1144,o),
(109,915,o),
(109,565,cs),
(109,149,l),
(14,131,l),
(14,0,l)
);
}
);
width = 731;
},
{
layerId = "779F1615-9D1A-4778-9767-9A030AA58B6C";
shapes = (
{
closed = 1;
nodes = (
(577,0,ls),
(577,82,ls),
(333,98,ls),
(333,750,ls),
(333,935,o),
(386,996,o),
(535,996,cs),
(652,996,o),
(739,974,o),
(767,960,cs),
(767,1124,ls),
(743,1132,o),
(698,1140,o),
(644,1140,cs),
(385,1140,o),
(171,944,o),
(171,698,cs),
(171,96,ls),
(11,84,ls),
(11,0,ls)
);
}
);
width = 840;
},
{
layerId = "97BB7961-D669-43AB-8BBF-11FFD0C46A4B";
shapes = (
{
closed = 1;
nodes = (
(690,0,ls),
(690,131,ls),
(486,150,ls),
(486,772,ls),
(486,870,o),
(520,912,o),
(605,912,cs),
(687,912,o),
(773,885,o),
(836,854,cs),
(836,1127,ls),
(800,1139,o),
(734,1144,o),
(689,1144,cs),
(361,1144,o),
(152,915,o),
(152,565,cs),
(152,149,ls),
(30,131,ls),
(30,0,ls)
);
}
);
width = 859;
},
{
layerId = "C9B9556E-C2FD-4F62-BB40-44923C452C22";
shapes = (
{
closed = 1;
nodes = (
(413,0,ls),
(413,36,ls),
(265,67,ls),
(265,731,ls),
(265,869,o),
(300,903,o),
(407,903,cs),
(475,903,o),
(534,896,o),
(578,882,cs),
(578,1009,ls),
(554,1017,o),
(519,1025,o),
(490,1025,cs),
(326,1025,o),
(123,831,o),
(123,572,cs),
(123,67,ls),
(5,36,ls),
(5,0,ls)
);
}
);
width = 608;
},
{
background = {
shapes = (
{
closed = 0;
nodes = (
(450,705,ls),
(450,830,o),
(484,867,o),
(558,867,cs),
(618,867,o),
(716,832,o),
(765,800,c),
(765,1015,l),
(748,1026,o),
(712,1032,o),
(640,1032,cs),
(403,1032,o),
(123,763,o),
(123,435,cs)
);
}
);
};
layerId = "184155C8-9F61-4F1C-9784-DDA8EA717636";
shapes = (
{
closed = 1;
nodes = (
(622,0,ls),
(622,38,ls),
(477,73,ls),
(476,746,ls),
(476,839,o),
(499,863,o),
(553,865,cs),
(618,867,o),
(700,834,o),
(767,788,cs),
(767,1015,ls),
(750,1026,o),
(714,1032,o),
(658,1032,cs),
(389,1032,o),
(139,752,o),
(139,364,cs),
(139,72,ls),
(10,38,ls),
(10,0,ls)
);
}
);
width = 837;
},
{
layerId = "E96AC896-F5DF-475B-BBD9-C7FEC6A86D0E";
shapes = (
{
closed = 1;
nodes = (
(388,0,l),
(388,36,l),
(261,67,l),
(261,731,ls),
(261,869,o),
(289,903,o),
(374,903,cs),
(432,903,o),
(486,896,o),
(527,882,c),
(527,1009,l),
(507,1017,o),
(477,1025,o),
(448,1025,cs),
(294,1025,o),
(113,831,o),
(113,572,cs),
(113,67,l),
(10,36,l),
(10,0,l)
);
}
);
width = 547;
},
{
layerId = "F2B10EEF-9DDC-48CA-970D-6B8C79870881";
shapes = (
{
closed = 1;
nodes = (
(584,0,l),
(584,38,l),
(459,73,l),
(459,746,ls),
(459,835,o),
(474,864,o),
(507,865,cs),
(561,867,o),
(638,835,o),
(703,788,c),
(703,1015,l),
(690,1026,o),
(659,1032,o),
(603,1032,cs),
(344,1032,o),
(116,752,o),
(116,364,cs),
(116,72,l),
(2,38,l),
(2,0,l)
);
}
);
width = 713;
},
{
layerId = "2103F1D3-C390-4F79-A87D-298F85EA6916";
shapes = (
{
closed = 1;
nodes = (
(418,0,ls),
(418,36,ls),
(270,67,ls),
(270,731,ls),
(270,869,o),
(305,903,o),
(412,903,cs),
(480,903,o),
(539,896,o),
(583,882,cs),
(583,1009,ls),
(559,1017,o),
(524,1025,o),
(495,1025,cs),
(331,1025,o),
(128,831,o),
(128,572,cs),
(128,67,ls),
(10,36,ls),
(10,0,ls)
);
}
);
width = 603;
},
{
layerId = "AFA1064D-EFC9-4C9F-B9B0-9118E41D87C4";
shapes = (
{
closed = 1;
nodes = (
(612,0,ls),
(612,38,ls),
(467,73,ls),
(466,746,ls),
(466,839,o),
(489,863,o),
(543,865,cs),
(608,867,o),
(690,834,o),
(757,788,cs),
(757,1015,ls),
(740,1026,o),
(704,1032,o),
(648,1032,cs),
(379,1032,o),
(129,752,o),
(129,364,cs),
(129,72,ls),
(0,38,ls),
(0,0,ls)
);
}
);
width = 792;
}
);
metricLeft = u;
metricRight = r;
unicode = 638;
}
{
color = 8;
glyphname = esh;
layers = (
{
background = {
shapes = (
{
pos = (-21,0);
ref = f;
}
);
};
layerId = UUID0;
shapes = (
{
closed = 1;
nodes = (
(184,-502,o),
(395,-306,o),
(395,-60,cs),
(395,1262,ls),
(395,1446,o),
(462,1508,o),
(600,1508,cs),
(694,1508,o),
(760,1486,o),
(778,1472,c),
(778,1636,l),
(754,1644,o),
(726,1652,o),
(666,1652,cs),
(450,1652,o),
(236,1456,o),
(236,1210,cs),
(236,-112,ls),
(236,-296,o),
(172,-358,o),
(34,-358,cs),
(-60,-358,o),
(-126,-336,o),
(-144,-322,c),
(-144,-486,l),
(-120,-494,o),
(-92,-502,o),
(-32,-502,cs)
);
}
);
width = 708;
},
{
background = {
shapes = (
{
pos = (-1,0);
ref = f;
}
);
};
layerId = "DEBB1CE4-A72D-4960-969E-E04A036D2FA1";
shapes = (
{
closed = 1;
nodes = (
(272,-508,o),
(537,-335,o),
(537,-34,cs),
(537,1287,ls),
(537,1383,o),
(576,1434,o),
(669,1434,cs),
(739,1434,o),
(804,1416,o),
(847,1386,c),
(847,1659,l),
(811,1671,o),
(769,1676,o),
(724,1676,cs),
(459,1676,o),
(217,1461,o),
(217,1196,cs),
(217,-118,ls),
(217,-231,o),
(181,-266,o),
(90,-266,cs),
(26,-266,o),
(-38,-251,o),
(-88,-218,c),
(-88,-491,l),
(-47,-503,o),
(-10,-508,o),
(35,-508,cs)
);
}
);
width = 797;
},
{
layerId = "0E4B6E2E-ECAB-4D06-9686-B0B40AA31834";
shapes = (
{
closed = 1;
nodes = (
(184,-502,o),
(395,-306,o),
(395,-60,cs),
(395,1262,ls),
(395,1446,o),
(462,1508,o),
(600,1508,cs),
(694,1508,o),
(760,1486,o),
(778,1472,c),
(778,1636,l),
(754,1644,o),
(726,1652,o),
(666,1652,cs),
(450,1652,o),
(236,1456,o),
(236,1210,cs),
(236,-112,ls),
(236,-296,o),
(172,-358,o),
(34,-358,cs),
(-60,-358,o),
(-126,-336,o),
(-144,-322,c),
(-144,-486,l),
(-120,-494,o),
(-92,-502,o),
(-32,-502,cs)
);
}
);
width = 766;
},
{
layerId = "EA2265BD-E890-48C4-9E90-A53076E780C5";
shapes = (
{
closed = 1;
nodes = (
(272,-508,o),
(537,-335,o),
(537,-34,cs),
(537,1287,ls),
(537,1383,o),
(576,1434,o),
(669,1434,cs),
(739,1434,o),
(804,1416,o),
(847,1386,c),
(847,1659,l),
(811,1671,o),
(769,1676,o),
(724,1676,cs),
(459,1676,o),
(217,1461,o),
(217,1196,cs),
(217,-118,ls),
(217,-231,o),
(181,-266,o),
(90,-266,cs),
(26,-266,o),
(-38,-251,o),
(-88,-218,c),
(-88,-491,l),
(-47,-503,o),
(-10,-508,o),
(35,-508,cs)
);
}
);
width = 801;
},
{
layerId = "779F1615-9D1A-4778-9767-9A030AA58B6C";
shapes = (
{
closed = 1;
nodes = (
(184,-502,o),
(395,-306,o),
(395,-60,cs),
(395,1262,ls),
(395,1446,o),
(462,1508,o),
(600,1508,cs),
(694,1508,o),
(760,1486,o),
(778,1472,c),
(778,1636,l),
(754,1644,o),
(726,1652,o),
(666,1652,cs),
(450,1652,o),
(236,1456,o),
(236,1210,cs),
(236,-112,ls),
(236,-296,o),
(172,-358,o),
(34,-358,cs),
(-60,-358,o),
(-126,-336,o),
(-144,-322,c),
(-144,-486,l),
(-120,-494,o),
(-92,-502,o),
(-32,-502,cs)
);
}
);
width = 728;
},
{
layerId = "97BB7961-D669-43AB-8BBF-11FFD0C46A4B";
shapes = (
{
closed = 1;
nodes = (
(272,-508,o),
(537,-335,o),
(537,-34,cs),
(537,1287,ls),
(537,1383,o),
(576,1434,o),
(669,1434,cs),
(739,1434,o),
(804,1416,o),
(847,1386,c),
(847,1659,l),
(811,1671,o),
(769,1676,o),
(724,1676,cs),
(459,1676,o),
(217,1461,o),
(217,1196,cs),
(217,-118,ls),
(217,-231,o),
(181,-266,o),
(90,-266,cs),
(26,-266,o),
(-38,-251,o),
(-88,-218,c),
(-88,-491,l),
(-47,-503,o),
(-10,-508,o),
(35,-508,cs)
);
}
);
width = 797;
},
{
background = {
shapes = (
{
pos = (26,0);
ref = f;
}
);
};
layerId = "C9B9556E-C2FD-4F62-BB40-44923C452C22";
shapes = (
{
closed = 1;
nodes = (
(194,-506,o),
(352,-337,o),
(352,-90,cs),
(352,1348,ls),
(352,1499,o),
(402,1551,o),
(505,1551,cs),
(564,1551,o),
(623,1544,o),
(667,1530,c),
(667,1642,l),
(643,1650,o),
(608,1658,o),
(579,1658,cs),
(411,1658,o),
(215,1462,o),
(215,1185,cs),
(215,-244,ls),
(215,-363,o),
(177,-399,o),
(94,-399,cs),
(35,-399,o),
(-24,-392,o),
(-68,-378,c),
(-68,-490,l),
(-44,-498,o),
(-9,-506,o),
(20,-506,cs)
);
}
);
width = 569;
},
{
background = {
shapes = (
{
pos = (46,0);
ref = f;
}
);
};
layerId = "184155C8-9F61-4F1C-9784-DDA8EA717636";
shapes = (
{
closed = 1;
nodes = (
(283,-500,o),
(520,-309,o),
(521,33,cs),
(524,1334,ls),
(524,1455,o),
(563,1497,o),
(630,1497,cs),
(700,1497,o),
(768,1462,o),
(817,1430,c),
(817,1645,l),
(800,1656,o),
(764,1662,o),
(722,1662,cs),
(485,1662,o),
(198,1393,o),
(198,1065,cs),
(198,-113,ls),
(198,-281,o),
(160,-317,o),
(85,-317,cs),
(25,-317,o),
(-44,-267,o),
(-93,-235,c),
(-93,-483,l),
(-76,-494,o),
(-36,-500,o),
(28,-500,cs)
);
}
);
width = 659;
},
{
layerId = "E96AC896-F5DF-475B-BBD9-C7FEC6A86D0E";
shapes = (
{
closed = 1;
nodes = (
(194,-506,o),
(352,-337,o),
(352,-90,cs),
(352,1348,ls),
(352,1499,o),
(402,1551,o),
(505,1551,cs),
(564,1551,o),
(623,1544,o),
(667,1530,c),
(667,1642,l),
(643,1650,o),
(608,1658,o),
(579,1658,cs),
(411,1658,o),
(215,1462,o),
(215,1185,cs),
(215,-244,ls),
(215,-363,o),
(177,-399,o),
(94,-399,cs),
(35,-399,o),
(-24,-392,o),
(-68,-378,c),
(-68,-490,l),
(-44,-498,o),
(-9,-506,o),
(20,-506,cs)
);
}
);
width = 577;
},
{
layerId = "F2B10EEF-9DDC-48CA-970D-6B8C79870881";
shapes = (
{
closed = 1;
nodes = (
(283,-500,o),
(520,-309,o),
(521,33,cs),
(524,1334,ls),
(524,1455,o),
(563,1497,o),
(630,1497,cs),
(700,1497,o),
(768,1462,o),
(817,1430,c),
(817,1645,l),
(800,1656,o),
(764,1662,o),
(722,1662,cs),
(485,1662,o),
(198,1393,o),
(198,1065,cs),
(198,-113,ls),
(198,-281,o),
(160,-317,o),
(85,-317,cs),
(25,-317,o),
(-44,-267,o),
(-93,-235,c),
(-93,-483,l),
(-76,-494,o),
(-36,-500,o),
(28,-500,cs)
);
}
);
width = 682;
},
{
layerId = "2103F1D3-C390-4F79-A87D-298F85EA6916";
shapes = (
{
closed = 1;
nodes = (
(194,-506,o),
(352,-337,o),
(352,-90,cs),
(352,1348,ls),
(352,1499,o),
(402,1551,o),
(505,1551,cs),
(564,1551,o),
(623,1544,o),
(667,1530,c),
(667,1642,l),
(643,1650,o),
(608,1658,o),
(579,1658,cs),
(411,1658,o),
(215,1462,o),
(215,1185,cs),
(215,-244,ls),
(215,-363,o),
(177,-399,o),
(94,-399,cs),
(35,-399,o),
(-24,-392,o),
(-68,-378,c),
(-68,-490,l),
(-44,-498,o),
(-9,-506,o),
(20,-506,cs)
);
}
);
width = 582;
},
{
layerId = "AFA1064D-EFC9-4C9F-B9B0-9118E41D87C4";
shapes = (
{
closed = 1;
nodes = (
(283,-500,o),
(520,-309,o),
(521,33,cs),
(524,1334,ls),
(524,1455,o),
(563,1497,o),
(630,1497,cs),
(700,1497,o),
(768,1462,o),
(817,1430,c),
(817,1645,l),
(800,1656,o),
(764,1662,o),
(722,1662,cs),
(485,1662,o),
(198,1393,o),
(198,1065,cs),
(198,-113,ls),
(198,-281,o),
(160,-317,o),
(85,-317,cs),
(25,-317,o),
(-44,-267,o),
(-93,-235,c),
(-93,-483,l),
(-76,-494,o),
(-36,-500,o),
(28,-500,cs)
);
}
);
width = 665;
}
);
metricRight = f;
unicode = 643;
}
{
glyphname = verticallinemod;
kernLeft = verticallinemod;
kernRight = verticallinemod;
layers = (
{
layerId = UUID0;
shapes = (
{
closed = 1;
nodes = (
(90,1710,l),
(122,1292,l),
(216,1292,l),
(250,1710,l)
);
}
);
width = 340;
},
{
layerId = "DEBB1CE4-A72D-4960-969E-E04A036D2FA1";
shapes = (
{
closed = 1;
nodes = (
(10,2034,l),
(45,1374,l),
(203,1374,l),
(238,2034,l)
);
}
);
width = 248;
},
{
layerId = "184155C8-9F61-4F1C-9784-DDA8EA717636";
shapes = (
{
closed = 1;
nodes = (
(10,2034,l),
(89,1374,l),
(139,1374,l),
(218,2034,l)
);
}
);
width = 228;
},
{
layerId = "EA2265BD-E890-48C4-9E90-A53076E780C5";
shapes = (
{
closed = 1;
nodes = (
(10,2034,l),
(45,1374,l),
(203,1374,l),
(238,2034,l)
);
}
);
width = 248;
},
{
layerId = "0E4B6E2E-ECAB-4D06-9686-B0B40AA31834";
shapes = (
{
closed = 1;
nodes = (
(10,2000,l),
(42,1374,l),
(136,1374,l),
(170,2000,l)
);
}
);
width = 180;
},
{
layerId = "F2B10EEF-9DDC-48CA-970D-6B8C79870881";
shapes = (
{
closed = 1;
nodes = (
(10,2034,l),
(89,1374,l),
(139,1374,l),
(218,2034,l)
);
}
);
width = 228;
},
{
layerId = "E96AC896-F5DF-475B-BBD9-C7FEC6A86D0E";
shapes = (
{
closed = 1;
nodes = (
(10,2000,l),
(42,1374,l),
(136,1374,l),
(170,2000,l)
);
}
);
width = 180;
},
{
layerId = "C9B9556E-C2FD-4F62-BB40-44923C452C22";
shapes = (
{
closed = 1;
nodes = (
(10,2000,l),
(73,1374,l),
(115,1374,l),
(178,2000,l)
);
}
);
width = 188;
},
{
layerId = "AFA1064D-EFC9-4C9F-B9B0-9118E41D87C4";
shapes = (
{
closed = 1;
nodes = (
(10,2034,l),
(89,1374,l),
(139,1374,l),
(218,2034,l)
);
}
);
width = 228;
},
{
layerId = "2103F1D3-C390-4F79-A87D-298F85EA6916";
shapes = (
{
closed = 1;
nodes = (
(10,2000,l),
(73,1375,l),
(115,1375,l),
(178,2000,l)
);
}
);
width = 188;
},
{
layerId = "779F1615-9D1A-4778-9767-9A030AA58B6C";
shapes = (
{
closed = 1;
nodes = (
(10,2000,l),
(42,1374,l),
(136,1374,l),
(170,2000,l)
);
}
);
userData = {
com.schriftgestaltung.Glyphs.lastChange = "2019-04-25 21:50:43 +0000";
};
width = 180;
},
{
layerId = "97BB7961-D669-43AB-8BBF-11FFD0C46A4B";
shapes = (
{
closed = 1;
nodes = (
(10,2034,l),
(45,1374,l),
(203,1374,l),
(238,2034,l)
);
}
);
width = 248;
}
);
metricRight = "=|";
unicode = 712;
}
{
glyphname = gravecomb;
kernLeft = gravecomb;
kernRight = gravecomb;
layers = (
{
anchors = (
{
name = _top;
pos = (233,1110);
},
{
name = top;
pos = (233,1738);
}
);
layerId = UUID0;
shapes = (
{
closed = 1;
nodes = (
(392,1298,l),
(456,1352,l),
(146,1738,l),
(10,1628,l),
(62,1543,o),
(294,1342,o),
(390,1298,c)
);
}
);
width = 466;
},
{
anchors = (
{
name = _top;
pos = (279,1112);
},
{
name = top;
pos = (279,1797);
}
);
layerId = "DEBB1CE4-A72D-4960-969E-E04A036D2FA1";
shapes = (
{
closed = 1;
nodes = (
(433,1272,l),
(548,1371,l),
(199,1797,l),
(10,1626,l),
(79,1506,o),
(319,1314,o),
(431,1272,c)
);
}
);
width = 558;
},
{
anchors = (
{
name = _top;
pos = (260,1005);
},
{
name = top;
pos = (260,1601);
}
);
layerId = "184155C8-9F61-4F1C-9784-DDA8EA717636";
shapes = (
{
closed = 1;
nodes = (
(470,1120,l),
(509,1153,l),
(211,1601,l),
(10,1429,l),
(115,1298,o),
(322,1169,o),
(468,1120,c)
);
}
);
width = 519;
},
{
anchors = (
{
name = _top;
pos = (257,1112);
},
{
name = top;
pos = (257,1783);
}
);
layerId = "EA2265BD-E890-48C4-9E90-A53076E780C5";
shapes = (
{
closed = 1;
nodes = (
(390,1263,l),
(504,1361,l),
(218,1783,l),
(10,1630,l),
(85,1504,o),
(282,1324,o),
(388,1263,c)
);
}
);
width = 514;
},
{
anchors = (
{
name = _top;
pos = (208,1110);
},
{
name = top;
pos = (208,1738);
}
);
layerId = "0E4B6E2E-ECAB-4D06-9686-B0B40AA31834";
shapes = (
{
closed = 1;
nodes = (
(342,1298,l),
(406,1352,l),
(154,1738,l),
(10,1638,l),
(55,1553,o),
(244,1352,o),
(340,1298,c)
);
}
);
width = 416;
},
{
anchors = (
{
name = _top;
pos = (240,1005);
},
{
name = top;
pos = (240,1601);
}
);
layerId = "F2B10EEF-9DDC-48CA-970D-6B8C79870881";
shapes = (
{
closed = 1;
nodes = (
(430,1120,l),
(469,1153,l),
(221,1601,l),
(10,1449,l),
(109,1318,o),
(290,1178,o),
(428,1120,c)
);
}
);
width = 479;
},
{
anchors = (
{
name = _top;
pos = (173,1005);
},
{
name = top;
pos = (173,1577);
}
);
layerId = "E96AC896-F5DF-475B-BBD9-C7FEC6A86D0E";
shapes = (
{
closed = 1;
nodes = (
(309,1146,l),
(335,1166,l),
(142,1577,l),
(10,1503,l),
(68,1390,o),
(204,1233,o),
(307,1146,c)
);
}
);
width = 345;
},
{
anchors = (
{
name = _top;
pos = (193,1005);
},
{
name = top;
pos = (193,1577);
}
);
layerId = "C9B9556E-C2FD-4F62-BB40-44923C452C22";
shapes = (
{
closed = 1;
nodes = (
(349,1146,l),
(375,1166,l),
(136,1577,l),
(10,1493,l),
(70,1381,o),
(241,1219,o),
(347,1146,c)
);
}
);
width = 385;
},
{
anchors = (
{
name = _top;
pos = (285,1005);
},
{
name = top;
pos = (285,1601);
}
);
layerId = "AFA1064D-EFC9-4C9F-B9B0-9118E41D87C4";
shapes = (
{
closed = 1;
nodes = (
(520,1120,l),
(559,1153,l),
(211,1601,l),
(10,1419,l),
(122,1308,o),
(370,1165,o),
(518,1120,c)
);
}
);
width = 569;
},
{
anchors = (
{
name = _top;
pos = (215,1005);
},
{
name = top;
pos = (215,1577);
}
);
layerId = "2103F1D3-C390-4F79-A87D-298F85EA6916";
shapes = (
{
closed = 1;
nodes = (
(394,1146,l),
(420,1166,l),
(129,1577,l),
(10,1483,l),
(80,1382,o),
(285,1208,o),
(392,1146,c)
);
}
);
width = 430;
},
{
anchors = (
{
name = _top;
pos = (253,1110);
},
{
name = top;
pos = (253,1738);
}
);
layerId = "779F1615-9D1A-4778-9767-9A030AA58B6C";
shapes = (
{
closed = 1;
nodes = (
(432,1298,l),
(496,1352,l),
(137,1738,l),
(10,1618,l),
(68,1535,o),
(331,1335,o),
(430,1298,c)
);
}
);
userData = {
com.schriftgestaltung.Glyphs.lastChange = "2019-04-25 21:50:43 +0000";
};
width = 506;
},
{
anchors = (
{
name = _top;
pos = (302,1112);
},
{
name = top;
pos = (302,1783);
}
);
color = 9;
layerId = "97BB7961-D669-43AB-8BBF-11FFD0C46A4B";
shapes = (
{
closed = 1;
nodes = (
(480,1263,l),
(594,1361,l),
(204,1783,l),
(10,1610,l),
(90,1494,o),
(356,1306,o),
(478,1263,c)
);
}
);
width = 604;
}
);
unicode = 768;
}
{
glyphname = acutecomb;
kernLeft = acutecomb;
kernRight = acutecomb;
layers = (
{
anchors = (
{
name = _top;
pos = (137,1110);
},
{
name = top;
pos = (233,1738);
}
);
layerId = UUID0;
shapes = (
{
closed = 1;
nodes = (
(172,1342,o),
(404,1543,o),
(456,1628,c),
(320,1738,l),
(10,1352,l),
(74,1298,l),
(76,1298,l)
);
}
);
width = 466;
},
{
anchors = (
{
name = _top;
pos = (166,1112);
},
{
name = top;
pos = (280,1787);
}
);
layerId = "DEBB1CE4-A72D-4960-969E-E04A036D2FA1";
shapes = (
{
closed = 1;
nodes = (
(246,1307,o),
(480,1496,o),
(550,1615,c),
(358,1787,l),
(10,1360,l),
(122,1262,l),
(126,1262,l)
);
}
);
width = 560;
},
{
anchors = (
{
name = _top;
pos = (161,1005);
},
{
name = top;
pos = (260,1601);
}
);
layerId = "184155C8-9F61-4F1C-9784-DDA8EA717636";
shapes = (
{
closed = 1;
nodes = (
(197,1169,o),
(404,1298,o),
(509,1429,c),
(308,1601,l),
(10,1153,l),
(49,1120,l),
(51,1120,l)
);
}
);
width = 519;
},
{
anchors = (
{
name = _top;
pos = (170,1112);
},
{
name = top;
pos = (257,1783);
}
);
layerId = "EA2265BD-E890-48C4-9E90-A53076E780C5";
shapes = (
{
closed = 1;
nodes = (
(232,1324,o),
(429,1504,o),
(504,1630,c),
(296,1783,l),
(10,1361,l),
(124,1263,l),
(126,1263,l)
);
}
);
width = 514;
},
{
anchors = (
{
name = _top;
pos = (125,1110);
},
{
name = top;
pos = (208,1738);
}
);
layerId = "0E4B6E2E-ECAB-4D06-9686-B0B40AA31834";
shapes = (
{
closed = 1;
nodes = (
(172,1352,o),
(361,1553,o),
(406,1638,c),
(262,1738,l),
(10,1352,l),
(74,1298,l),
(76,1298,l)
);
}
);
width = 416;
},
{
anchors = (
{
name = _top;
pos = (141,1005);
},
{
name = top;
pos = (240,1601);
}
);
layerId = "F2B10EEF-9DDC-48CA-970D-6B8C79870881";
shapes = (
{
closed = 1;
nodes = (
(189,1178,o),
(370,1318,o),
(469,1449,c),
(258,1601,l),
(10,1153,l),
(49,1120,l),
(51,1120,l)
);
}
);
width = 479;
},
{
anchors = (
{
name = _top;
pos = (94,1005);
},
{
name = top;
pos = (193,1577);
}
);
layerId = "E96AC896-F5DF-475B-BBD9-C7FEC6A86D0E";
shapes = (
{
closed = 1;
nodes = (
(144,1219,o),
(315,1381,o),
(375,1493,c),
(249,1577,l),
(10,1166,l),
(36,1146,l),
(38,1146,l)
);
}
);
width = 385;
},
{
anchors = (
{
name = _top;
pos = (110,1005);
},
{
name = top;
pos = (193,1577);
}
);
layerId = "C9B9556E-C2FD-4F62-BB40-44923C452C22";
shapes = (
{
closed = 1;
nodes = (
(144,1219,o),
(315,1381,o),
(375,1493,c),
(249,1577,l),
(10,1166,l),
(36,1146,l),
(38,1146,l)
);
}
);
width = 385;
},
{
anchors = (
{
name = _top;
pos = (142,1005);
},
{
name = top;
pos = (285,1601);
}
);
layerId = "AFA1064D-EFC9-4C9F-B9B0-9118E41D87C4";
shapes = (
{
closed = 1;
nodes = (
(199,1165,o),
(447,1308,o),
(559,1419,c),
(358,1601,l),
(10,1153,l),
(49,1120,l),
(51,1120,l)
);
}
);
width = 569;
},
{
anchors = (
{
name = _top;
pos = (136,1005);
},
{
name = top;
pos = (215,1577);
}
);
layerId = "2103F1D3-C390-4F79-A87D-298F85EA6916";
shapes = (
{
closed = 1;
nodes = (
(145,1208,o),
(350,1382,o),
(420,1483,c),
(301,1577,l),
(10,1166,l),
(36,1146,l),
(38,1146,l)
);
}
);
width = 430;
},
{
anchors = (
{
name = _top;
pos = (175,1110);
},
{
name = top;
pos = (253,1738);
}
);
layerId = "779F1615-9D1A-4778-9767-9A030AA58B6C";
shapes = (
{
closed = 1;
nodes = (
(175,1335,o),
(438,1535,o),
(496,1618,c),
(369,1738,l),
(10,1352,l),
(74,1298,l),
(76,1298,l)
);
}
);
userData = {
com.schriftgestaltung.Glyphs.lastChange = "2019-04-25 21:50:43 +0000";
};
width = 506;
},
{
anchors = (
{
name = _top;
pos = (201,1112);
},
{
name = top;
pos = (302,1783);
}
);
color = 9;
layerId = "97BB7961-D669-43AB-8BBF-11FFD0C46A4B";
shapes = (
{
closed = 1;
nodes = (
(248,1306,o),
(514,1494,o),
(594,1610,c),
(400,1783,l),
(10,1361,l),
(124,1263,l),
(126,1263,l)
);
}
);
width = 604;
}
);
unicode = 769;
}
{
color = 0;
glyphname = macroncomb;
kernLeft = macroncomb;
kernRight = macroncomb;
layers = (
{
anchors = (
{
name = _top;
pos = (271,1110);
},
{
name = top;
pos = (271,1464);
}
);
layerId = UUID0;
shapes = (
{
closed = 1;
nodes = (
(10,1464,l),
(10,1342,l),
(532,1342,l),
(532,1464,l)
);
}
);
width = 542;
},
{
anchors = (
{
name = _top;
pos = (320,1111);
},
{
name = top;
pos = (320,1506);
}
);
layerId = "DEBB1CE4-A72D-4960-969E-E04A036D2FA1";
shapes = (
{
closed = 1;
nodes = (
(10,1513,l),
(10,1321,l),
(631,1321,l),
(631,1513,l)
);
}
);
width = 641;
},
{
anchors = (
{
name = _top;
pos = (310,1005);
},
{
name = top;
pos = (310,1303);
}
);
layerId = "184155C8-9F61-4F1C-9784-DDA8EA717636";
shapes = (
{
closed = 1;
nodes = (
(10,1353,l),
(10,1168,l),
(610,1168,l),
(610,1353,l)
);
}
);
width = 620;
},
{
anchors = (
{
name = _top;
pos = (290,1110);
},
{
name = top;
pos = (290,1506);
}
);
layerId = "EA2265BD-E890-48C4-9E90-A53076E780C5";
shapes = (
{
closed = 1;
nodes = (
(10,1513,l),
(10,1321,l),
(570,1321,l),
(570,1513,l)
);
}
);
width = 580;
},
{
anchors = (
{
name = _top;
pos = (246,1110);
},
{
name = top;
pos = (246,1410);
}
);
layerId = "0E4B6E2E-ECAB-4D06-9686-B0B40AA31834";
shapes = (
{
closed = 1;
nodes = (
(10,1464,l),
(10,1342,l),
(482,1342,l),
(482,1464,l)
);
}
);
width = 492;
},
{
anchors = (
{
name = _top;
pos = (280,1005);
},
{
name = top;
pos = (280,1303);
}
);
layerId = "F2B10EEF-9DDC-48CA-970D-6B8C79870881";
shapes = (
{
closed = 1;
nodes = (
(10,1353,l),
(10,1168,l),
(550,1168,l),
(550,1353,l)
);
}
);
width = 560;
},
{
anchors = (
{
name = _top;
pos = (200,1005);
},
{
name = top;
pos = (200,1353);
}
);
layerId = "E96AC896-F5DF-475B-BBD9-C7FEC6A86D0E";
shapes = (
{
closed = 1;
nodes = (
(10,1304,l),
(10,1192,l),
(390,1192,l),
(390,1304,l)
);
}
);
width = 400;
},
{
anchors = (
{
name = _top;
pos = (220,1005);
},
{
name = top;
pos = (220,1203);
}
);
layerId = "C9B9556E-C2FD-4F62-BB40-44923C452C22";
shapes = (
{
closed = 1;
nodes = (
(10,1304,l),
(10,1192,l),
(430,1192,l),
(430,1304,l)
);
}
);
width = 440;
},
{
anchors = (
{
name = _top;
pos = (320,1005);
},
{
name = top;
pos = (320,1303);
}
);
layerId = "AFA1064D-EFC9-4C9F-B9B0-9118E41D87C4";
shapes = (
{
closed = 1;
nodes = (
(10,1353,l),
(10,1168,l),
(630,1168,l),
(630,1353,l)
);
}
);
width = 640;
},
{
anchors = (
{
name = _top;
pos = (240,1005);
},
{
name = top;
pos = (240,1203);
}
);
layerId = "2103F1D3-C390-4F79-A87D-298F85EA6916";
shapes = (
{
closed = 1;
nodes = (
(16,1304,l),
(16,1192,l),
(464,1192,l),
(464,1304,l)
);
}
);
width = 480;
},
{
anchors = (
{
name = _top;
pos = (291,1110);
},
{
name = top;
pos = (291,1340);
}
);
layerId = "779F1615-9D1A-4778-9767-9A030AA58B6C";
shapes = (
{
closed = 1;
nodes = (
(10,1434,l),
(10,1312,l),
(572,1312,l),
(572,1434,l)
);
}
);
userData = {
com.schriftgestaltung.Glyphs.lastChange = "2019-04-25 21:50:43 +0000";
};
width = 582;
},
{
anchors = (
{
name = _top;
pos = (340,1112);
},
{
name = top;
pos = (340,1426);
}
);
color = 9;
layerId = "97BB7961-D669-43AB-8BBF-11FFD0C46A4B";
shapes = (
{
closed = 1;
nodes = (
(10,1483,l),
(10,1291,l),
(670,1291,l),
(670,1483,l)
);
}
);
width = 680;
}
);
unicode = 772;
}
{
color = 10;
glyphname = commaabovecomb;
layers = (
{
anchors = (
{
name = _top;
pos = (119,1110);
},
{
name = top;
pos = (119,1748);
}
);
layerId = UUID0;
shapes = (
{
closed = 1;
nodes = (
(78,1320,l),
(100,1328,o),
(228,1426,o),
(228,1588,cs),
(228,1692,o),
(180,1748,o),
(106,1748,cs),
(102,1748,ls),
(74,1748,o),
(10,1734,o),
(10,1660,cs),
(10,1618,o),
(28,1600,o),
(48,1586,cs),
(68,1572,o),
(90,1554,o),
(90,1514,cs),
(90,1452,o),
(62,1390,o),
(22,1370,c),
(22,1358,l),
(76,1320,l)
);
}
);
width = 238;
},
{
anchors = (
{
name = _top;
pos = (167,1112);
},
{
name = top;
pos = (167,1735);
}
);
layerId = "DEBB1CE4-A72D-4960-969E-E04A036D2FA1";
shapes = (
{
closed = 1;
nodes = (
(155,1282,l),
(202,1298,o),
(322,1424,o),
(324,1573,cs),
(325,1679,o),
(260,1735,o),
(168,1735,cs),
(161,1735,ls),
(102,1735,o),
(10,1709,o),
(10,1616,cs),
(10,1565,o),
(34,1536,o),
(55,1521,cs),
(72,1508,o),
(93,1492,o),
(93,1450,cs),
(93,1402,o),
(74,1338,o),
(44,1326,c),
(48,1311,l),
(151,1282,l)
);
}
);
width = 334;
},
{
anchors = (
{
name = _top;
pos = (119,1110);
},
{
name = top;
pos = (119,1748);
}
);
layerId = "0E4B6E2E-ECAB-4D06-9686-B0B40AA31834";
shapes = (
{
closed = 1;
nodes = (
(78,1320,l),
(100,1328,o),
(228,1426,o),
(228,1588,cs),
(228,1692,o),
(180,1748,o),
(106,1748,cs),
(102,1748,ls),
(74,1748,o),
(10,1734,o),
(10,1660,cs),
(10,1618,o),
(28,1600,o),
(48,1586,cs),
(68,1572,o),
(90,1554,o),
(90,1514,cs),
(90,1452,o),
(62,1390,o),
(22,1370,c),
(22,1358,l),
(76,1320,l)
);
}
);
width = 238;
},
{
anchors = (
{
name = _top;
pos = (167,1112);
},
{
name = top;
pos = (167,1748);
}
);
layerId = "EA2265BD-E890-48C4-9E90-A53076E780C5";
shapes = (
{
closed = 1;
nodes = (
(155,1283,l),
(202,1321,o),
(324,1437,o),
(324,1586,cs),
(324,1692,o),
(260,1748,o),
(168,1748,cs),
(164,1748,ls),
(98,1748,o),
(10,1715,o),
(10,1619,cs),
(10,1573,o),
(30,1554,o),
(54,1534,cs),
(76,1515,o),
(96,1496,o),
(96,1451,cs),
(96,1407,o),
(74,1358,o),
(44,1339,c),
(48,1324,l),
(151,1283,l)
);
}
);
width = 334;
},
{
anchors = (
{
name = _top;
pos = (119,1110);
},
{
name = top;
pos = (119,1717);
}
);
layerId = "779F1615-9D1A-4778-9767-9A030AA58B6C";
shapes = (
{
closed = 1;
nodes = (
(78,1289,l),
(100,1297,o),
(228,1395,o),
(228,1557,cs),
(228,1661,o),
(180,1717,o),
(106,1717,cs),
(102,1717,ls),
(74,1717,o),
(10,1703,o),
(10,1629,cs),
(10,1587,o),
(28,1569,o),
(48,1555,cs),
(68,1541,o),
(90,1523,o),
(90,1483,cs),
(90,1421,o),
(62,1359,o),
(22,1339,c),
(22,1327,l),
(76,1289,l)
);
}
);
width = 238;
},
{
anchors = (
{
name = _top;
pos = (167,1112);
},
{
name = top;
pos = (167,1747);
}
);
layerId = "97BB7961-D669-43AB-8BBF-11FFD0C46A4B";
shapes = (
{
closed = 1;
nodes = (
(155,1282,l),
(202,1320,o),
(324,1436,o),
(324,1585,cs),
(324,1691,o),
(260,1747,o),
(168,1747,cs),
(164,1747,ls),
(98,1747,o),
(10,1714,o),
(10,1618,cs),
(10,1572,o),
(30,1553,o),
(54,1533,cs),
(76,1514,o),
(96,1495,o),
(96,1450,cs),
(96,1406,o),
(74,1357,o),
(44,1338,c),
(48,1323,l),
(151,1282,l)
);
}
);
width = 334;
},
{
anchors = (
{
name = _top;
pos = (106,1005);
},
{
name = top;
pos = (106,1538);
}
);
layerId = "C9B9556E-C2FD-4F62-BB40-44923C452C22";
shapes = (
{
closed = 1;
nodes = (
(74,1165,l),
(134,1214,o),
(202,1342,o),
(202,1422,cs),
(202,1485,o),
(163,1538,o),
(104,1538,cs),
(98,1538,ls),
(44,1538,o),
(10,1497,o),
(10,1456,cs),
(10,1422,o),
(29,1403,o),
(50,1386,cs),
(88,1356,o),
(91,1325,o),
(91,1302,cs),
(91,1279,o),
(79,1230,o),
(48,1184,c),
(48,1180,l),
(72,1165,l)
);
}
);
width = 212;
},
{
anchors = (
{
name = _top;
pos = (163,1005);
},
{
name = top;
pos = (163,1613);
}
);
layerId = "184155C8-9F61-4F1C-9784-DDA8EA717636";
shapes = (
{
closed = 1;
nodes = (
(108,1160,l),
(183,1205,o),
(316,1315,o),
(316,1447,cs),
(316,1544,o),
(244,1613,o),
(157,1613,cs),
(150,1613,ls),
(89,1613,o),
(10,1568,o),
(10,1485,cs),
(10,1445,o),
(33,1414,o),
(70,1390,cs),
(117,1360,o),
(127,1344,o),
(127,1303,cs),
(127,1269,o),
(108,1227,o),
(70,1192,c),
(70,1184,l),
(106,1160,l)
);
}
);
width = 326;
},
{
anchors = (
{
name = _top;
pos = (106,1005);
},
{
name = top;
pos = (106,1550);
}
);
layerId = "E96AC896-F5DF-475B-BBD9-C7FEC6A86D0E";
shapes = (
{
closed = 1;
nodes = (
(74,1177,l),
(134,1226,o),
(202,1354,o),
(202,1434,cs),
(202,1497,o),
(163,1550,o),
(104,1550,cs),
(98,1550,ls),
(44,1550,o),
(10,1509,o),
(10,1468,cs),
(10,1434,o),
(29,1415,o),
(50,1398,cs),
(88,1368,o),
(91,1337,o),
(91,1314,cs),
(91,1291,o),
(79,1242,o),
(48,1196,c),
(48,1192,l),
(72,1177,l)
);
}
);
width = 212;
},
{
anchors = (
{
name = _top;
pos = (153,1005);
},
{
name = top;
pos = (153,1593);
}
);
layerId = "F2B10EEF-9DDC-48CA-970D-6B8C79870881";
shapes = (
{
closed = 1;
nodes = (
(108,1140,l),
(181,1185,o),
(296,1295,o),
(296,1427,cs),
(296,1524,o),
(234,1593,o),
(147,1593,cs),
(140,1593,ls),
(79,1593,o),
(10,1548,o),
(10,1465,cs),
(10,1425,o),
(25,1397,o),
(60,1370,cs),
(105,1336,o),
(121,1324,o),
(121,1283,cs),
(121,1249,o),
(105,1207,o),
(70,1172,c),
(70,1164,l),
(106,1140,l)
);
}
);
width = 306;
},
{
anchors = (
{
name = _top;
pos = (106,1005);
},
{
name = top;
pos = (106,1551);
}
);
layerId = "2103F1D3-C390-4F79-A87D-298F85EA6916";
shapes = (
{
closed = 1;
nodes = (
(74,1178,l),
(134,1227,o),
(202,1355,o),
(202,1435,cs),
(202,1498,o),
(163,1551,o),
(104,1551,cs),
(98,1551,ls),
(44,1551,o),
(10,1510,o),
(10,1469,cs),
(10,1435,o),
(29,1416,o),
(50,1399,cs),
(88,1369,o),
(91,1338,o),
(91,1315,cs),
(91,1292,o),
(79,1243,o),
(48,1197,c),
(48,1193,l),
(72,1178,l)
);
}
);
width = 212;
},
{
anchors = (
{
name = _top;
pos = (173,1005);
},
{
name = top;
pos = (173,1593);
}
);
layerId = "AFA1064D-EFC9-4C9F-B9B0-9118E41D87C4";
shapes = (
{
closed = 1;
nodes = (
(112,1140,l),
(187,1182,o),
(336,1295,o),
(336,1427,cs),
(336,1524,o),
(254,1593,o),
(167,1593,cs),
(160,1593,ls),
(99,1593,o),
(10,1548,o),
(10,1465,cs),
(10,1425,o),
(30,1399,o),
(75,1370,cs),
(121,1340,o),
(137,1324,o),
(137,1283,cs),
(137,1249,o),
(112,1207,o),
(74,1172,c),
(74,1164,l),
(110,1140,l)
);
}
);
width = 346;
}
);
metricLeft = "=|commaturnedabovecomb";
metricRight = "=|commaturnedabovecomb";
unicode = 787;
}
{
color = 3;
glyphname = commaaboverightcomb;
layers = (
{
anchors = (
{
name = _ar;
pos = (90,1670);
}
);
layerId = UUID0;
shapes = (
{
closed = 1;
nodes = (
(248,1461,l),
(270,1469,o),
(398,1567,o),
(398,1729,cs),
(398,1833,o),
(350,1889,o),
(276,1889,cs),
(272,1889,ls),
(244,1889,o),
(180,1875,o),
(180,1801,cs),
(180,1759,o),
(198,1741,o),
(218,1727,cs),
(238,1713,o),
(260,1695,o),
(260,1655,cs),
(260,1593,o),
(232,1531,o),
(192,1511,c),
(192,1499,l),
(246,1461,l)
);
}
);
width = 578;
},
{
anchors = (
{
name = _ar;
pos = (47,1670);
}
);
layerId = "DEBB1CE4-A72D-4960-969E-E04A036D2FA1";
shapes = (
{
closed = 1;
nodes = (
(305,1412,l),
(352,1428,o),
(492,1574,o),
(494,1743,cs),
(495,1849,o),
(430,1905,o),
(338,1905,cs),
(331,1905,ls),
(272,1905,o),
(180,1879,o),
(180,1786,cs),
(180,1735,o),
(204,1706,o),
(225,1691,cs),
(242,1678,o),
(263,1662,o),
(263,1620,cs),
(263,1552,o),
(241,1496,o),
(194,1456,c),
(198,1441,l),
(301,1412,l)
);
}
);
width = 674;
},
{
anchors = (
{
name = _ar;
pos = (121,1518);
}
);
layerId = "C9B9556E-C2FD-4F62-BB40-44923C452C22";
shapes = (
{
closed = 1;
nodes = (
(218,1333,l),
(278,1382,o),
(346,1510,o),
(346,1590,cs),
(346,1653,o),
(307,1706,o),
(248,1706,cs),
(242,1706,ls),
(188,1706,o),
(154,1665,o),
(154,1624,cs),
(154,1590,o),
(173,1571,o),
(194,1554,cs),
(232,1524,o),
(235,1493,o),
(235,1470,cs),
(235,1447,o),
(223,1398,o),
(192,1352,c),
(192,1348,l),
(216,1333,l)
);
}
);
width = 500;
},
{
anchors = (
{
name = _ar;
pos = (85,1548);
}
);
layerId = "184155C8-9F61-4F1C-9784-DDA8EA717636";
shapes = (
{
closed = 1;
nodes = (
(252,1320,l),
(327,1365,o),
(460,1475,o),
(460,1607,cs),
(460,1704,o),
(388,1773,o),
(301,1773,cs),
(294,1773,ls),
(233,1773,o),
(154,1728,o),
(154,1645,cs),
(154,1605,o),
(177,1574,o),
(214,1550,cs),
(261,1520,o),
(271,1504,o),
(271,1463,cs),
(271,1429,o),
(252,1387,o),
(214,1352,c),
(214,1344,l),
(250,1320,l)
);
}
);
width = 614;
},
{
anchors = (
{
name = _ar;
pos = (20,1670);
}
);
layerId = "0E4B6E2E-ECAB-4D06-9686-B0B40AA31834";
shapes = (
{
closed = 1;
nodes = (
(178,1461,l),
(200,1469,o),
(328,1567,o),
(328,1729,cs),
(328,1833,o),
(280,1889,o),
(206,1889,cs),
(202,1889,ls),
(174,1889,o),
(110,1875,o),
(110,1801,cs),
(110,1759,o),
(128,1741,o),
(148,1727,cs),
(168,1713,o),
(190,1695,o),
(190,1655,cs),
(190,1593,o),
(162,1531,o),
(122,1511,c),
(122,1499,l),
(176,1461,l)
);
}
);
width = 438;
},
{
anchors = (
{
name = _ar;
pos = (52,1670);
}
);
layerId = "EA2265BD-E890-48C4-9E90-A53076E780C5";
shapes = (
{
closed = 1;
nodes = (
(310,1412,l),
(357,1428,o),
(497,1574,o),
(499,1743,cs),
(500,1849,o),
(435,1905,o),
(343,1905,cs),
(336,1905,ls),
(277,1905,o),
(185,1879,o),
(185,1786,cs),
(185,1735,o),
(209,1706,o),
(230,1691,cs),
(247,1678,o),
(268,1662,o),
(268,1620,cs),
(268,1552,o),
(246,1496,o),
(199,1456,c),
(203,1441,l),
(306,1412,l)
);
}
);
width = 684;
},
{
anchors = (
{
name = _ar;
pos = (107,1518);
}
);
layerId = "E96AC896-F5DF-475B-BBD9-C7FEC6A86D0E";
shapes = (
{
closed = 1;
nodes = (
(204,1333,l),
(264,1382,o),
(332,1510,o),
(332,1590,cs),
(332,1653,o),
(293,1706,o),
(234,1706,cs),
(228,1706,ls),
(174,1706,o),
(140,1665,o),
(140,1624,cs),
(140,1590,o),
(159,1571,o),
(180,1554,cs),
(218,1524,o),
(221,1493,o),
(221,1470,cs),
(221,1447,o),
(209,1398,o),
(178,1352,c),
(178,1348,l),
(202,1333,l)
);
}
);
width = 472;
},
{
anchors = (
{
name = _ar;
pos = (72,1548);
}
);
layerId = "F2B10EEF-9DDC-48CA-970D-6B8C79870881";
shapes = (
{
closed = 1;
nodes = (
(239,1320,l),
(314,1365,o),
(447,1475,o),
(447,1607,cs),
(447,1704,o),
(375,1773,o),
(288,1773,cs),
(281,1773,ls),
(220,1773,o),
(141,1728,o),
(141,1645,cs),
(141,1605,o),
(164,1574,o),
(201,1550,cs),
(248,1520,o),
(258,1504,o),
(258,1463,cs),
(258,1429,o),
(239,1387,o),
(201,1352,c),
(201,1344,l),
(237,1320,l)
);
}
);
width = 588;
},
{
anchors = (
{
name = _ar;
pos = (20,1670);
}
);
layerId = "779F1615-9D1A-4778-9767-9A030AA58B6C";
shapes = (
{
closed = 1;
nodes = (
(178,1461,l),
(200,1469,o),
(328,1567,o),
(328,1729,cs),
(328,1833,o),
(280,1889,o),
(206,1889,cs),
(202,1889,ls),
(174,1889,o),
(110,1875,o),
(110,1801,cs),
(110,1759,o),
(128,1741,o),
(148,1727,cs),
(168,1713,o),
(190,1695,o),
(190,1655,cs),
(190,1593,o),
(162,1531,o),
(122,1511,c),
(122,1499,l),
(176,1461,l)
);
}
);
width = 438;
},
{
anchors = (
{
name = _ar;
pos = (37,1670);
}
);
layerId = "97BB7961-D669-43AB-8BBF-11FFD0C46A4B";
shapes = (
{
closed = 1;
nodes = (
(295,1412,l),
(342,1428,o),
(482,1574,o),
(484,1743,cs),
(485,1849,o),
(420,1905,o),
(328,1905,cs),
(321,1905,ls),
(262,1905,o),
(170,1879,o),
(170,1786,cs),
(170,1735,o),
(194,1706,o),
(215,1691,cs),
(232,1678,o),
(253,1662,o),
(253,1620,cs),
(253,1552,o),
(231,1496,o),
(184,1456,c),
(188,1441,l),
(291,1412,l)
);
}
);
width = 654;
},
{
anchors = (
{
name = _ar;
pos = (123,1518);
}
);
layerId = "2103F1D3-C390-4F79-A87D-298F85EA6916";
shapes = (
{
closed = 1;
nodes = (
(220,1333,l),
(280,1382,o),
(348,1510,o),
(348,1590,cs),
(348,1653,o),
(309,1706,o),
(250,1706,cs),
(244,1706,ls),
(190,1706,o),
(156,1665,o),
(156,1624,cs),
(156,1590,o),
(175,1571,o),
(196,1554,cs),
(234,1524,o),
(237,1493,o),
(237,1470,cs),
(237,1447,o),
(225,1398,o),
(194,1352,c),
(194,1348,l),
(218,1333,l)
);
}
);
width = 504;
},
{
anchors = (
{
name = _ar;
pos = (35,1548);
}
);
layerId = "AFA1064D-EFC9-4C9F-B9B0-9118E41D87C4";
shapes = (
{
closed = 1;
nodes = (
(202,1320,l),
(277,1365,o),
(410,1475,o),
(410,1607,cs),
(410,1704,o),
(338,1773,o),
(251,1773,cs),
(244,1773,ls),
(183,1773,o),
(104,1728,o),
(104,1645,cs),
(104,1605,o),
(127,1574,o),
(164,1550,cs),
(211,1520,o),
(221,1504,o),
(221,1463,cs),
(221,1429,o),
(202,1387,o),
(164,1352,c),
(164,1344,l),
(200,1320,l)
);
}
);
width = 514;
}
);
metricLeft = hyphen;
metricRight = hyphen;
unicode = 789;
}
{
color = 1;
glyphname = ringbelowcomb;
layers = (
{
anchors = (
{
name = _bottom;
pos = (278,0);
},
{
name = bottom;
pos = (278,-546);
}
);
layerId = UUID0;
shapes = (
{
closed = 1;
nodes = (
(415,-546,o),
(526,-458,o),
(526,-322,cs),
(526,-186,o),
(415,-98,o),
(278,-98,cs),
(141,-98,o),
(30,-186,o),
(30,-322,cs),
(30,-458,o),
(141,-546,o),
(278,-546,cs)
);
},
{
closed = 1;
nodes = (
(204,-457,o),
(144,-405,o),
(144,-322,cs),
(144,-239,o),
(204,-187,o),
(278,-187,cs),
(352,-187,o),
(412,-239,o),
(412,-322,cs),
(412,-405,o),
(352,-457,o),
(278,-457,cs)
);
}
);
width = 556;
},
{
anchors = (
{
name = _bottom;
pos = (322,0);
},
{
name = bottom;
pos = (322,-576);
}
);
layerId = "DEBB1CE4-A72D-4960-969E-E04A036D2FA1";
shapes = (
{
closed = 1;
nodes = (
(483,-576,o),
(600,-486,o),
(602,-337,cs),
(604,-200,o),
(500,-96,o),
(333,-96,cs),
(172,-96,o),
(45,-185,o),
(42,-335,cs),
(39,-469,o),
(138,-576,o),
(318,-576,cs)
);
},
{
closed = 1;
nodes = (
(233,-464,o),
(193,-406,o),
(193,-334,cs),
(193,-259,o),
(245,-211,o),
(326,-211,cs),
(414,-211,o),
(452,-269,o),
(452,-341,cs),
(452,-421,o),
(402,-464,o),
(324,-464,c)
);
}
);
width = 644;
},
{
anchors = (
{
name = _bottom;
pos = (247,0);
},
{
name = bottom;
pos = (247,-548);
}
);
background = {
shapes = (
{
closed = 1;
nodes = (
(388,-546,o),
(499,-458,o),
(499,-322,cs),
(499,-186,o),
(388,-98,o),
(251,-98,cs),
(114,-98,o),
(3,-186,o),
(3,-322,cs),
(3,-458,o),
(114,-546,o),
(251,-546,cs)
);
},
{
closed = 1;
nodes = (
(177,-457,o),
(117,-405,o),
(117,-322,cs),
(117,-239,o),
(177,-187,o),
(251,-187,cs),
(325,-187,o),
(385,-239,o),
(385,-322,cs),
(385,-405,o),
(325,-457,o),
(251,-457,cs)
);
}
);
};
layerId = "0E4B6E2E-ECAB-4D06-9686-B0B40AA31834";
shapes = (
{
closed = 1;
nodes = (
(375,-548,o),
(485,-459,o),
(485,-323,cs),
(485,-196,o),
(374,-98,o),
(247,-98,cs),
(120,-98,o),
(9,-196,o),
(9,-323,cs),
(9,-459,o),
(121,-548,o),
(248,-548,cs)
);
},
{
closed = 1;
nodes = (
(174,-457,o),
(123,-415,o),
(123,-323,cs),
(123,-240,o),
(173,-187,o),
(247,-187,cs),
(321,-187,o),
(371,-240,o),
(371,-323,cs),
(371,-415,o),
(322,-457,o),
(248,-457,cs)
);
}
);
width = 494;
},
{
anchors = (
{
name = _bottom;
pos = (322,0);
},
{
name = bottom;
pos = (322,-576);
}
);
layerId = "EA2265BD-E890-48C4-9E90-A53076E780C5";
shapes = (
{
closed = 1;
nodes = (
(483,-576,o),
(600,-486,o),
(602,-337,cs),
(604,-200,o),
(500,-96,o),
(333,-96,cs),
(172,-96,o),
(45,-185,o),
(42,-335,cs),
(39,-469,o),
(138,-576,o),
(318,-576,cs)
);
},
{
closed = 1;
nodes = (
(233,-464,o),
(193,-406,o),
(193,-334,cs),
(193,-259,o),
(245,-211,o),
(326,-211,cs),
(414,-211,o),
(452,-269,o),
(452,-341,cs),
(452,-421,o),
(402,-464,o),
(324,-464,c)
);
}
);
width = 644;
},
{
anchors = (
{
name = _bottom;
pos = (298,0);
},
{
name = bottom;
pos = (298,-546);
}
);
layerId = "779F1615-9D1A-4778-9767-9A030AA58B6C";
shapes = (
{
closed = 1;
nodes = (
(465,-546,o),
(586,-448,o),
(586,-312,cs),
(586,-176,o),
(465,-78,o),
(298,-78,cs),
(131,-78,o),
(10,-176,o),
(10,-312,cs),
(10,-448,o),
(131,-546,o),
(298,-546,cs)
);
},
{
closed = 1;
nodes = (
(194,-466,o),
(124,-404,o),
(124,-312,cs),
(124,-220,o),
(194,-158,o),
(298,-158,cs),
(402,-158,o),
(472,-220,o),
(472,-312,cs),
(472,-404,o),
(402,-466,o),
(298,-466,cs)
);
}
);
width = 596;
},
{
anchors = (
{
name = _bottom;
pos = (341,0);
},
{
name = bottom;
pos = (341,-576);
}
);
layerId = "97BB7961-D669-43AB-8BBF-11FFD0C46A4B";
shapes = (
{
closed = 1;
nodes = (
(512,-576,o),
(629,-486,o),
(631,-337,cs),
(633,-200,o),
(529,-96,o),
(352,-96,cs),
(181,-96,o),
(54,-185,o),
(51,-335,cs),
(48,-469,o),
(147,-576,o),
(337,-576,cs)
);
},
{
closed = 1;
nodes = (
(252,-464,o),
(212,-406,o),
(212,-334,cs),
(212,-259,o),
(264,-211,o),
(345,-211,cs),
(433,-211,o),
(471,-269,o),
(471,-341,cs),
(471,-421,o),
(421,-464,o),
(343,-464,c)
);
}
);
width = 682;
},
{
anchors = (
{
name = _bottom;
pos = (228,0);
},
{
name = bottom;
pos = (228,-546);
}
);
layerId = "C9B9556E-C2FD-4F62-BB40-44923C452C22";
shapes = (
{
closed = 1;
nodes = (
(340,-546,o),
(446,-461,o),
(446,-320,cs),
(446,-200,o),
(353,-118,o),
(234,-118,cs),
(123,-118,o),
(10,-203,o),
(10,-344,cs),
(10,-464,o),
(90,-546,o),
(224,-546,cs)
);
},
{
closed = 1;
nodes = (
(162,-512,o),
(116,-448,o),
(116,-332,cs),
(116,-229,o),
(162,-152,o),
(228,-152,cs),
(294,-152,o),
(340,-216,o),
(340,-332,cs),
(340,-435,o),
(294,-512,o),
(228,-512,cs)
);
}
);
width = 456;
},
{
anchors = (
{
name = _bottom;
pos = (293,0);
},
{
name = bottom;
pos = (293,-546);
}
);
layerId = "184155C8-9F61-4F1C-9784-DDA8EA717636";
shapes = (
{
closed = 1;
nodes = (
(439,-546,o),
(576,-454,o),
(576,-297,cs),
(576,-162,o),
(452,-89,o),
(299,-89,cs),
(154,-89,o),
(10,-181,o),
(10,-338,cs),
(10,-472,o),
(121,-546,o),
(289,-546,cs)
);
},
{
closed = 1;
nodes = (
(232,-503,o),
(196,-438,o),
(196,-322,cs),
(196,-211,o),
(232,-131,o),
(293,-131,cs),
(354,-131,o),
(390,-197,o),
(390,-313,cs),
(390,-424,o),
(354,-503,o),
(293,-503,cs)
);
}
);
width = 586;
},
{
anchors = (
{
name = _bottom;
pos = (213,0);
},
{
name = bottom;
pos = (213,-546);
}
);
layerId = "E96AC896-F5DF-475B-BBD9-C7FEC6A86D0E";
shapes = (
{
closed = 1;
nodes = (
(320,-546,o),
(416,-461,o),
(416,-320,cs),
(416,-200,o),
(333,-118,o),
(219,-118,cs),
(113,-118,o),
(10,-203,o),
(10,-344,cs),
(10,-464,o),
(80,-546,o),
(209,-546,cs)
);
},
{
closed = 1;
nodes = (
(152,-512,o),
(116,-448,o),
(116,-332,cs),
(116,-229,o),
(152,-152,o),
(213,-152,cs),
(274,-152,o),
(310,-216,o),
(310,-332,cs),
(310,-435,o),
(274,-512,o),
(213,-512,cs)
);
}
);
width = 426;
},
{
anchors = (
{
name = _bottom;
pos = (268,0);
},
{
name = bottom;
pos = (268,-546);
}
);
layerId = "F2B10EEF-9DDC-48CA-970D-6B8C79870881";
shapes = (
{
closed = 1;
nodes = (
(394,-546,o),
(526,-442,o),
(526,-265,cs),
(526,-113,o),
(407,-30,o),
(274,-30,cs),
(149,-30,o),
(10,-134,o),
(10,-311,cs),
(10,-463,o),
(116,-546,o),
(264,-546,cs)
);
},
{
closed = 1;
nodes = (
(217,-498,o),
(186,-424,o),
(186,-293,cs),
(186,-168,o),
(217,-78,o),
(268,-78,cs),
(319,-78,o),
(350,-152,o),
(350,-283,cs),
(350,-408,o),
(319,-498,o),
(268,-498,cs)
);
}
);
width = 536;
},
{
anchors = (
{
name = _bottom;
pos = (238,0);
},
{
name = bottom;
pos = (238,-546);
}
);
layerId = "2103F1D3-C390-4F79-A87D-298F85EA6916";
shapes = (
{
closed = 1;
nodes = (
(360,-546,o),
(466,-461,o),
(466,-320,cs),
(466,-200,o),
(373,-118,o),
(244,-118,cs),
(123,-118,o),
(10,-203,o),
(10,-344,cs),
(10,-464,o),
(90,-546,o),
(234,-546,cs)
);
},
{
closed = 1;
nodes = (
(162,-512,o),
(116,-448,o),
(116,-332,cs),
(116,-229,o),
(162,-152,o),
(238,-152,cs),
(314,-152,o),
(360,-216,o),
(360,-332,cs),
(360,-435,o),
(314,-512,o),
(238,-512,cs)
);
}
);
width = 476;
},
{
anchors = (
{
name = _bottom;
pos = (303,0);
},
{
name = bottom;
pos = (303,-546);
}
);
layerId = "AFA1064D-EFC9-4C9F-B9B0-9118E41D87C4";
shapes = (
{
closed = 1;
nodes = (
(459,-546,o),
(596,-442,o),
(596,-265,cs),
(596,-113,o),
(472,-30,o),
(309,-30,cs),
(154,-30,o),
(10,-134,o),
(10,-311,cs),
(10,-463,o),
(121,-546,o),
(299,-546,cs)
);
},
{
closed = 1;
nodes = (
(232,-498,o),
(196,-424,o),
(196,-293,cs),
(196,-168,o),
(232,-78,o),
(303,-78,cs),
(374,-78,o),
(410,-152,o),
(410,-283,cs),
(410,-408,o),
(374,-498,o),
(303,-498,cs)
);
}
);
width = 606;
}
);
metricRight = "=|";
unicode = 805;
}
{
color = 9;
glyphname = beta;
layers = (
{
layerId = UUID0;
shapes = (
{
closed = 1;
nodes = (
(880,919,o),
(946,1061,o),
(946,1218,cs),
(946,1438,o),
(784,1580,o),
(619,1580,cs),
(365,1580,o),
(134,1390,o),
(134,946,cs),
(134,354,o),
(108,-61,o),
(102,-462,c),
(116,-476,o),
(152,-485,o),
(191,-485,cs),
(250,-485,o),
(308,-464,o),
(303,-409,cs),
(263,28,o),
(250,498,o),
(250,1006,cs),
(250,1338,o),
(352,1443,o),
(524,1443,cs),
(629,1443,o),
(824,1332,o),
(824,1169,cs),
(824,1038,o),
(710,895,o),
(559,865,cs),
(508,855,l),
(460,815,o),
(455,760,o),
(494,760,c),
(572,751,ls),
(740,732,o),
(928,618,o),
(928,389,cs),
(928,159,o),
(773,82,o),
(660,82,cs),
(438,82,o),
(311,241,o),
(225,380,c),
(225,122,l),
(332,6,o),
(552,-22,o),
(665,-22,cs),
(878,-22,o),
(1069,226,o),
(1069,487,cs),
(1069,704,o),
(942,829,o),
(732,856,c)
);
}
);
width = 1155;
},
{
layerId = "DEBB1CE4-A72D-4960-969E-E04A036D2FA1";
shapes = (
{
ref = "beta-latin";
}
);
width = 1355;
},
{
layerId = "0E4B6E2E-ECAB-4D06-9686-B0B40AA31834";
shapes = (
{
ref = "beta-latin";
}
);
width = 1059;
},
{
layerId = "EA2265BD-E890-48C4-9E90-A53076E780C5";
shapes = (
{
ref = "beta-latin";
}
);
width = 1202;
},
{
layerId = "779F1615-9D1A-4778-9767-9A030AA58B6C";
shapes = (
{
ref = "beta-latin";
}
);
width = 1194;
},
{
layerId = "97BB7961-D669-43AB-8BBF-11FFD0C46A4B";
shapes = (
{
ref = "beta-latin";
}
);
width = 1337;
},
{
layerId = "C9B9556E-C2FD-4F62-BB40-44923C452C22";
shapes = (
{
ref = "beta-latin";
}
);
width = 1091;
},
{
layerId = "184155C8-9F61-4F1C-9784-DDA8EA717636";
shapes = (
{
ref = "beta-latin";
}
);
width = 1291;
},
{
layerId = "E96AC896-F5DF-475B-BBD9-C7FEC6A86D0E";
shapes = (
{
ref = "beta-latin";
}
);
width = 968;
},
{
layerId = "F2B10EEF-9DDC-48CA-970D-6B8C79870881";
shapes = (
{
ref = "beta-latin";
}
);
width = 1168;
},
{
layerId = "2103F1D3-C390-4F79-A87D-298F85EA6916";
shapes = (
{
ref = "beta-latin";
}
);
width = 1089;
},
{
layerId = "AFA1064D-EFC9-4C9F-B9B0-9118E41D87C4";
shapes = (
{
ref = "beta-latin";
}
);
width = 1282;
}
);
unicode = 946;
}
{
glyphname = upsilon;
layers = (
{
anchors = (
{
name = top;
pos = (650,1110);
}
);
background = {
shapes = (
{
closed = 1;
nodes = (
(1075,-443,o),
(1101,-98,o),
(1101,297,cs),
(1101,570,o),
(1115,888,o),
(1060,1088,c),
(1053,1125,o),
(1002,1142,o),
(949,1142,cs),
(904,1142,o),
(858,1130,o),
(835,1107,c),
(906,957,o),
(995,578,o),
(995,236,cs),
(995,16,o),
(943,-265,o),
(762,-265,cs),
(579,-265,o),
(456,-127,o),
(378,54,c),
(379,656,l),
(379,711,o),
(314,732,o),
(255,732,cs),
(216,732,o),
(180,723,o),
(166,709,c),
(268,58,l),
(266,-184,o),
(199,-283,o),
(107,-283,cs),
(58,-283,o),
(4,-262,o),
(-29,-232,c),
(-75,-303,l),
(-47,-385,o),
(30,-449,o),
(140,-449,cs),
(274,-449,o),
(339,-352,o),
(339,-170,cs),
(339,-127,o),
(336,-80,o),
(329,-28,c),
(388,-181,o),
(521,-443,o),
(787,-443,cs)
);
}
);
};
layerId = UUID0;
shapes = (
{
closed = 1;
nodes = (
(1168,888,o),
(1096,1036,o),
(981,1110,cs),
(901,1162,o),
(831,1127,o),
(789,1021,c),
(968,906,o),
(1020,718,o),
(1010,415,cs),
(1004,248,o),
(898,141,o),
(705,141,cs),
(543,141,o),
(365,201,o),
(399,436,cs),
(436,688,o),
(460,789,o),
(460,916,cs),
(460,1047,o),
(434,1142,o),
(270,1142,cs),
(160,1142,o),
(81,1078,o),
(50,996,c),
(94,925,l),
(128,955,o),
(183,976,o),
(232,976,cs),
(324,976,o),
(374,877,o),
(338,635,c),
(295,412,ls),
(237,111,o),
(417,-22,o),
(622,-22,cs),
(982,-22,o),
(1177,287,o),
(1171,699,cs)
);
}
);
width = 1281;
},
{
layerId = "DEBB1CE4-A72D-4960-969E-E04A036D2FA1";
width = 1200;
},
{
layerId = "0E4B6E2E-ECAB-4D06-9686-B0B40AA31834";
width = 1200;
},
{
layerId = "EA2265BD-E890-48C4-9E90-A53076E780C5";
width = 1200;
},
{
layerId = "779F1615-9D1A-4778-9767-9A030AA58B6C";
width = 1200;
},
{
layerId = "97BB7961-D669-43AB-8BBF-11FFD0C46A4B";
width = 1200;
},
{
layerId = "C9B9556E-C2FD-4F62-BB40-44923C452C22";
width = 1200;
},
{
layerId = "184155C8-9F61-4F1C-9784-DDA8EA717636";
width = 1200;
},
{
layerId = "E96AC896-F5DF-475B-BBD9-C7FEC6A86D0E";
width = 1200;
},
{
layerId = "F2B10EEF-9DDC-48CA-970D-6B8C79870881";
width = 1200;
},
{
layerId = "2103F1D3-C390-4F79-A87D-298F85EA6916";
width = 1200;
},
{
layerId = "AFA1064D-EFC9-4C9F-B9B0-9118E41D87C4";
width = 1200;
}
);
unicode = 965;
}
{
glyphname = "Lje-cy";
kernLeft = "El-cy";
kernRight = "Softsign-cy";
layers = (
{
layerId = UUID0;
shapes = (
{
closed = 1;
nodes = (
(241,-10,o),
(310,34,o),
(367,133,cs),
(480,329,o),
(533,668,o),
(536,1184,cs),
(537,1380,l),
(984,1380,l),
(984,106,l),
(779,86,l),
(779,0,l),
(1069,0,ls),
(1159,0,o),
(1333,-8,o),
(1402,-8,cs),
(1707,-8,o),
(1935,192,o),
(1935,506,cs),
(1935,791,o),
(1755,924,o),
(1417,924,cs),
(1327,924,o),
(1241,917,o),
(1145,904,c),
(1145,1378,l),
(1333,1400,l),
(1333,1486,l),
(248,1486,l),
(248,1400,l),
(424,1378,l),
(424,1195,ls),
(424,728,o),
(376,387,o),
(269,229,cs),
(236,175,o),
(200,152,o),
(152,152,cs),
(72,152,o),
(39,156,o),
(17,160,c),
(24,0,l),
(48,-4,o),
(85,-10,o),
(147,-10,cs)
);
},
{
closed = 1;
nodes = (
(1263,87,o),
(1182,92,o),
(1145,100,c),
(1145,800,l),
(1224,811,o),
(1295,820,o),
(1365,820,cs),
(1626,820,o),
(1763,740,o),
(1763,473,cs),
(1763,220,o),
(1618,87,o),
(1355,87,cs)
);
}
);
width = 1965;
},
{
layerId = "DEBB1CE4-A72D-4960-969E-E04A036D2FA1";
shapes = (
{
closed = 1;
nodes = (
(269,-13,o),
(384,60,o),
(449,204,cs),
(541,407,o),
(595,768,o),
(595,1175,cs),
(595,1319,l),
(938,1319,l),
(938,155,l),
(729,132,l),
(729,0,l),
(1077,0,ls),
(1241,0,o),
(1379,-11,o),
(1505,-11,cs),
(1803,-11,o),
(2043,166,o),
(2043,477,cs),
(2043,745,o),
(1890,919,o),
(1532,919,cs),
(1444,919,o),
(1334,907,o),
(1275,899,c),
(1275,1319,l),
(1459,1347,l),
(1459,1486,l),
(230,1486,l),
(230,1347,l),
(428,1319,l),
(428,1224,ls),
(428,753,o),
(380,525,o),
(318,392,cs),
(271,292,o),
(214,281,o),
(163,281,cs),
(95,281,o),
(76,284,o),
(27,289,c),
(39,6,l),
(78,-6,o),
(87,-13,o),
(164,-13,cs)
);
},
{
closed = 1;
nodes = (
(1356,124,o),
(1312,130,o),
(1275,140,c),
(1275,761,l),
(1312,768,o),
(1393,776,o),
(1437,776,cs),
(1608,776,o),
(1689,676,o),
(1689,481,cs),
(1689,263,o),
(1610,124,o),
(1416,124,cs)
);
}
);
width = 2089;
},
{
layerId = "184155C8-9F61-4F1C-9784-DDA8EA717636";
shapes = (
{
closed = 1;
nodes = (
(287,-13,o),
(366,37,o),
(428,158,cs),
(534,364,o),
(583,755,o),
(583,1175,cs),
(583,1414,l),
(840,1414,l),
(840,72,l),
(686,37,l),
(686,0,l),
(1067,0,ls),
(1204,0,o),
(1323,-16,o),
(1432,-16,cs),
(1735,-16,o),
(1972,167,o),
(1972,481,cs),
(1972,751,o),
(1788,920,o),
(1403,920,cs),
(1356,920,o),
(1279,913,o),
(1224,906,c),
(1224,1414,l),
(1377,1449,l),
(1377,1486,l),
(297,1486,l),
(297,1449,l),
(505,1414,l),
(505,1224,ls),
(505,721,o),
(453,528,o),
(387,394,cs),
(334,287,o),
(252,284,o),
(168,284,cs),
(108,284,o),
(75,286,o),
(32,290,c),
(54,0,l),
(79,-8,o),
(113,-13,o),
(155,-13,cs)
);
},
{
closed = 1;
nodes = (
(1281,53,o),
(1251,57,o),
(1224,64,c),
(1224,845,l),
(1245,850,o),
(1271,854,o),
(1301,854,cs),
(1494,854,o),
(1586,730,o),
(1586,463,cs),
(1586,241,o),
(1520,53,o),
(1323,53,cs)
);
}
);
width = 1992;
},
{
layerId = "EA2265BD-E890-48C4-9E90-A53076E780C5";
shapes = (
{
closed = 1;
nodes = (
(244,-13,o),
(359,60,o),
(424,204,cs),
(516,407,o),
(573,851,o),
(571,1175,cs),
(570,1319,l),
(802,1319,l),
(802,155,l),
(618,132,l),
(618,0,l),
(928,0,ls),
(1070,0,o),
(1189,-11,o),
(1297,-11,cs),
(1565,-11,o),
(1779,166,o),
(1779,477,cs),
(1779,745,o),
(1643,919,o),
(1326,919,cs),
(1257,919,o),
(1172,907,o),
(1126,898,c),
(1126,1319,l),
(1286,1347,l),
(1286,1486,l),
(230,1486,l),
(230,1347,l),
(403,1319,l),
(403,1224,ls),
(403,753,o),
(355,525,o),
(293,392,cs),
(246,292,o),
(189,281,o),
(138,281,cs),
(83,281,o),
(67,284,o),
(27,289,c),
(39,6,l),
(70,-6,o),
(77,-13,o),
(139,-13,cs)
);
},
{
closed = 1;
nodes = (
(1176,124,o),
(1149,130,o),
(1126,140,c),
(1126,761,l),
(1151,768,o),
(1204,776,o),
(1233,776,cs),
(1367,776,o),
(1431,676,o),
(1431,481,cs),
(1431,262,o),
(1368,124,o),
(1211,124,cs)
);
}
);
width = 1812;
},
{
layerId = "0E4B6E2E-ECAB-4D06-9686-B0B40AA31834";
shapes = (
{
closed = 1;
nodes = (
(211,-10,o),
(280,34,o),
(337,133,cs),
(450,329,o),
(527,750,o),
(527,1184,cs),
(527,1380,l),
(823,1380,l),
(823,106,l),
(641,86,l),
(641,0,l),
(907,0,ls),
(983,0,o),
(1135,-8,o),
(1194,-8,cs),
(1473,-8,o),
(1681,191,o),
(1681,507,cs),
(1681,790,o),
(1515,924,o),
(1211,924,cs),
(1134,924,o),
(1062,915,o),
(980,904,c),
(980,1378,l),
(1142,1400,l),
(1142,1486,l),
(267,1486,l),
(267,1400,l),
(418,1378,l),
(419,1195,ls),
(422,728,o),
(353,392,o),
(243,229,cs),
(207,175,o),
(174,152,o),
(126,152,cs),
(61,152,o),
(35,156,o),
(17,160,c),
(24,0,l),
(42,-4,o),
(70,-10,o),
(117,-10,cs)
);
},
{
closed = 1;
nodes = (
(1075,87,o),
(1010,92,o),
(980,99,c),
(980,801,l),
(1044,811,o),
(1101,820,o),
(1174,820,cs),
(1392,820,o),
(1514,735,o),
(1514,474,cs),
(1514,216,o),
(1382,87,o),
(1149,87,cs)
);
}
);
width = 1706;
},
{
layerId = "F2B10EEF-9DDC-48CA-970D-6B8C79870881";
shapes = (
{
closed = 1;
nodes = (
(251,-13,o),
(330,13,o),
(397,156,cs),
(492,359,o),
(535,795,o),
(535,1175,cs),
(535,1412,l),
(755,1412,l),
(755,72,l),
(626,38,l),
(626,0,l),
(947,0,ls),
(1069,0,o),
(1175,-16,o),
(1272,-16,cs),
(1528,-16,o),
(1729,167,o),
(1729,481,cs),
(1729,752,o),
(1575,921,o),
(1253,921,cs),
(1214,921,o),
(1150,914,o),
(1104,907,c),
(1104,1412,l),
(1232,1450,l),
(1232,1486,l),
(278,1486,l),
(278,1450,l),
(467,1412,l),
(467,1224,ls),
(467,721,o),
(410,521,o),
(364,406,cs),
(320,296,o),
(228,284,o),
(147,284,cs),
(96,284,o),
(68,286,o),
(31,290,c),
(53,0,l),
(73,-8,o),
(100,-13,o),
(134,-13,cs)
);
},
{
closed = 1;
nodes = (
(1143,53,o),
(1123,57,o),
(1104,64,c),
(1104,846,l),
(1119,851,o),
(1139,855,o),
(1161,855,cs),
(1306,855,o),
(1376,731,o),
(1376,463,cs),
(1376,241,o),
(1325,53,o),
(1173,53,cs)
);
}
);
width = 1739;
},
{
layerId = "E96AC896-F5DF-475B-BBD9-C7FEC6A86D0E";
shapes = (
{
closed = 1;
nodes = (
(210,-10,o),
(256,34,o),
(306,133,cs),
(405,329,o),
(446,820,o),
(446,1184,cs),
(446,1430,l),
(761,1430,l),
(761,66,l),
(579,36,l),
(579,0,l),
(849,0,ls),
(922,0,o),
(1068,-8,o),
(1124,-8,cs),
(1399,-8,o),
(1604,176,o),
(1604,468,cs),
(1604,725,o),
(1440,846,o),
(1141,846,cs),
(1068,846,o),
(999,837,o),
(922,826,c),
(922,1420,l),
(1079,1450,l),
(1079,1486,l),
(227,1486,l),
(227,1450,l),
(373,1420,l),
(373,1195,ls),
(373,798,o),
(326,400,o),
(237,229,cs),
(205,168,o),
(167,152,o),
(121,152,cs),
(47,152,o),
(18,156,o),
(-4,160,c),
(3,0,l),
(27,-4,o),
(54,-10,o),
(116,-10,cs)
);
},
{
closed = 1;
nodes = (
(1010,47,o),
(949,52,o),
(922,59,c),
(922,763,l),
(981,773,o),
(1035,782,o),
(1104,782,cs),
(1314,782,o),
(1432,697,o),
(1432,435,cs),
(1432,176,o),
(1304,47,o),
(1079,47,cs)
);
}
);
width = 1619;
},
{
layerId = "C9B9556E-C2FD-4F62-BB40-44923C452C22";
shapes = (
{
closed = 1;
nodes = (
(241,-10,o),
(310,34,o),
(367,133,cs),
(480,329,o),
(537,750,o),
(537,1184,cs),
(537,1430,l),
(949,1430,l),
(949,66,l),
(753,36,l),
(753,0,l),
(1032,0,ls),
(1114,0,o),
(1277,-8,o),
(1340,-8,cs),
(1635,-8,o),
(1854,176,o),
(1854,468,cs),
(1854,725,o),
(1678,846,o),
(1357,846,cs),
(1273,846,o),
(1194,837,o),
(1105,826,c),
(1105,1420,l),
(1279,1450,l),
(1279,1486,l),
(301,1486,l),
(301,1450,l),
(464,1420,l),
(464,1195,ls),
(464,728,o),
(393,400,o),
(289,229,cs),
(255,172,o),
(208,152,o),
(152,152,cs),
(72,152,o),
(39,156,o),
(17,160,c),
(24,0,l),
(48,-4,o),
(85,-10,o),
(147,-10,cs)
);
},
{
closed = 1;
nodes = (
(1212,47,o),
(1138,52,o),
(1105,59,c),
(1105,763,l),
(1175,773,o),
(1239,782,o),
(1320,782,cs),
(1552,782,o),
(1682,697,o),
(1682,435,cs),
(1682,176,o),
(1542,47,o),
(1295,47,cs)
);
}
);
width = 1874;
},
{
layerId = "AFA1064D-EFC9-4C9F-B9B0-9118E41D87C4";
shapes = (
{
closed = 1;
nodes = (
(256,-13,o),
(340,38,o),
(409,157,cs),
(527,361,o),
(546,755,o),
(546,1175,cs),
(546,1414,l),
(870,1414,l),
(870,72,l),
(735,37,l),
(735,0,l),
(1167,0,ls),
(1304,0,o),
(1423,-16,o),
(1532,-16,cs),
(1835,-16,o),
(2072,167,o),
(2072,481,cs),
(2072,751,o),
(1888,920,o),
(1503,920,cs),
(1442,920,o),
(1345,910,o),
(1271,899,c),
(1271,1414,l),
(1423,1449,l),
(1423,1486,l),
(248,1486,l),
(248,1449,l),
(488,1414,l),
(488,1224,ls),
(488,721,o),
(436,528,o),
(367,396,cs),
(310,286,o),
(216,284,o),
(162,284,cs),
(125,284,o),
(69,286,o),
(26,290,c),
(43,0,l),
(68,-8,o),
(107,-13,o),
(149,-13,cs)
);
},
{
closed = 1;
nodes = (
(1360,53,o),
(1313,60,o),
(1271,73,c),
(1271,839,l),
(1307,847,o),
(1351,854,o),
(1401,854,cs),
(1594,854,o),
(1686,730,o),
(1686,463,cs),
(1686,241,o),
(1620,53,o),
(1423,53,cs)
);
}
);
width = 2082;
},
{
layerId = "2103F1D3-C390-4F79-A87D-298F85EA6916";
shapes = (
{
closed = 1;
nodes = (
(273,-10,o),
(361,59,o),
(417,153,cs),
(532,348,o),
(589,750,o),
(589,1184,cs),
(589,1430,l),
(1070,1430,l),
(1070,66,l),
(864,36,l),
(864,0,l),
(1162,0,ls),
(1247,0,o),
(1415,-8,o),
(1480,-8,cs),
(1827,-8,o),
(2075,176,o),
(2075,468,cs),
(2075,725,o),
(1881,846,o),
(1537,846,cs),
(1458,846,o),
(1368,837,o),
(1235,816,c),
(1235,1420,l),
(1409,1450,l),
(1409,1486,l),
(353,1486,l),
(353,1450,l),
(516,1420,l),
(516,1195,ls),
(516,728,o),
(443,416,o),
(336,247,cs),
(302,193,o),
(240,152,o),
(184,152,cs),
(104,152,o),
(71,156,o),
(49,160,c),
(56,0,l),
(80,-4,o),
(117,-10,o),
(179,-10,cs)
);
},
{
closed = 1;
nodes = (
(1341,47,o),
(1275,51,o),
(1235,59,c),
(1235,753,l),
(1354,773,o),
(1433,782,o),
(1500,782,cs),
(1765,782,o),
(1903,697,o),
(1903,435,cs),
(1903,176,o),
(1740,47,o),
(1435,47,cs)
);
}
);
width = 2090;
},
{
layerId = "779F1615-9D1A-4778-9767-9A030AA58B6C";
shapes = (
{
closed = 1;
nodes = (
(272,-10,o),
(341,34,o),
(398,133,cs),
(511,329,o),
(588,750,o),
(588,1184,cs),
(588,1380,l),
(1121,1380,l),
(1121,106,l),
(907,86,l),
(907,0,l),
(1213,0,ls),
(1310,0,o),
(1504,-8,o),
(1579,-8,cs),
(1907,-8,o),
(2151,191,o),
(2151,507,cs),
(2151,790,o),
(1955,924,o),
(1596,924,cs),
(1492,924,o),
(1395,915,o),
(1286,904,c),
(1286,1378,l),
(1471,1400,l),
(1471,1486,l),
(297,1486,l),
(297,1400,l),
(471,1378,l),
(471,1195,ls),
(471,728,o),
(399,390,o),
(300,229,cs),
(267,175,o),
(231,152,o),
(183,152,cs),
(105,152,o),
(73,156,o),
(51,160,c),
(58,0,l),
(81,-4,o),
(118,-10,o),
(178,-10,cs)
);
},
{
closed = 1;
nodes = (
(1425,87,o),
(1330,92,o),
(1286,99,c),
(1286,801,l),
(1375,811,o),
(1457,820,o),
(1559,820,cs),
(1828,820,o),
(1979,735,o),
(1979,474,cs),
(1979,216,o),
(1818,87,o),
(1534,87,cs)
);
}
);
userData = {
com.schriftgestaltung.Glyphs.lastChange = "2019-04-25 21:50:43 +0000";
};
width = 2181;
},
{
layerId = "97BB7961-D669-43AB-8BBF-11FFD0C46A4B";
shapes = (
{
closed = 1;
nodes = (
(300,-13,o),
(415,60,o),
(480,204,cs),
(572,407,o),
(626,851,o),
(626,1175,cs),
(626,1319,l),
(1071,1319,l),
(1071,155,l),
(856,132,l),
(856,0,l),
(1211,0,ls),
(1387,0,o),
(1533,-11,o),
(1667,-11,cs),
(2002,-11,o),
(2269,166,o),
(2269,477,cs),
(2269,745,o),
(2097,919,o),
(1696,919,cs),
(1597,919,o),
(1473,907,o),
(1408,898,c),
(1408,1319,l),
(1595,1347,l),
(1595,1486,l),
(255,1486,l),
(255,1347,l),
(459,1319,l),
(459,1224,ls),
(459,753,o),
(411,525,o),
(349,392,cs),
(302,292,o),
(245,281,o),
(194,281,cs),
(123,281,o),
(103,284,o),
(52,289,c),
(64,6,l),
(105,-6,o),
(114,-13,o),
(195,-13,cs)
);
},
{
closed = 1;
nodes = (
(1508,124,o),
(1454,130,o),
(1408,140,c),
(1408,761,l),
(1452,768,o),
(1548,776,o),
(1600,776,cs),
(1785,776,o),
(1872,676,o),
(1872,481,cs),
(1872,262,o),
(1787,124,o),
(1578,124,cs)
);
}
);
width = 2289;
}
);
metricLeft = "El-cy";
metricRight = "Softsign-cy";
unicode = 1033;
}
{
category = Letter;
glyphname = "sha-cy";
kernLeft = "pe-cy";
kernRight = "pe-cy";
layers = (
{
anchors = (
{
name = bottomright;
pos = (1805,0);
}
);
layerId = UUID0;
shapes = (
{
closed = 1;
nodes = (
(1805,0,l),
(1805,82,l),
(1653,102,l),
(1653,1002,l),
(1801,1024,l),
(1801,1110,l),
(1334,1110,l),
(1334,1024,l),
(1494,1002,l),
(1494,104,l),
(1022,104,l),
(1022,1002,l),
(1164,1024,l),
(1164,1110,l),
(703,1110,l),
(703,1024,l),
(863,1002,l),
(863,104,l),
(391,104,l),
(391,1002,l),
(533,1024,l),
(533,1110,l),
(84,1110,l),
(84,1024,l),
(232,1002,l),
(232,102,l),
(80,82,l),
(80,0,l)
);
}
);
width = 1885;
},
{
anchors = (
{
name = bottomright;
pos = (1956,0);
}
);
layerId = "DEBB1CE4-A72D-4960-969E-E04A036D2FA1";
shapes = (
{
closed = 1;
nodes = (
(1956,0,l),
(1956,132,l),
(1832,150,l),
(1832,959,l),
(1954,983,l),
(1954,1112,l),
(1376,1112,l),
(1376,983,l),
(1500,959,l),
(1500,138,l),
(1180,138,l),
(1180,959,l),
(1300,983,l),
(1300,1112,l),
(724,1112,l),
(724,983,l),
(848,959,l),
(848,138,l),
(528,138,l),
(528,959,l),
(648,983,l),
(648,1112,l),
(74,1112,l),
(74,983,l),
(196,959,l),
(196,150,l),
(72,132,l),
(72,0,l)
);
}
);
width = 2028;
},
{
anchors = (
{
name = bottomright;
pos = (1788,0);
}
);
layerId = "184155C8-9F61-4F1C-9784-DDA8EA717636";
shapes = (
{
closed = 1;
nodes = (
(1790,0,l),
(1790,38,l),
(1666,72,l),
(1666,933,l),
(1786,967,l),
(1786,1005,l),
(1234,1005,l),
(1234,967,l),
(1328,933,l),
(1328,70,l),
(1070,70,l),
(1070,933,l),
(1160,967,l),
(1160,1005,l),
(638,1005,l),
(638,967,l),
(732,933,l),
(732,70,l),
(474,70,l),
(474,933,l),
(564,967,l),
(564,1005,l),
(16,1005,l),
(16,967,l),
(136,933,l),
(136,72,l),
(12,38,l),
(12,0,l)
);
}
);
width = 1802;
},
{
anchors = (
{
name = bottomright;
pos = (1670,0);
}
);
layerId = "EA2265BD-E890-48C4-9E90-A53076E780C5";
shapes = (
{
closed = 1;
nodes = (
(1670,0,l),
(1670,132,l),
(1574,150,l),
(1574,966,l),
(1668,984,l),
(1668,1112,l),
(1170,1112,l),
(1170,984,l),
(1268,966,l),
(1268,136,l),
(1008,136,l),
(1008,966,l),
(1098,984,l),
(1098,1112,l),
(604,1112,l),
(604,984,l),
(702,966,l),
(702,136,l),
(442,136,l),
(442,966,l),
(532,984,l),
(532,1112,l),
(42,1112,l),
(42,984,l),
(136,966,l),
(136,150,l),
(40,132,l),
(40,0,l)
);
}
);
width = 1710;
},
{
anchors = (
{
name = bottomright;
pos = (1571,0);
}
);
layerId = "0E4B6E2E-ECAB-4D06-9686-B0B40AA31834";
shapes = (
{
closed = 1;
nodes = (
(1571,0,l),
(1571,85,l),
(1441,101,l),
(1441,1005,l),
(1567,1025,l),
(1567,1110,l),
(1152,1110,l),
(1152,1025,l),
(1286,1005,l),
(1286,102,l),
(894,102,l),
(894,1005,l),
(1018,1025,l),
(1018,1110,l),
(605,1110,l),
(605,1025,l),
(739,1005,l),
(739,102,l),
(347,102,l),
(347,1005,l),
(471,1025,l),
(471,1110,l),
(66,1110,l),
(66,1025,l),
(192,1005,l),
(192,101,l),
(62,85,l),
(62,0,l)
);
}
);
width = 1633;
},
{
anchors = (
{
name = bottomright;
pos = (1561,0);
}
);
layerId = "F2B10EEF-9DDC-48CA-970D-6B8C79870881";
shapes = (
{
closed = 1;
nodes = (
(1562,0,l),
(1562,38,l),
(1476,72,l),
(1476,933,l),
(1558,967,l),
(1558,1005,l),
(1092,1005,l),
(1092,967,l),
(1160,933,l),
(1160,66,l),
(950,66,l),
(950,933,l),
(1016,967,l),
(1016,1005,l),
(566,1005,l),
(566,967,l),
(634,933,l),
(634,66,l),
(424,66,l),
(424,933,l),
(490,967,l),
(490,1005,l),
(26,1005,l),
(26,967,l),
(108,933,l),
(108,72,l),
(22,38,l),
(22,0,l)
);
}
);
width = 1584;
},
{
anchors = (
{
name = bottomright;
pos = (1376,0);
}
);
layerId = "E96AC896-F5DF-475B-BBD9-C7FEC6A86D0E";
shapes = (
{
closed = 1;
nodes = (
(1378,0,l),
(1378,36,l),
(1256,67,l),
(1256,938,l),
(1378,969,l),
(1378,1005,l),
(1010,1005,l),
(1010,969,l),
(1120,938,l),
(1120,52,l),
(770,52,l),
(770,938,l),
(876,969,l),
(876,1005,l),
(524,1005,l),
(524,969,l),
(634,938,l),
(634,52,l),
(284,52,l),
(284,938,l),
(390,969,l),
(390,1005,l),
(26,1005,l),
(26,969,l),
(148,938,l),
(148,67,l),
(26,36,l),
(26,0,l)
);
}
);
width = 1404;
},
{
anchors = (
{
name = bottomright;
pos = (1518,0);
}
);
layerId = "C9B9556E-C2FD-4F62-BB40-44923C452C22";
shapes = (
{
closed = 1;
nodes = (
(1518,0,l),
(1518,36,l),
(1390,67,l),
(1390,938,l),
(1518,969,l),
(1518,1005,l),
(1124,1005,l),
(1124,969,l),
(1248,938,l),
(1248,56,l),
(846,56,l),
(846,938,l),
(968,969,l),
(968,1005,l),
(580,1005,l),
(580,969,l),
(704,938,l),
(704,56,l),
(302,56,l),
(302,938,l),
(424,969,l),
(424,1005,l),
(32,1005,l),
(32,969,l),
(160,938,l),
(160,67,l),
(32,36,l),
(32,0,l)
);
}
);
width = 1550;
},
{
anchors = (
{
name = bottomright;
pos = (1905,0);
}
);
layerId = "AFA1064D-EFC9-4C9F-B9B0-9118E41D87C4";
shapes = (
{
closed = 1;
nodes = (
(1907,0,l),
(1907,38,l),
(1781,70,l),
(1781,933,l),
(1905,967,l),
(1905,1005,l),
(1328,1005,l),
(1328,967,l),
(1428,933,l),
(1428,72,l),
(1138,72,l),
(1138,933,l),
(1236,967,l),
(1236,1005,l),
(685,1005,l),
(685,967,l),
(785,933,l),
(785,72,l),
(495,72,l),
(495,933,l),
(593,967,l),
(593,1005,l),
(18,1005,l),
(18,967,l),
(142,933,l),
(142,72,l),
(16,38,l),
(16,0,l)
);
}
);
width = 1923;
},
{
anchors = (
{
name = bottomright;
pos = (1591,0);
}
);
layerId = "2103F1D3-C390-4F79-A87D-298F85EA6916";
shapes = (
{
closed = 1;
nodes = (
(1591,0,l),
(1591,36,l),
(1461,65,l),
(1461,938,l),
(1591,969,l),
(1591,1005,l),
(1189,1005,l),
(1189,969,l),
(1317,938,l),
(1317,60,l),
(885,60,l),
(885,938,l),
(1011,969,l),
(1011,1005,l),
(613,1005,l),
(613,969,l),
(741,938,l),
(741,60,l),
(309,60,l),
(309,938,l),
(435,969,l),
(435,1005,l),
(35,1005,l),
(35,969,l),
(165,938,l),
(165,67,l),
(35,36,l),
(35,0,l)
);
}
);
width = 1626;
},
{
anchors = (
{
name = bottomright;
pos = (1981,0);
}
);
layerId = "779F1615-9D1A-4778-9767-9A030AA58B6C";
shapes = (
{
closed = 1;
nodes = (
(1984,0,l),
(1984,84,l),
(1783,104,l),
(1783,993,l),
(1972,1022,l),
(1972,1110,l),
(1415,1110,l),
(1415,1022,l),
(1618,993,l),
(1618,105,l),
(1095,105,l),
(1095,993,l),
(1284,1022,l),
(1284,1110,l),
(726,1110,l),
(726,1022,l),
(929,993,l),
(929,105,l),
(406,105,l),
(406,993,l),
(606,1022,l),
(606,1110,l),
(45,1110,l),
(45,1022,l),
(241,993,l),
(241,104,l),
(38,84,l),
(38,0,l)
);
}
);
userData = {
com.schriftgestaltung.Glyphs.lastChange = "2019-04-25 21:50:43 +0000";
};
width = 2022;
},
{
anchors = (
{
name = bottomright;
pos = (2096,0);
}
);
layerId = "97BB7961-D669-43AB-8BBF-11FFD0C46A4B";
shapes = (
{
closed = 1;
nodes = (
(2096,0,l),
(2096,132,l),
(1965,153,l),
(1965,960,l),
(2101,984,l),
(2101,1112,l),
(1486,1112,l),
(1486,984,l),
(1613,960,l),
(1613,144,l),
(1251,144,l),
(1251,960,l),
(1377,984,l),
(1377,1112,l),
(775,1112,l),
(775,984,l),
(899,960,l),
(899,144,l),
(537,144,l),
(537,960,l),
(666,984,l),
(666,1112,l),
(51,1112,l),
(51,984,l),
(185,960,l),
(185,154,l),
(55,132,l),
(55,0,l)
);
}
);
width = 2152;
}
);
metricLeft = "pe-cy";
metricRight = "pe-cy";
subCategory = Lowercase;
unicode = 1096;
}
